%TF.GenerationSoftware,Altium Limited,Altium Designer,26.6.0 (10)*%
G04 Layer_Color=32768*
G04 Board_Origin=0|0*
%FSLAX45Y45*%
%MOMM*%
%TF.SameCoordinates,6A3D5CD9-43CD-45B0-B852-C75ABF57ED6A*%
%TF.FilePolarity,Positive*%
%TF.FileFunction,Other,Top_Designator*%
%TF.Part,Single*%
G01*
G75*
G36*
X8299393Y10618027D02*
X8299891Y10617971D01*
X8300500Y10617916D01*
X8301109Y10617860D01*
X8301829Y10617694D01*
X8303324Y10617362D01*
X8304985Y10616864D01*
X8305816Y10616531D01*
X8306591Y10616144D01*
X8307366Y10615646D01*
X8308141Y10615147D01*
X8308197Y10615092D01*
X8308307Y10615036D01*
X8308529Y10614870D01*
X8308806Y10614593D01*
X8309083Y10614317D01*
X8309470Y10613929D01*
X8309858Y10613486D01*
X8310301Y10613043D01*
X8310744Y10612489D01*
X8311187Y10611825D01*
X8311685Y10611160D01*
X8312128Y10610441D01*
X8312516Y10609610D01*
X8312959Y10608779D01*
X8313291Y10607893D01*
X8313623Y10606897D01*
X8308640Y10605734D01*
Y10605789D01*
X8308584Y10605900D01*
X8308474Y10606122D01*
X8308363Y10606398D01*
X8308252Y10606731D01*
X8308086Y10607174D01*
X8307643Y10608060D01*
X8307089Y10609056D01*
X8306425Y10610053D01*
X8305594Y10610994D01*
X8304708Y10611825D01*
X8304598Y10611936D01*
X8304265Y10612157D01*
X8303712Y10612434D01*
X8302992Y10612822D01*
X8302050Y10613154D01*
X8300998Y10613486D01*
X8299725Y10613707D01*
X8298341Y10613763D01*
X8297898D01*
X8297621Y10613707D01*
X8297233D01*
X8296790Y10613652D01*
X8295738Y10613486D01*
X8294575Y10613265D01*
X8293357Y10612877D01*
X8292083Y10612323D01*
X8290921Y10611603D01*
X8290865D01*
X8290810Y10611493D01*
X8290422Y10611216D01*
X8289924Y10610773D01*
X8289315Y10610108D01*
X8288595Y10609278D01*
X8287931Y10608336D01*
X8287322Y10607174D01*
X8286768Y10605900D01*
Y10605845D01*
X8286712Y10605734D01*
X8286657Y10605568D01*
X8286602Y10605291D01*
X8286491Y10604959D01*
X8286380Y10604571D01*
X8286214Y10603630D01*
X8285993Y10602522D01*
X8285771Y10601304D01*
X8285660Y10599975D01*
X8285605Y10598536D01*
Y10598480D01*
Y10598314D01*
Y10598037D01*
Y10597705D01*
X8285660Y10597317D01*
Y10596819D01*
X8285716Y10596265D01*
X8285771Y10595656D01*
X8285937Y10594327D01*
X8286214Y10592888D01*
X8286546Y10591448D01*
X8286989Y10590008D01*
Y10589953D01*
X8287045Y10589842D01*
X8287155Y10589676D01*
X8287266Y10589399D01*
X8287598Y10588735D01*
X8288097Y10587960D01*
X8288706Y10587074D01*
X8289481Y10586132D01*
X8290367Y10585302D01*
X8291419Y10584526D01*
X8291474D01*
X8291585Y10584471D01*
X8291751Y10584360D01*
X8291973Y10584250D01*
X8292250Y10584139D01*
X8292582Y10583973D01*
X8293357Y10583641D01*
X8294354Y10583308D01*
X8295461Y10583031D01*
X8296679Y10582810D01*
X8297953Y10582755D01*
X8298341D01*
X8298673Y10582810D01*
X8299060D01*
X8299448Y10582865D01*
X8300445Y10583087D01*
X8301607Y10583364D01*
X8302770Y10583807D01*
X8303988Y10584416D01*
X8304598Y10584748D01*
X8305151Y10585191D01*
X8305207Y10585246D01*
X8305262Y10585302D01*
X8305428Y10585468D01*
X8305650Y10585634D01*
X8305871Y10585911D01*
X8306148Y10586243D01*
X8306480Y10586575D01*
X8306757Y10587018D01*
X8307089Y10587517D01*
X8307477Y10588070D01*
X8307809Y10588624D01*
X8308141Y10589288D01*
X8308418Y10590008D01*
X8308695Y10590783D01*
X8308972Y10591614D01*
X8309193Y10592500D01*
X8314288Y10591226D01*
Y10591171D01*
X8314232Y10590950D01*
X8314122Y10590617D01*
X8313955Y10590174D01*
X8313789Y10589676D01*
X8313568Y10589067D01*
X8313291Y10588402D01*
X8312959Y10587683D01*
X8312184Y10586132D01*
X8311187Y10584582D01*
X8310578Y10583807D01*
X8309969Y10583031D01*
X8309304Y10582367D01*
X8308529Y10581702D01*
X8308474Y10581647D01*
X8308363Y10581536D01*
X8308086Y10581426D01*
X8307809Y10581204D01*
X8307366Y10580927D01*
X8306923Y10580650D01*
X8306314Y10580374D01*
X8305705Y10580097D01*
X8304985Y10579764D01*
X8304210Y10579488D01*
X8303379Y10579211D01*
X8302493Y10578934D01*
X8301552Y10578712D01*
X8300555Y10578602D01*
X8299503Y10578491D01*
X8298396Y10578436D01*
X8297787D01*
X8297344Y10578491D01*
X8296845D01*
X8296236Y10578546D01*
X8295572Y10578657D01*
X8294797Y10578768D01*
X8293191Y10579045D01*
X8291530Y10579488D01*
X8289869Y10580097D01*
X8289093Y10580484D01*
X8288318Y10580927D01*
X8288263Y10580983D01*
X8288152Y10581038D01*
X8287931Y10581204D01*
X8287709Y10581426D01*
X8287377Y10581647D01*
X8286989Y10581979D01*
X8286546Y10582367D01*
X8286103Y10582810D01*
X8285660Y10583308D01*
X8285162Y10583807D01*
X8284165Y10585080D01*
X8283224Y10586575D01*
X8282393Y10588236D01*
Y10588292D01*
X8282283Y10588458D01*
X8282227Y10588735D01*
X8282061Y10589067D01*
X8281950Y10589510D01*
X8281784Y10590064D01*
X8281563Y10590673D01*
X8281397Y10591337D01*
X8281231Y10592057D01*
X8281009Y10592888D01*
X8280732Y10594604D01*
X8280511Y10596542D01*
X8280400Y10598536D01*
Y10598591D01*
Y10598812D01*
Y10599145D01*
X8280455Y10599532D01*
Y10600086D01*
X8280511Y10600640D01*
X8280566Y10601360D01*
X8280677Y10602079D01*
X8280954Y10603685D01*
X8281341Y10605457D01*
X8281895Y10607229D01*
X8282670Y10608946D01*
X8282726Y10609001D01*
X8282781Y10609167D01*
X8282892Y10609388D01*
X8283113Y10609665D01*
X8283335Y10610053D01*
X8283612Y10610496D01*
X8284331Y10611493D01*
X8285273Y10612600D01*
X8286380Y10613707D01*
X8287654Y10614815D01*
X8289149Y10615756D01*
X8289204Y10615812D01*
X8289370Y10615867D01*
X8289592Y10615978D01*
X8289869Y10616144D01*
X8290312Y10616310D01*
X8290755Y10616476D01*
X8291308Y10616698D01*
X8291917Y10616919D01*
X8292582Y10617141D01*
X8293302Y10617362D01*
X8294852Y10617694D01*
X8296624Y10617971D01*
X8298451Y10618082D01*
X8299005D01*
X8299393Y10618027D01*
D02*
G37*
G36*
X8332228Y10617528D02*
X8332671Y10617473D01*
X8333225Y10617417D01*
X8333834Y10617307D01*
X8334443Y10617196D01*
X8335883Y10616808D01*
X8337322Y10616255D01*
X8338042Y10615922D01*
X8338762Y10615535D01*
X8339427Y10615036D01*
X8340036Y10614483D01*
X8340091Y10614427D01*
X8340202Y10614372D01*
X8340313Y10614150D01*
X8340534Y10613929D01*
X8340811Y10613652D01*
X8341088Y10613265D01*
X8341365Y10612877D01*
X8341697Y10612379D01*
X8342251Y10611327D01*
X8342804Y10609998D01*
X8343026Y10609333D01*
X8343136Y10608558D01*
X8343247Y10607783D01*
X8343303Y10606952D01*
Y10606841D01*
Y10606565D01*
X8343247Y10606122D01*
X8343192Y10605512D01*
X8343081Y10604848D01*
X8342860Y10604073D01*
X8342638Y10603242D01*
X8342306Y10602412D01*
X8342251Y10602301D01*
X8342140Y10602024D01*
X8341918Y10601581D01*
X8341586Y10600972D01*
X8341143Y10600307D01*
X8340589Y10599477D01*
X8339925Y10598646D01*
X8339150Y10597705D01*
X8339039Y10597594D01*
X8338762Y10597262D01*
X8338485Y10596985D01*
X8338208Y10596708D01*
X8337876Y10596376D01*
X8337433Y10595933D01*
X8336990Y10595490D01*
X8336436Y10594992D01*
X8335883Y10594438D01*
X8335218Y10593829D01*
X8334498Y10593220D01*
X8333723Y10592500D01*
X8332837Y10591780D01*
X8331951Y10591005D01*
X8331896Y10590950D01*
X8331785Y10590839D01*
X8331564Y10590673D01*
X8331287Y10590451D01*
X8330955Y10590119D01*
X8330567Y10589787D01*
X8329681Y10589067D01*
X8328740Y10588236D01*
X8327854Y10587406D01*
X8327079Y10586686D01*
X8326746Y10586409D01*
X8326470Y10586132D01*
X8326414Y10586077D01*
X8326248Y10585911D01*
X8326027Y10585689D01*
X8325750Y10585357D01*
X8325473Y10584969D01*
X8325141Y10584582D01*
X8324476Y10583641D01*
X8343358D01*
Y10579100D01*
X8317942D01*
Y10579155D01*
Y10579377D01*
Y10579709D01*
X8317998Y10580152D01*
X8318053Y10580650D01*
X8318164Y10581204D01*
X8318274Y10581758D01*
X8318496Y10582367D01*
Y10582422D01*
X8318551Y10582478D01*
X8318662Y10582810D01*
X8318884Y10583308D01*
X8319216Y10583973D01*
X8319659Y10584748D01*
X8320212Y10585634D01*
X8320822Y10586520D01*
X8321597Y10587461D01*
Y10587517D01*
X8321708Y10587572D01*
X8321984Y10587904D01*
X8322483Y10588402D01*
X8323203Y10589122D01*
X8324033Y10589953D01*
X8325085Y10590950D01*
X8326359Y10592057D01*
X8327743Y10593220D01*
X8327798Y10593275D01*
X8328020Y10593441D01*
X8328352Y10593718D01*
X8328740Y10594050D01*
X8329238Y10594493D01*
X8329847Y10594992D01*
X8330456Y10595545D01*
X8331176Y10596155D01*
X8332560Y10597484D01*
X8333945Y10598812D01*
X8334609Y10599477D01*
X8335218Y10600141D01*
X8335772Y10600750D01*
X8336215Y10601360D01*
Y10601415D01*
X8336326Y10601470D01*
X8336436Y10601636D01*
X8336547Y10601858D01*
X8336935Y10602467D01*
X8337378Y10603187D01*
X8337765Y10604073D01*
X8338153Y10605014D01*
X8338374Y10606066D01*
X8338485Y10607063D01*
Y10607118D01*
Y10607174D01*
X8338430Y10607506D01*
X8338374Y10608060D01*
X8338208Y10608669D01*
X8337987Y10609444D01*
X8337599Y10610219D01*
X8337101Y10610994D01*
X8336436Y10611769D01*
X8336326Y10611880D01*
X8336049Y10612102D01*
X8335661Y10612379D01*
X8335052Y10612766D01*
X8334277Y10613098D01*
X8333391Y10613431D01*
X8332339Y10613652D01*
X8331176Y10613707D01*
X8330844D01*
X8330622Y10613652D01*
X8329958Y10613597D01*
X8329183Y10613431D01*
X8328352Y10613209D01*
X8327411Y10612822D01*
X8326525Y10612323D01*
X8325694Y10611659D01*
X8325584Y10611548D01*
X8325362Y10611271D01*
X8325030Y10610828D01*
X8324698Y10610164D01*
X8324310Y10609388D01*
X8323978Y10608392D01*
X8323756Y10607284D01*
X8323646Y10606011D01*
X8318828Y10606509D01*
Y10606565D01*
X8318884Y10606731D01*
Y10607007D01*
X8318939Y10607395D01*
X8319050Y10607838D01*
X8319160Y10608336D01*
X8319327Y10608946D01*
X8319493Y10609555D01*
X8319936Y10610884D01*
X8320600Y10612212D01*
X8320988Y10612877D01*
X8321486Y10613541D01*
X8321984Y10614150D01*
X8322538Y10614704D01*
X8322593Y10614760D01*
X8322704Y10614815D01*
X8322870Y10614981D01*
X8323147Y10615147D01*
X8323479Y10615369D01*
X8323867Y10615590D01*
X8324310Y10615867D01*
X8324864Y10616144D01*
X8325473Y10616421D01*
X8326137Y10616698D01*
X8326857Y10616919D01*
X8327632Y10617141D01*
X8328463Y10617307D01*
X8329349Y10617473D01*
X8330290Y10617528D01*
X8331287Y10617584D01*
X8331841D01*
X8332228Y10617528D01*
D02*
G37*
G36*
X4233146Y6822530D02*
X4233257Y6822419D01*
X4233478Y6822198D01*
X4233811Y6821976D01*
X4234198Y6821644D01*
X4234641Y6821201D01*
X4235195Y6820758D01*
X4235859Y6820260D01*
X4236524Y6819761D01*
X4237299Y6819152D01*
X4238185Y6818543D01*
X4239071Y6817934D01*
X4240068Y6817270D01*
X4241120Y6816605D01*
X4242283Y6815941D01*
X4243445Y6815276D01*
X4243501Y6815221D01*
X4243722Y6815110D01*
X4244055Y6814944D01*
X4244553Y6814667D01*
X4245162Y6814390D01*
X4245826Y6814058D01*
X4246602Y6813670D01*
X4247488Y6813283D01*
X4248484Y6812840D01*
X4249481Y6812341D01*
X4250588Y6811898D01*
X4251751Y6811456D01*
X4254132Y6810570D01*
X4256679Y6809739D01*
X4256735D01*
X4256901Y6809684D01*
X4257178Y6809628D01*
X4257510Y6809517D01*
X4257953Y6809407D01*
X4258507Y6809296D01*
X4259116Y6809130D01*
X4259780Y6809019D01*
X4260555Y6808853D01*
X4261386Y6808687D01*
X4263158Y6808410D01*
X4265096Y6808133D01*
X4267200Y6807967D01*
Y6803150D01*
X4267145D01*
X4266979D01*
X4266757D01*
X4266425Y6803205D01*
X4265982D01*
X4265428Y6803260D01*
X4264819Y6803316D01*
X4264155Y6803371D01*
X4263379Y6803482D01*
X4262604Y6803593D01*
X4261663Y6803759D01*
X4260721Y6803925D01*
X4259725Y6804091D01*
X4258617Y6804313D01*
X4256347Y6804866D01*
X4256292D01*
X4256070Y6804922D01*
X4255738Y6805032D01*
X4255240Y6805198D01*
X4254686Y6805365D01*
X4254021Y6805586D01*
X4253246Y6805808D01*
X4252416Y6806140D01*
X4251474Y6806472D01*
X4250533Y6806804D01*
X4248429Y6807635D01*
X4246214Y6808632D01*
X4243999Y6809739D01*
X4243944Y6809794D01*
X4243722Y6809905D01*
X4243445Y6810071D01*
X4243002Y6810293D01*
X4242504Y6810570D01*
X4241895Y6810957D01*
X4241231Y6811345D01*
X4240511Y6811788D01*
X4238905Y6812840D01*
X4237244Y6813947D01*
X4235527Y6815221D01*
X4233921Y6816550D01*
Y6797779D01*
X4229381D01*
Y6822585D01*
X4233091D01*
X4233146Y6822530D01*
D02*
G37*
G36*
X4267200Y6780669D02*
X4237244D01*
X4237299Y6780613D01*
X4237521Y6780336D01*
X4237853Y6780004D01*
X4238240Y6779450D01*
X4238739Y6778841D01*
X4239293Y6778066D01*
X4239902Y6777180D01*
X4240511Y6776184D01*
Y6776128D01*
X4240566Y6776073D01*
X4240788Y6775741D01*
X4241064Y6775187D01*
X4241397Y6774522D01*
X4241784Y6773747D01*
X4242172Y6772917D01*
X4242559Y6772086D01*
X4242892Y6771255D01*
X4238351D01*
Y6771311D01*
X4238240Y6771422D01*
X4238185Y6771643D01*
X4238019Y6771920D01*
X4237853Y6772252D01*
X4237631Y6772640D01*
X4237078Y6773581D01*
X4236469Y6774689D01*
X4235693Y6775796D01*
X4234807Y6776959D01*
X4233866Y6778122D01*
X4233811Y6778177D01*
X4233755Y6778232D01*
X4233589Y6778398D01*
X4233423Y6778620D01*
X4232869Y6779118D01*
X4232205Y6779783D01*
X4231430Y6780447D01*
X4230544Y6781167D01*
X4229658Y6781776D01*
X4228716Y6782330D01*
Y6785375D01*
X4267200D01*
Y6780669D01*
D02*
G37*
G36*
Y6758354D02*
X4259226Y6753315D01*
X4259171D01*
X4259060Y6753204D01*
X4258894Y6753093D01*
X4258673Y6752927D01*
X4258064Y6752540D01*
X4257288Y6752041D01*
X4256458Y6751432D01*
X4255572Y6750823D01*
X4254741Y6750214D01*
X4253966Y6749660D01*
X4253911Y6749605D01*
X4253689Y6749439D01*
X4253357Y6749162D01*
X4252969Y6748774D01*
X4252139Y6747944D01*
X4251751Y6747501D01*
X4251419Y6747058D01*
X4251364Y6747003D01*
X4251308Y6746892D01*
X4251197Y6746670D01*
X4251031Y6746338D01*
X4250865Y6746006D01*
X4250699Y6745618D01*
X4250422Y6744732D01*
Y6744677D01*
X4250367Y6744566D01*
Y6744345D01*
X4250312Y6744068D01*
X4250256Y6743680D01*
Y6743237D01*
X4250201Y6742628D01*
Y6736094D01*
X4267200D01*
Y6731000D01*
X4228883D01*
Y6748774D01*
X4228938Y6749217D01*
Y6749716D01*
X4228993Y6750879D01*
X4229159Y6752097D01*
X4229326Y6753426D01*
X4229602Y6754644D01*
X4229769Y6755253D01*
X4229935Y6755751D01*
Y6755807D01*
X4229990Y6755862D01*
X4230156Y6756194D01*
X4230378Y6756693D01*
X4230765Y6757302D01*
X4231264Y6757966D01*
X4231928Y6758686D01*
X4232703Y6759350D01*
X4233589Y6760015D01*
X4233645D01*
X4233700Y6760070D01*
X4234032Y6760292D01*
X4234586Y6760513D01*
X4235306Y6760846D01*
X4236136Y6761122D01*
X4237133Y6761399D01*
X4238185Y6761565D01*
X4239348Y6761621D01*
X4239403D01*
X4239514D01*
X4239735D01*
X4240012Y6761565D01*
X4240400D01*
X4240788Y6761510D01*
X4241729Y6761288D01*
X4242836Y6760956D01*
X4243999Y6760513D01*
X4245162Y6759849D01*
X4245716Y6759406D01*
X4246269Y6758963D01*
X4246325Y6758907D01*
X4246380Y6758852D01*
X4246546Y6758686D01*
X4246712Y6758465D01*
X4246934Y6758188D01*
X4247155Y6757855D01*
X4247432Y6757412D01*
X4247764Y6756969D01*
X4248041Y6756416D01*
X4248318Y6755807D01*
X4248650Y6755142D01*
X4248927Y6754422D01*
X4249149Y6753592D01*
X4249426Y6752761D01*
X4249592Y6751820D01*
X4249758Y6750823D01*
X4249813Y6750934D01*
X4249924Y6751155D01*
X4250145Y6751488D01*
X4250367Y6751931D01*
X4250976Y6752927D01*
X4251364Y6753426D01*
X4251696Y6753869D01*
X4251807Y6753979D01*
X4252083Y6754256D01*
X4252526Y6754699D01*
X4253080Y6755253D01*
X4253855Y6755862D01*
X4254686Y6756582D01*
X4255683Y6757302D01*
X4256790Y6758077D01*
X4267200Y6764666D01*
Y6758354D01*
D02*
G37*
G36*
X5449538Y2796630D02*
X5449870D01*
X5450756Y2796464D01*
X5451808Y2796298D01*
X5452916Y2796021D01*
X5454134Y2795633D01*
X5455297Y2795079D01*
X5455352D01*
X5455407Y2795024D01*
X5455574Y2794913D01*
X5455795Y2794803D01*
X5456349Y2794470D01*
X5457069Y2793972D01*
X5457844Y2793363D01*
X5458619Y2792643D01*
X5459394Y2791757D01*
X5460059Y2790816D01*
Y2790760D01*
X5460114Y2790705D01*
X5460225Y2790539D01*
X5460280Y2790318D01*
X5460557Y2789764D01*
X5460834Y2789044D01*
X5461166Y2788103D01*
X5461388Y2787051D01*
X5461609Y2785888D01*
X5461664Y2784614D01*
Y2784337D01*
X5461609Y2784060D01*
Y2783617D01*
X5461554Y2783119D01*
X5461443Y2782565D01*
X5461277Y2781901D01*
X5461111Y2781236D01*
X5460889Y2780461D01*
X5460612Y2779686D01*
X5460280Y2778911D01*
X5459837Y2778080D01*
X5459339Y2777305D01*
X5458785Y2776530D01*
X5458121Y2775755D01*
X5457345Y2775035D01*
X5457290Y2774979D01*
X5457124Y2774869D01*
X5456902Y2774703D01*
X5456515Y2774481D01*
X5456017Y2774149D01*
X5455463Y2773872D01*
X5454743Y2773540D01*
X5453968Y2773208D01*
X5453026Y2772820D01*
X5451974Y2772488D01*
X5450812Y2772211D01*
X5449538Y2771934D01*
X5448098Y2771657D01*
X5446548Y2771491D01*
X5444887Y2771380D01*
X5443115Y2771325D01*
X5443059D01*
X5443004D01*
X5442838D01*
X5442616D01*
X5442063Y2771380D01*
X5441288D01*
X5440402Y2771436D01*
X5439350Y2771546D01*
X5438187Y2771657D01*
X5436913Y2771823D01*
X5435640Y2772045D01*
X5434255Y2772322D01*
X5432926Y2772654D01*
X5431597Y2773041D01*
X5430324Y2773540D01*
X5429106Y2774094D01*
X5427943Y2774703D01*
X5426946Y2775422D01*
X5426891Y2775478D01*
X5426780Y2775589D01*
X5426559Y2775810D01*
X5426226Y2776087D01*
X5425894Y2776419D01*
X5425562Y2776862D01*
X5425119Y2777416D01*
X5424731Y2777970D01*
X5424344Y2778634D01*
X5423901Y2779354D01*
X5423569Y2780184D01*
X5423181Y2781015D01*
X5422904Y2781956D01*
X5422683Y2782953D01*
X5422572Y2784005D01*
X5422516Y2785113D01*
Y2785556D01*
X5422572Y2785888D01*
Y2786275D01*
X5422627Y2786718D01*
X5422849Y2787770D01*
X5423126Y2788933D01*
X5423569Y2790151D01*
X5424233Y2791370D01*
X5424621Y2791979D01*
X5425064Y2792532D01*
X5425119Y2792588D01*
X5425174Y2792643D01*
X5425340Y2792809D01*
X5425507Y2792975D01*
X5425783Y2793252D01*
X5426116Y2793474D01*
X5426891Y2794083D01*
X5427888Y2794692D01*
X5429106Y2795246D01*
X5430490Y2795744D01*
X5432040Y2796076D01*
X5432428Y2791370D01*
X5432373D01*
X5432317Y2791314D01*
X5431985Y2791259D01*
X5431487Y2791093D01*
X5430878Y2790871D01*
X5430213Y2790650D01*
X5429549Y2790318D01*
X5428940Y2789930D01*
X5428441Y2789542D01*
X5428331Y2789432D01*
X5428109Y2789210D01*
X5427777Y2788822D01*
X5427389Y2788269D01*
X5427057Y2787549D01*
X5426725Y2786774D01*
X5426503Y2785832D01*
X5426393Y2784836D01*
Y2784448D01*
X5426448Y2784005D01*
X5426559Y2783507D01*
X5426725Y2782842D01*
X5426946Y2782178D01*
X5427223Y2781513D01*
X5427666Y2780849D01*
X5427721Y2780738D01*
X5427943Y2780461D01*
X5428331Y2780074D01*
X5428884Y2779575D01*
X5429549Y2779022D01*
X5430324Y2778413D01*
X5431321Y2777859D01*
X5432428Y2777305D01*
X5432483D01*
X5432594Y2777250D01*
X5432760Y2777194D01*
X5432982Y2777084D01*
X5433314Y2777028D01*
X5433702Y2776917D01*
X5434145Y2776807D01*
X5434698Y2776696D01*
X5435307Y2776530D01*
X5435972Y2776419D01*
X5436692Y2776308D01*
X5437467Y2776253D01*
X5438353Y2776142D01*
X5439239Y2776087D01*
X5440235Y2776032D01*
X5441232D01*
X5441177Y2776087D01*
X5440845Y2776308D01*
X5440402Y2776696D01*
X5439848Y2777194D01*
X5439183Y2777748D01*
X5438574Y2778468D01*
X5437965Y2779243D01*
X5437412Y2780129D01*
Y2780184D01*
X5437356Y2780240D01*
X5437190Y2780572D01*
X5437024Y2781070D01*
X5436747Y2781735D01*
X5436526Y2782510D01*
X5436359Y2783396D01*
X5436193Y2784337D01*
X5436138Y2785334D01*
Y2785777D01*
X5436193Y2786109D01*
X5436249Y2786552D01*
X5436304Y2786995D01*
X5436415Y2787549D01*
X5436581Y2788103D01*
X5436969Y2789376D01*
X5437245Y2790041D01*
X5437633Y2790705D01*
X5438021Y2791370D01*
X5438464Y2792089D01*
X5439017Y2792754D01*
X5439626Y2793363D01*
X5439682Y2793418D01*
X5439793Y2793529D01*
X5439959Y2793695D01*
X5440235Y2793861D01*
X5440623Y2794138D01*
X5441011Y2794415D01*
X5441509Y2794692D01*
X5442063Y2795024D01*
X5442672Y2795356D01*
X5443336Y2795633D01*
X5444112Y2795910D01*
X5444887Y2796187D01*
X5445717Y2796353D01*
X5446659Y2796519D01*
X5447600Y2796630D01*
X5448597Y2796685D01*
X5448652D01*
X5448763D01*
X5448929D01*
X5449206D01*
X5449538Y2796630D01*
D02*
G37*
G36*
X5461000Y2754769D02*
X5431044D01*
X5431099Y2754713D01*
X5431321Y2754436D01*
X5431653Y2754104D01*
X5432040Y2753551D01*
X5432539Y2752941D01*
X5433093Y2752166D01*
X5433702Y2751280D01*
X5434311Y2750284D01*
Y2750228D01*
X5434366Y2750173D01*
X5434588Y2749841D01*
X5434864Y2749287D01*
X5435197Y2748622D01*
X5435584Y2747847D01*
X5435972Y2747017D01*
X5436359Y2746186D01*
X5436692Y2745355D01*
X5432151D01*
Y2745411D01*
X5432040Y2745522D01*
X5431985Y2745743D01*
X5431819Y2746020D01*
X5431653Y2746352D01*
X5431431Y2746740D01*
X5430878Y2747681D01*
X5430269Y2748789D01*
X5429493Y2749896D01*
X5428607Y2751059D01*
X5427666Y2752222D01*
X5427611Y2752277D01*
X5427555Y2752332D01*
X5427389Y2752498D01*
X5427223Y2752720D01*
X5426669Y2753218D01*
X5426005Y2753883D01*
X5425230Y2754547D01*
X5424344Y2755267D01*
X5423458Y2755876D01*
X5422516Y2756430D01*
Y2759475D01*
X5461000D01*
Y2754769D01*
D02*
G37*
G36*
Y2732454D02*
X5453026Y2727415D01*
X5452971D01*
X5452860Y2727304D01*
X5452694Y2727193D01*
X5452473Y2727027D01*
X5451864Y2726640D01*
X5451088Y2726141D01*
X5450258Y2725532D01*
X5449372Y2724923D01*
X5448541Y2724314D01*
X5447766Y2723760D01*
X5447711Y2723705D01*
X5447489Y2723539D01*
X5447157Y2723262D01*
X5446769Y2722874D01*
X5445939Y2722044D01*
X5445551Y2721601D01*
X5445219Y2721158D01*
X5445164Y2721103D01*
X5445108Y2720992D01*
X5444997Y2720770D01*
X5444831Y2720438D01*
X5444665Y2720106D01*
X5444499Y2719718D01*
X5444222Y2718832D01*
Y2718777D01*
X5444167Y2718666D01*
Y2718445D01*
X5444112Y2718168D01*
X5444056Y2717780D01*
Y2717337D01*
X5444001Y2716728D01*
Y2710194D01*
X5461000D01*
Y2705100D01*
X5422683D01*
Y2722874D01*
X5422738Y2723317D01*
Y2723816D01*
X5422793Y2724979D01*
X5422959Y2726197D01*
X5423126Y2727526D01*
X5423402Y2728744D01*
X5423569Y2729353D01*
X5423735Y2729851D01*
Y2729907D01*
X5423790Y2729962D01*
X5423956Y2730294D01*
X5424178Y2730793D01*
X5424565Y2731402D01*
X5425064Y2732066D01*
X5425728Y2732786D01*
X5426503Y2733450D01*
X5427389Y2734115D01*
X5427445D01*
X5427500Y2734170D01*
X5427832Y2734392D01*
X5428386Y2734613D01*
X5429106Y2734946D01*
X5429936Y2735222D01*
X5430933Y2735499D01*
X5431985Y2735665D01*
X5433148Y2735721D01*
X5433203D01*
X5433314D01*
X5433535D01*
X5433812Y2735665D01*
X5434200D01*
X5434588Y2735610D01*
X5435529Y2735388D01*
X5436636Y2735056D01*
X5437799Y2734613D01*
X5438962Y2733949D01*
X5439516Y2733506D01*
X5440069Y2733063D01*
X5440125Y2733007D01*
X5440180Y2732952D01*
X5440346Y2732786D01*
X5440512Y2732565D01*
X5440734Y2732288D01*
X5440955Y2731955D01*
X5441232Y2731512D01*
X5441564Y2731069D01*
X5441841Y2730516D01*
X5442118Y2729907D01*
X5442450Y2729242D01*
X5442727Y2728522D01*
X5442949Y2727692D01*
X5443226Y2726861D01*
X5443392Y2725920D01*
X5443558Y2724923D01*
X5443613Y2725034D01*
X5443724Y2725255D01*
X5443945Y2725588D01*
X5444167Y2726031D01*
X5444776Y2727027D01*
X5445164Y2727526D01*
X5445496Y2727969D01*
X5445607Y2728079D01*
X5445883Y2728356D01*
X5446326Y2728799D01*
X5446880Y2729353D01*
X5447655Y2729962D01*
X5448486Y2730682D01*
X5449483Y2731402D01*
X5450590Y2732177D01*
X5461000Y2738766D01*
Y2732454D01*
D02*
G37*
G36*
X5118729Y3248307D02*
X5119172Y3248251D01*
X5119670Y3248196D01*
X5120279Y3248085D01*
X5120888Y3247974D01*
X5122328Y3247642D01*
X5123823Y3247089D01*
X5124598Y3246756D01*
X5125318Y3246313D01*
X5126093Y3245870D01*
X5126813Y3245317D01*
X5126869Y3245261D01*
X5127035Y3245150D01*
X5127256Y3244929D01*
X5127533Y3244652D01*
X5127865Y3244265D01*
X5128308Y3243822D01*
X5128696Y3243268D01*
X5129139Y3242659D01*
X5129582Y3241994D01*
X5129969Y3241219D01*
X5130357Y3240388D01*
X5130745Y3239503D01*
X5131021Y3238561D01*
X5131243Y3237509D01*
X5131409Y3236402D01*
X5131464Y3235239D01*
Y3234741D01*
X5131409Y3234353D01*
X5131354Y3233910D01*
X5131298Y3233412D01*
X5131243Y3232803D01*
X5131077Y3232193D01*
X5130745Y3230809D01*
X5130246Y3229425D01*
X5129914Y3228705D01*
X5129526Y3227985D01*
X5129083Y3227321D01*
X5128585Y3226656D01*
X5128530Y3226601D01*
X5128474Y3226490D01*
X5128253Y3226379D01*
X5128031Y3226158D01*
X5127755Y3225881D01*
X5127422Y3225604D01*
X5126979Y3225272D01*
X5126481Y3224995D01*
X5125983Y3224663D01*
X5125374Y3224331D01*
X5124045Y3223722D01*
X5122494Y3223223D01*
X5121664Y3223057D01*
X5120778Y3222946D01*
X5120390Y3227874D01*
X5120445D01*
X5120556D01*
X5120722Y3227930D01*
X5120999Y3227985D01*
X5121608Y3228151D01*
X5122439Y3228373D01*
X5123269Y3228705D01*
X5124211Y3229148D01*
X5125041Y3229702D01*
X5125817Y3230366D01*
X5125872Y3230477D01*
X5126093Y3230698D01*
X5126370Y3231141D01*
X5126702Y3231750D01*
X5127035Y3232415D01*
X5127312Y3233246D01*
X5127533Y3234187D01*
X5127588Y3235239D01*
Y3235571D01*
X5127533Y3235793D01*
X5127478Y3236457D01*
X5127256Y3237232D01*
X5126979Y3238174D01*
X5126536Y3239115D01*
X5125872Y3240112D01*
X5125484Y3240555D01*
X5125041Y3240998D01*
X5124986Y3241053D01*
X5124931Y3241108D01*
X5124764Y3241219D01*
X5124598Y3241385D01*
X5123989Y3241773D01*
X5123214Y3242216D01*
X5122273Y3242603D01*
X5121110Y3242991D01*
X5119726Y3243268D01*
X5119006Y3243379D01*
X5118231D01*
X5118175D01*
X5118064D01*
X5117843D01*
X5117566Y3243323D01*
X5117234D01*
X5116846Y3243268D01*
X5115960Y3243102D01*
X5114908Y3242825D01*
X5113856Y3242437D01*
X5112859Y3241884D01*
X5111918Y3241108D01*
X5111863D01*
X5111807Y3240998D01*
X5111531Y3240721D01*
X5111143Y3240222D01*
X5110700Y3239558D01*
X5110312Y3238672D01*
X5109925Y3237675D01*
X5109648Y3236512D01*
X5109537Y3235848D01*
Y3234796D01*
X5109593Y3234353D01*
X5109648Y3233799D01*
X5109814Y3233135D01*
X5109980Y3232470D01*
X5110257Y3231750D01*
X5110589Y3231031D01*
X5110645Y3230975D01*
X5110755Y3230754D01*
X5111032Y3230422D01*
X5111309Y3229979D01*
X5111697Y3229536D01*
X5112195Y3229093D01*
X5112693Y3228594D01*
X5113302Y3228207D01*
X5112693Y3223777D01*
X5092981Y3227487D01*
Y3246535D01*
X5097466D01*
Y3231197D01*
X5107821Y3229148D01*
X5107765Y3229203D01*
X5107710Y3229314D01*
X5107599Y3229480D01*
X5107433Y3229757D01*
X5107267Y3230089D01*
X5107045Y3230477D01*
X5106602Y3231363D01*
X5106159Y3232470D01*
X5105772Y3233688D01*
X5105495Y3235017D01*
X5105384Y3235682D01*
Y3236900D01*
X5105440Y3237232D01*
X5105495Y3237675D01*
X5105550Y3238174D01*
X5105661Y3238727D01*
X5105827Y3239336D01*
X5106215Y3240665D01*
X5106492Y3241385D01*
X5106879Y3242105D01*
X5107267Y3242825D01*
X5107710Y3243545D01*
X5108264Y3244209D01*
X5108873Y3244874D01*
X5108928Y3244929D01*
X5109039Y3245040D01*
X5109205Y3245206D01*
X5109482Y3245427D01*
X5109869Y3245704D01*
X5110257Y3245981D01*
X5110755Y3246313D01*
X5111309Y3246646D01*
X5111918Y3246922D01*
X5112583Y3247255D01*
X5113358Y3247531D01*
X5114133Y3247808D01*
X5114964Y3248030D01*
X5115905Y3248196D01*
X5116846Y3248307D01*
X5117843Y3248362D01*
X5117898D01*
X5118064D01*
X5118341D01*
X5118729Y3248307D01*
D02*
G37*
G36*
X5130800Y3206169D02*
X5100844D01*
X5100899Y3206113D01*
X5101121Y3205836D01*
X5101453Y3205504D01*
X5101840Y3204950D01*
X5102339Y3204341D01*
X5102893Y3203566D01*
X5103502Y3202680D01*
X5104111Y3201683D01*
Y3201628D01*
X5104166Y3201573D01*
X5104388Y3201240D01*
X5104664Y3200687D01*
X5104997Y3200022D01*
X5105384Y3199247D01*
X5105772Y3198417D01*
X5106159Y3197586D01*
X5106492Y3196755D01*
X5101951D01*
Y3196811D01*
X5101840Y3196921D01*
X5101785Y3197143D01*
X5101619Y3197420D01*
X5101453Y3197752D01*
X5101231Y3198140D01*
X5100678Y3199081D01*
X5100069Y3200188D01*
X5099293Y3201296D01*
X5098407Y3202459D01*
X5097466Y3203621D01*
X5097411Y3203677D01*
X5097355Y3203732D01*
X5097189Y3203898D01*
X5097023Y3204120D01*
X5096469Y3204618D01*
X5095805Y3205283D01*
X5095030Y3205947D01*
X5094144Y3206667D01*
X5093258Y3207276D01*
X5092316Y3207830D01*
Y3210875D01*
X5130800D01*
Y3206169D01*
D02*
G37*
G36*
Y3183854D02*
X5122826Y3178815D01*
X5122771D01*
X5122660Y3178704D01*
X5122494Y3178593D01*
X5122273Y3178427D01*
X5121664Y3178040D01*
X5120888Y3177541D01*
X5120058Y3176932D01*
X5119172Y3176323D01*
X5118341Y3175714D01*
X5117566Y3175160D01*
X5117511Y3175105D01*
X5117289Y3174939D01*
X5116957Y3174662D01*
X5116569Y3174274D01*
X5115739Y3173444D01*
X5115351Y3173001D01*
X5115019Y3172558D01*
X5114964Y3172502D01*
X5114908Y3172392D01*
X5114797Y3172170D01*
X5114631Y3171838D01*
X5114465Y3171506D01*
X5114299Y3171118D01*
X5114022Y3170232D01*
Y3170177D01*
X5113967Y3170066D01*
Y3169845D01*
X5113912Y3169568D01*
X5113856Y3169180D01*
Y3168737D01*
X5113801Y3168128D01*
Y3161594D01*
X5130800D01*
Y3156500D01*
X5092483D01*
Y3174274D01*
X5092538Y3174717D01*
Y3175216D01*
X5092593Y3176378D01*
X5092759Y3177597D01*
X5092926Y3178926D01*
X5093202Y3180144D01*
X5093369Y3180753D01*
X5093535Y3181251D01*
Y3181307D01*
X5093590Y3181362D01*
X5093756Y3181694D01*
X5093978Y3182193D01*
X5094365Y3182802D01*
X5094864Y3183466D01*
X5095528Y3184186D01*
X5096303Y3184850D01*
X5097189Y3185515D01*
X5097245D01*
X5097300Y3185570D01*
X5097632Y3185792D01*
X5098186Y3186013D01*
X5098906Y3186345D01*
X5099736Y3186622D01*
X5100733Y3186899D01*
X5101785Y3187065D01*
X5102948Y3187121D01*
X5103003D01*
X5103114D01*
X5103335D01*
X5103612Y3187065D01*
X5104000D01*
X5104388Y3187010D01*
X5105329Y3186788D01*
X5106436Y3186456D01*
X5107599Y3186013D01*
X5108762Y3185349D01*
X5109316Y3184906D01*
X5109869Y3184463D01*
X5109925Y3184407D01*
X5109980Y3184352D01*
X5110146Y3184186D01*
X5110312Y3183964D01*
X5110534Y3183688D01*
X5110755Y3183355D01*
X5111032Y3182912D01*
X5111364Y3182469D01*
X5111641Y3181916D01*
X5111918Y3181307D01*
X5112250Y3180642D01*
X5112527Y3179922D01*
X5112749Y3179092D01*
X5113026Y3178261D01*
X5113192Y3177320D01*
X5113358Y3176323D01*
X5113413Y3176434D01*
X5113524Y3176655D01*
X5113745Y3176988D01*
X5113967Y3177431D01*
X5114576Y3178427D01*
X5114964Y3178926D01*
X5115296Y3179369D01*
X5115407Y3179479D01*
X5115683Y3179756D01*
X5116126Y3180199D01*
X5116680Y3180753D01*
X5117455Y3181362D01*
X5118286Y3182082D01*
X5119283Y3182802D01*
X5120390Y3183577D01*
X5130800Y3190166D01*
Y3183854D01*
D02*
G37*
G36*
X12463037Y6045528D02*
X12463313D01*
X12463701Y6045473D01*
X12464642Y6045307D01*
X12465694Y6045085D01*
X12466857Y6044698D01*
X12468020Y6044199D01*
X12469183Y6043535D01*
X12469238D01*
X12469294Y6043424D01*
X12469460Y6043313D01*
X12469681Y6043147D01*
X12470235Y6042704D01*
X12470955Y6042095D01*
X12471675Y6041265D01*
X12472505Y6040268D01*
X12473225Y6039105D01*
X12473889Y6037776D01*
Y6037721D01*
X12473945Y6037610D01*
X12474056Y6037388D01*
X12474166Y6037112D01*
X12474277Y6036724D01*
X12474443Y6036226D01*
X12474554Y6035672D01*
X12474720Y6035063D01*
X12474886Y6034343D01*
X12475052Y6033512D01*
X12475163Y6032626D01*
X12475274Y6031685D01*
X12475384Y6030633D01*
X12475495Y6029526D01*
X12475551Y6028307D01*
Y6027034D01*
Y6026979D01*
Y6026702D01*
Y6026314D01*
Y6025816D01*
X12475495Y6025207D01*
Y6024487D01*
X12475440Y6023656D01*
X12475329Y6022826D01*
X12475163Y6020943D01*
X12474886Y6018950D01*
X12474499Y6017067D01*
X12474222Y6016126D01*
X12473945Y6015295D01*
Y6015240D01*
X12473889Y6015129D01*
X12473779Y6014907D01*
X12473668Y6014575D01*
X12473502Y6014243D01*
X12473280Y6013800D01*
X12472727Y6012859D01*
X12472062Y6011807D01*
X12471287Y6010699D01*
X12470290Y6009647D01*
X12469183Y6008706D01*
X12469127D01*
X12469017Y6008595D01*
X12468851Y6008484D01*
X12468629Y6008374D01*
X12468297Y6008207D01*
X12467965Y6007986D01*
X12467522Y6007764D01*
X12467079Y6007598D01*
X12466027Y6007155D01*
X12464753Y6006768D01*
X12463369Y6006546D01*
X12461818Y6006436D01*
X12461375D01*
X12461099Y6006491D01*
X12460711D01*
X12460268Y6006546D01*
X12459216Y6006768D01*
X12458053Y6007045D01*
X12456835Y6007488D01*
X12455617Y6008097D01*
X12455008Y6008484D01*
X12454454Y6008927D01*
X12454399Y6008983D01*
X12454343Y6009038D01*
X12454177Y6009204D01*
X12454011Y6009370D01*
X12453789Y6009647D01*
X12453513Y6009979D01*
X12452959Y6010755D01*
X12452405Y6011751D01*
X12451851Y6012969D01*
X12451408Y6014354D01*
X12451076Y6015960D01*
X12455617Y6016347D01*
Y6016292D01*
X12455672Y6016181D01*
Y6016070D01*
X12455727Y6015849D01*
X12455894Y6015240D01*
X12456115Y6014575D01*
X12456392Y6013800D01*
X12456780Y6013025D01*
X12457222Y6012305D01*
X12457776Y6011696D01*
X12457832Y6011641D01*
X12458053Y6011474D01*
X12458441Y6011253D01*
X12458884Y6011031D01*
X12459493Y6010755D01*
X12460213Y6010533D01*
X12461043Y6010367D01*
X12461929Y6010312D01*
X12462317D01*
X12462704Y6010367D01*
X12463203Y6010422D01*
X12463812Y6010533D01*
X12464421Y6010699D01*
X12465085Y6010921D01*
X12465694Y6011253D01*
X12465750Y6011308D01*
X12465971Y6011419D01*
X12466303Y6011641D01*
X12466636Y6011973D01*
X12467079Y6012360D01*
X12467522Y6012803D01*
X12467965Y6013302D01*
X12468408Y6013911D01*
X12468463Y6013966D01*
X12468574Y6014243D01*
X12468795Y6014631D01*
X12469017Y6015129D01*
X12469294Y6015793D01*
X12469570Y6016569D01*
X12469847Y6017455D01*
X12470124Y6018451D01*
Y6018507D01*
X12470180Y6018562D01*
Y6018728D01*
X12470235Y6018950D01*
X12470346Y6019503D01*
X12470512Y6020223D01*
X12470623Y6021109D01*
X12470733Y6022050D01*
X12470789Y6023103D01*
X12470844Y6024210D01*
Y6024265D01*
Y6024431D01*
Y6024708D01*
Y6025151D01*
X12470789Y6025041D01*
X12470567Y6024764D01*
X12470235Y6024376D01*
X12469847Y6023822D01*
X12469294Y6023269D01*
X12468629Y6022660D01*
X12467854Y6022050D01*
X12466968Y6021497D01*
X12466857Y6021441D01*
X12466525Y6021275D01*
X12466027Y6021054D01*
X12465418Y6020832D01*
X12464587Y6020555D01*
X12463701Y6020334D01*
X12462704Y6020168D01*
X12461652Y6020112D01*
X12461209D01*
X12460877Y6020168D01*
X12460434Y6020223D01*
X12459991Y6020279D01*
X12459437Y6020389D01*
X12458884Y6020555D01*
X12457610Y6020943D01*
X12456946Y6021220D01*
X12456281Y6021552D01*
X12455561Y6021940D01*
X12454897Y6022438D01*
X12454232Y6022936D01*
X12453623Y6023545D01*
X12453568Y6023601D01*
X12453457Y6023712D01*
X12453346Y6023878D01*
X12453125Y6024155D01*
X12452848Y6024542D01*
X12452571Y6024930D01*
X12452294Y6025428D01*
X12452018Y6025982D01*
X12451685Y6026591D01*
X12451408Y6027255D01*
X12451132Y6028031D01*
X12450855Y6028806D01*
X12450633Y6029692D01*
X12450522Y6030633D01*
X12450412Y6031574D01*
X12450356Y6032626D01*
Y6032682D01*
Y6032903D01*
Y6033180D01*
X12450412Y6033568D01*
X12450467Y6034066D01*
X12450522Y6034675D01*
X12450633Y6035284D01*
X12450799Y6036004D01*
X12451187Y6037444D01*
X12451464Y6038219D01*
X12451796Y6039050D01*
X12452184Y6039825D01*
X12452682Y6040545D01*
X12453180Y6041320D01*
X12453789Y6041984D01*
X12453845Y6042040D01*
X12453956Y6042150D01*
X12454122Y6042317D01*
X12454399Y6042538D01*
X12454731Y6042815D01*
X12455174Y6043147D01*
X12455617Y6043424D01*
X12456170Y6043812D01*
X12456724Y6044144D01*
X12457389Y6044421D01*
X12458884Y6045030D01*
X12459659Y6045251D01*
X12460545Y6045417D01*
X12461431Y6045528D01*
X12462372Y6045584D01*
X12462760D01*
X12463037Y6045528D01*
D02*
G37*
G36*
X12431917Y6045362D02*
X12432416D01*
X12433579Y6045307D01*
X12434797Y6045141D01*
X12436126Y6044974D01*
X12437344Y6044698D01*
X12437953Y6044531D01*
X12438451Y6044365D01*
X12438507D01*
X12438562Y6044310D01*
X12438894Y6044144D01*
X12439393Y6043922D01*
X12440002Y6043535D01*
X12440666Y6043036D01*
X12441386Y6042372D01*
X12442051Y6041597D01*
X12442715Y6040711D01*
Y6040655D01*
X12442770Y6040600D01*
X12442992Y6040268D01*
X12443213Y6039714D01*
X12443546Y6038994D01*
X12443822Y6038164D01*
X12444099Y6037167D01*
X12444265Y6036115D01*
X12444321Y6034952D01*
Y6034897D01*
Y6034786D01*
Y6034565D01*
X12444265Y6034288D01*
Y6033900D01*
X12444210Y6033512D01*
X12443989Y6032571D01*
X12443656Y6031464D01*
X12443213Y6030301D01*
X12442549Y6029138D01*
X12442106Y6028584D01*
X12441663Y6028031D01*
X12441608Y6027975D01*
X12441552Y6027920D01*
X12441386Y6027754D01*
X12441165Y6027588D01*
X12440888Y6027366D01*
X12440556Y6027145D01*
X12440113Y6026868D01*
X12439670Y6026536D01*
X12439116Y6026259D01*
X12438507Y6025982D01*
X12437842Y6025650D01*
X12437122Y6025373D01*
X12436292Y6025151D01*
X12435461Y6024874D01*
X12434520Y6024708D01*
X12433523Y6024542D01*
X12433634Y6024487D01*
X12433855Y6024376D01*
X12434188Y6024155D01*
X12434631Y6023933D01*
X12435627Y6023324D01*
X12436126Y6022936D01*
X12436569Y6022604D01*
X12436679Y6022493D01*
X12436956Y6022217D01*
X12437399Y6021774D01*
X12437953Y6021220D01*
X12438562Y6020445D01*
X12439282Y6019614D01*
X12440002Y6018617D01*
X12440777Y6017510D01*
X12447366Y6007100D01*
X12441054D01*
X12436015Y6015074D01*
Y6015129D01*
X12435904Y6015240D01*
X12435794Y6015406D01*
X12435627Y6015627D01*
X12435240Y6016236D01*
X12434741Y6017012D01*
X12434132Y6017842D01*
X12433523Y6018728D01*
X12432914Y6019559D01*
X12432360Y6020334D01*
X12432305Y6020389D01*
X12432139Y6020611D01*
X12431862Y6020943D01*
X12431475Y6021331D01*
X12430644Y6022161D01*
X12430201Y6022549D01*
X12429758Y6022881D01*
X12429703Y6022936D01*
X12429592Y6022992D01*
X12429370Y6023103D01*
X12429038Y6023269D01*
X12428706Y6023435D01*
X12428318Y6023601D01*
X12427432Y6023878D01*
X12427377D01*
X12427266Y6023933D01*
X12427045D01*
X12426768Y6023988D01*
X12426380Y6024044D01*
X12425937D01*
X12425328Y6024099D01*
X12418794D01*
Y6007100D01*
X12413700D01*
Y6045417D01*
X12431475D01*
X12431917Y6045362D01*
D02*
G37*
G36*
X10746435Y7603030D02*
X10746878Y7602975D01*
X10747376Y7602864D01*
X10747930Y7602753D01*
X10748539Y7602642D01*
X10749868Y7602199D01*
X10750588Y7601867D01*
X10751252Y7601535D01*
X10751972Y7601092D01*
X10752692Y7600594D01*
X10753412Y7600040D01*
X10754076Y7599375D01*
X10754131Y7599320D01*
X10754242Y7599209D01*
X10754408Y7598988D01*
X10754630Y7598711D01*
X10754907Y7598379D01*
X10755183Y7597936D01*
X10755516Y7597437D01*
X10755793Y7596828D01*
X10756125Y7596219D01*
X10756457Y7595499D01*
X10756734Y7594780D01*
X10757011Y7593949D01*
X10757232Y7593063D01*
X10757398Y7592122D01*
X10757509Y7591180D01*
X10757564Y7590128D01*
Y7589630D01*
X10757509Y7589298D01*
X10757454Y7588855D01*
X10757398Y7588356D01*
X10757288Y7587803D01*
X10757177Y7587194D01*
X10756845Y7585865D01*
X10756291Y7584480D01*
X10755959Y7583761D01*
X10755571Y7583096D01*
X10755073Y7582432D01*
X10754574Y7581767D01*
X10754519Y7581712D01*
X10754408Y7581601D01*
X10754242Y7581435D01*
X10754021Y7581269D01*
X10753744Y7580992D01*
X10753356Y7580715D01*
X10752969Y7580383D01*
X10752470Y7580051D01*
X10751917Y7579718D01*
X10751363Y7579386D01*
X10750034Y7578777D01*
X10748483Y7578279D01*
X10747653Y7578113D01*
X10746767Y7578002D01*
X10746158Y7582708D01*
X10746213D01*
X10746324Y7582764D01*
X10746545Y7582819D01*
X10746822Y7582875D01*
X10747155Y7582930D01*
X10747542Y7583041D01*
X10748373Y7583318D01*
X10749369Y7583705D01*
X10750311Y7584204D01*
X10751197Y7584757D01*
X10751972Y7585422D01*
X10752027Y7585532D01*
X10752249Y7585754D01*
X10752526Y7586197D01*
X10752802Y7586751D01*
X10753135Y7587415D01*
X10753412Y7588246D01*
X10753633Y7589187D01*
X10753688Y7590184D01*
Y7590516D01*
X10753633Y7590737D01*
X10753578Y7591347D01*
X10753412Y7592122D01*
X10753135Y7593008D01*
X10752747Y7593949D01*
X10752193Y7594890D01*
X10751418Y7595776D01*
X10751307Y7595887D01*
X10750975Y7596164D01*
X10750477Y7596496D01*
X10749812Y7596939D01*
X10748982Y7597382D01*
X10748040Y7597714D01*
X10746933Y7597991D01*
X10745715Y7598102D01*
X10745659D01*
X10745549D01*
X10745383D01*
X10745161Y7598047D01*
X10744552Y7597991D01*
X10743832Y7597825D01*
X10742946Y7597604D01*
X10742060Y7597216D01*
X10741174Y7596662D01*
X10740344Y7595942D01*
X10740233Y7595832D01*
X10740012Y7595555D01*
X10739679Y7595112D01*
X10739292Y7594503D01*
X10738904Y7593728D01*
X10738572Y7592786D01*
X10738350Y7591734D01*
X10738240Y7590571D01*
Y7590073D01*
X10738295Y7589685D01*
X10738350Y7589187D01*
X10738461Y7588633D01*
X10738572Y7587969D01*
X10738738Y7587249D01*
X10734585Y7587803D01*
Y7588080D01*
X10734640Y7588301D01*
Y7589021D01*
X10734530Y7589630D01*
X10734419Y7590350D01*
X10734253Y7591180D01*
X10733976Y7592122D01*
X10733588Y7593008D01*
X10733090Y7593949D01*
Y7594004D01*
X10733035Y7594060D01*
X10732813Y7594337D01*
X10732426Y7594724D01*
X10731927Y7595167D01*
X10731207Y7595610D01*
X10730377Y7595998D01*
X10729435Y7596275D01*
X10728882Y7596385D01*
X10728273D01*
X10728217D01*
X10728162D01*
X10727830D01*
X10727387Y7596275D01*
X10726778Y7596164D01*
X10726113Y7595942D01*
X10725393Y7595666D01*
X10724673Y7595223D01*
X10724009Y7594613D01*
X10723954Y7594558D01*
X10723732Y7594281D01*
X10723455Y7593894D01*
X10723123Y7593395D01*
X10722846Y7592731D01*
X10722569Y7591956D01*
X10722348Y7591070D01*
X10722293Y7590073D01*
Y7589630D01*
X10722403Y7589132D01*
X10722514Y7588467D01*
X10722735Y7587747D01*
X10723012Y7587027D01*
X10723455Y7586252D01*
X10724009Y7585532D01*
X10724064Y7585477D01*
X10724341Y7585256D01*
X10724729Y7584923D01*
X10725283Y7584536D01*
X10726002Y7584148D01*
X10726888Y7583761D01*
X10727940Y7583428D01*
X10729159Y7583207D01*
X10728328Y7578500D01*
X10728273D01*
X10728107Y7578556D01*
X10727885Y7578611D01*
X10727553Y7578666D01*
X10727165Y7578777D01*
X10726722Y7578943D01*
X10725670Y7579275D01*
X10724452Y7579829D01*
X10723234Y7580494D01*
X10722071Y7581324D01*
X10721019Y7582376D01*
X10720964Y7582432D01*
X10720908Y7582542D01*
X10720797Y7582708D01*
X10720631Y7582930D01*
X10720410Y7583207D01*
X10720188Y7583594D01*
X10719967Y7583982D01*
X10719690Y7584480D01*
X10719247Y7585588D01*
X10718804Y7586861D01*
X10718527Y7588356D01*
X10718416Y7589132D01*
Y7590516D01*
X10718472Y7591125D01*
X10718583Y7591845D01*
X10718749Y7592731D01*
X10719026Y7593728D01*
X10719358Y7594724D01*
X10719801Y7595721D01*
Y7595776D01*
X10719856Y7595832D01*
X10720022Y7596164D01*
X10720354Y7596662D01*
X10720742Y7597216D01*
X10721296Y7597880D01*
X10721905Y7598545D01*
X10722625Y7599209D01*
X10723455Y7599763D01*
X10723566Y7599818D01*
X10723843Y7599985D01*
X10724341Y7600206D01*
X10724950Y7600483D01*
X10725670Y7600760D01*
X10726501Y7600981D01*
X10727442Y7601147D01*
X10728383Y7601203D01*
X10728494D01*
X10728826D01*
X10729269Y7601147D01*
X10729878Y7601037D01*
X10730598Y7600870D01*
X10731374Y7600594D01*
X10732149Y7600261D01*
X10732924Y7599818D01*
X10733035Y7599763D01*
X10733256Y7599597D01*
X10733644Y7599265D01*
X10734087Y7598822D01*
X10734585Y7598268D01*
X10735139Y7597604D01*
X10735637Y7596828D01*
X10736136Y7595887D01*
Y7595942D01*
X10736191Y7596053D01*
X10736246Y7596219D01*
X10736302Y7596441D01*
X10736523Y7597050D01*
X10736855Y7597825D01*
X10737298Y7598711D01*
X10737852Y7599597D01*
X10738572Y7600428D01*
X10739402Y7601203D01*
X10739513Y7601258D01*
X10739845Y7601480D01*
X10740399Y7601812D01*
X10741119Y7602144D01*
X10742005Y7602476D01*
X10743057Y7602809D01*
X10744275Y7603030D01*
X10745604Y7603085D01*
X10745659D01*
X10745826D01*
X10746102D01*
X10746435Y7603030D01*
D02*
G37*
G36*
X10756900Y7561169D02*
X10726944D01*
X10726999Y7561113D01*
X10727221Y7560837D01*
X10727553Y7560504D01*
X10727940Y7559951D01*
X10728439Y7559341D01*
X10728993Y7558566D01*
X10729602Y7557680D01*
X10730211Y7556684D01*
Y7556628D01*
X10730266Y7556573D01*
X10730488Y7556241D01*
X10730764Y7555687D01*
X10731097Y7555022D01*
X10731484Y7554247D01*
X10731872Y7553417D01*
X10732259Y7552586D01*
X10732592Y7551756D01*
X10728051D01*
Y7551811D01*
X10727940Y7551922D01*
X10727885Y7552143D01*
X10727719Y7552420D01*
X10727553Y7552752D01*
X10727331Y7553140D01*
X10726778Y7554081D01*
X10726169Y7555189D01*
X10725393Y7556296D01*
X10724507Y7557459D01*
X10723566Y7558622D01*
X10723511Y7558677D01*
X10723455Y7558732D01*
X10723289Y7558899D01*
X10723123Y7559120D01*
X10722569Y7559618D01*
X10721905Y7560283D01*
X10721130Y7560947D01*
X10720244Y7561667D01*
X10719358Y7562276D01*
X10718416Y7562830D01*
Y7565875D01*
X10756900D01*
Y7561169D01*
D02*
G37*
G36*
Y7538854D02*
X10748926Y7533815D01*
X10748871D01*
X10748760Y7533704D01*
X10748594Y7533594D01*
X10748373Y7533427D01*
X10747764Y7533040D01*
X10746988Y7532541D01*
X10746158Y7531932D01*
X10745272Y7531323D01*
X10744441Y7530714D01*
X10743666Y7530160D01*
X10743611Y7530105D01*
X10743389Y7529939D01*
X10743057Y7529662D01*
X10742669Y7529275D01*
X10741839Y7528444D01*
X10741451Y7528001D01*
X10741119Y7527558D01*
X10741064Y7527503D01*
X10741008Y7527392D01*
X10740897Y7527170D01*
X10740731Y7526838D01*
X10740565Y7526506D01*
X10740399Y7526118D01*
X10740122Y7525232D01*
Y7525177D01*
X10740067Y7525066D01*
Y7524845D01*
X10740012Y7524568D01*
X10739956Y7524180D01*
Y7523737D01*
X10739901Y7523128D01*
Y7516594D01*
X10756900D01*
Y7511500D01*
X10718583D01*
Y7529275D01*
X10718638Y7529717D01*
Y7530216D01*
X10718693Y7531379D01*
X10718859Y7532597D01*
X10719026Y7533926D01*
X10719302Y7535144D01*
X10719469Y7535753D01*
X10719635Y7536251D01*
Y7536307D01*
X10719690Y7536362D01*
X10719856Y7536694D01*
X10720078Y7537193D01*
X10720465Y7537802D01*
X10720964Y7538466D01*
X10721628Y7539186D01*
X10722403Y7539851D01*
X10723289Y7540515D01*
X10723345D01*
X10723400Y7540570D01*
X10723732Y7540792D01*
X10724286Y7541013D01*
X10725006Y7541346D01*
X10725836Y7541622D01*
X10726833Y7541899D01*
X10727885Y7542065D01*
X10729048Y7542121D01*
X10729103D01*
X10729214D01*
X10729435D01*
X10729712Y7542065D01*
X10730100D01*
X10730488Y7542010D01*
X10731429Y7541789D01*
X10732536Y7541456D01*
X10733699Y7541013D01*
X10734862Y7540349D01*
X10735416Y7539906D01*
X10735969Y7539463D01*
X10736025Y7539408D01*
X10736080Y7539352D01*
X10736246Y7539186D01*
X10736412Y7538965D01*
X10736634Y7538688D01*
X10736855Y7538356D01*
X10737132Y7537913D01*
X10737464Y7537470D01*
X10737741Y7536916D01*
X10738018Y7536307D01*
X10738350Y7535642D01*
X10738627Y7534922D01*
X10738849Y7534092D01*
X10739126Y7533261D01*
X10739292Y7532320D01*
X10739458Y7531323D01*
X10739513Y7531434D01*
X10739624Y7531655D01*
X10739845Y7531988D01*
X10740067Y7532431D01*
X10740676Y7533427D01*
X10741064Y7533926D01*
X10741396Y7534369D01*
X10741507Y7534479D01*
X10741783Y7534756D01*
X10742226Y7535199D01*
X10742780Y7535753D01*
X10743555Y7536362D01*
X10744386Y7537082D01*
X10745383Y7537802D01*
X10746490Y7538577D01*
X10756900Y7545166D01*
Y7538854D01*
D02*
G37*
G36*
Y8276759D02*
X10726944D01*
X10726999Y8276704D01*
X10727221Y8276427D01*
X10727553Y8276094D01*
X10727940Y8275541D01*
X10728439Y8274932D01*
X10728993Y8274156D01*
X10729602Y8273270D01*
X10730211Y8272274D01*
Y8272218D01*
X10730266Y8272163D01*
X10730488Y8271831D01*
X10730764Y8271277D01*
X10731097Y8270613D01*
X10731484Y8269837D01*
X10731872Y8269007D01*
X10732259Y8268176D01*
X10732592Y8267346D01*
X10728051D01*
Y8267401D01*
X10727940Y8267512D01*
X10727885Y8267733D01*
X10727719Y8268010D01*
X10727553Y8268342D01*
X10727331Y8268730D01*
X10726778Y8269671D01*
X10726169Y8270779D01*
X10725393Y8271886D01*
X10724507Y8273049D01*
X10723566Y8274212D01*
X10723511Y8274267D01*
X10723455Y8274323D01*
X10723289Y8274489D01*
X10723123Y8274710D01*
X10722569Y8275208D01*
X10721905Y8275873D01*
X10721130Y8276537D01*
X10720244Y8277257D01*
X10719358Y8277866D01*
X10718416Y8278420D01*
Y8281466D01*
X10756900D01*
Y8276759D01*
D02*
G37*
G36*
Y8246969D02*
X10726944D01*
X10726999Y8246913D01*
X10727221Y8246637D01*
X10727553Y8246304D01*
X10727940Y8245751D01*
X10728439Y8245141D01*
X10728993Y8244366D01*
X10729602Y8243480D01*
X10730211Y8242484D01*
Y8242428D01*
X10730266Y8242373D01*
X10730488Y8242041D01*
X10730764Y8241487D01*
X10731097Y8240822D01*
X10731484Y8240047D01*
X10731872Y8239217D01*
X10732259Y8238386D01*
X10732592Y8237556D01*
X10728051D01*
Y8237611D01*
X10727940Y8237722D01*
X10727885Y8237943D01*
X10727719Y8238220D01*
X10727553Y8238552D01*
X10727331Y8238940D01*
X10726778Y8239881D01*
X10726169Y8240989D01*
X10725393Y8242096D01*
X10724507Y8243259D01*
X10723566Y8244422D01*
X10723511Y8244477D01*
X10723455Y8244532D01*
X10723289Y8244699D01*
X10723123Y8244920D01*
X10722569Y8245418D01*
X10721905Y8246083D01*
X10721130Y8246747D01*
X10720244Y8247467D01*
X10719358Y8248076D01*
X10718416Y8248630D01*
Y8251675D01*
X10756900D01*
Y8246969D01*
D02*
G37*
G36*
Y8224654D02*
X10748926Y8219615D01*
X10748871D01*
X10748760Y8219504D01*
X10748594Y8219394D01*
X10748373Y8219227D01*
X10747764Y8218840D01*
X10746988Y8218341D01*
X10746158Y8217732D01*
X10745272Y8217123D01*
X10744441Y8216514D01*
X10743666Y8215960D01*
X10743611Y8215905D01*
X10743389Y8215739D01*
X10743057Y8215462D01*
X10742669Y8215075D01*
X10741839Y8214244D01*
X10741451Y8213801D01*
X10741119Y8213358D01*
X10741064Y8213303D01*
X10741008Y8213192D01*
X10740897Y8212970D01*
X10740731Y8212638D01*
X10740565Y8212306D01*
X10740399Y8211918D01*
X10740122Y8211032D01*
Y8210977D01*
X10740067Y8210866D01*
Y8210645D01*
X10740012Y8210368D01*
X10739956Y8209980D01*
Y8209537D01*
X10739901Y8208928D01*
Y8202394D01*
X10756900D01*
Y8197300D01*
X10718583D01*
Y8215075D01*
X10718638Y8215517D01*
Y8216016D01*
X10718693Y8217179D01*
X10718859Y8218397D01*
X10719026Y8219726D01*
X10719302Y8220944D01*
X10719469Y8221553D01*
X10719635Y8222051D01*
Y8222107D01*
X10719690Y8222162D01*
X10719856Y8222494D01*
X10720078Y8222993D01*
X10720465Y8223602D01*
X10720964Y8224266D01*
X10721628Y8224986D01*
X10722403Y8225651D01*
X10723289Y8226315D01*
X10723345D01*
X10723400Y8226370D01*
X10723732Y8226592D01*
X10724286Y8226813D01*
X10725006Y8227146D01*
X10725836Y8227422D01*
X10726833Y8227699D01*
X10727885Y8227865D01*
X10729048Y8227921D01*
X10729103D01*
X10729214D01*
X10729435D01*
X10729712Y8227865D01*
X10730100D01*
X10730488Y8227810D01*
X10731429Y8227589D01*
X10732536Y8227256D01*
X10733699Y8226813D01*
X10734862Y8226149D01*
X10735416Y8225706D01*
X10735969Y8225263D01*
X10736025Y8225208D01*
X10736080Y8225152D01*
X10736246Y8224986D01*
X10736412Y8224765D01*
X10736634Y8224488D01*
X10736855Y8224156D01*
X10737132Y8223713D01*
X10737464Y8223270D01*
X10737741Y8222716D01*
X10738018Y8222107D01*
X10738350Y8221442D01*
X10738627Y8220722D01*
X10738849Y8219892D01*
X10739126Y8219061D01*
X10739292Y8218120D01*
X10739458Y8217123D01*
X10739513Y8217234D01*
X10739624Y8217455D01*
X10739845Y8217788D01*
X10740067Y8218231D01*
X10740676Y8219227D01*
X10741064Y8219726D01*
X10741396Y8220169D01*
X10741507Y8220279D01*
X10741783Y8220556D01*
X10742226Y8220999D01*
X10742780Y8221553D01*
X10743555Y8222162D01*
X10744386Y8222882D01*
X10745383Y8223602D01*
X10746490Y8224377D01*
X10756900Y8230966D01*
Y8224654D01*
D02*
G37*
G36*
X7702493Y7506527D02*
X7702991Y7506471D01*
X7703600Y7506416D01*
X7704209Y7506360D01*
X7704929Y7506194D01*
X7706424Y7505862D01*
X7708085Y7505364D01*
X7708916Y7505031D01*
X7709691Y7504644D01*
X7710466Y7504146D01*
X7711241Y7503647D01*
X7711297Y7503592D01*
X7711407Y7503536D01*
X7711629Y7503370D01*
X7711906Y7503093D01*
X7712183Y7502817D01*
X7712570Y7502429D01*
X7712958Y7501986D01*
X7713401Y7501543D01*
X7713844Y7500989D01*
X7714287Y7500325D01*
X7714785Y7499660D01*
X7715228Y7498941D01*
X7715616Y7498110D01*
X7716059Y7497279D01*
X7716391Y7496393D01*
X7716723Y7495397D01*
X7711740Y7494234D01*
Y7494289D01*
X7711684Y7494400D01*
X7711574Y7494622D01*
X7711463Y7494898D01*
X7711352Y7495231D01*
X7711186Y7495674D01*
X7710743Y7496560D01*
X7710189Y7497556D01*
X7709525Y7498553D01*
X7708694Y7499494D01*
X7707808Y7500325D01*
X7707698Y7500436D01*
X7707365Y7500657D01*
X7706812Y7500934D01*
X7706092Y7501322D01*
X7705150Y7501654D01*
X7704098Y7501986D01*
X7702825Y7502208D01*
X7701441Y7502263D01*
X7700998D01*
X7700721Y7502208D01*
X7700333D01*
X7699890Y7502152D01*
X7698838Y7501986D01*
X7697675Y7501765D01*
X7696457Y7501377D01*
X7695183Y7500823D01*
X7694021Y7500103D01*
X7693965D01*
X7693910Y7499993D01*
X7693522Y7499716D01*
X7693024Y7499273D01*
X7692415Y7498608D01*
X7691695Y7497778D01*
X7691031Y7496836D01*
X7690422Y7495674D01*
X7689868Y7494400D01*
Y7494345D01*
X7689812Y7494234D01*
X7689757Y7494068D01*
X7689702Y7493791D01*
X7689591Y7493459D01*
X7689480Y7493071D01*
X7689314Y7492130D01*
X7689093Y7491022D01*
X7688871Y7489804D01*
X7688760Y7488475D01*
X7688705Y7487036D01*
Y7486980D01*
Y7486814D01*
Y7486537D01*
Y7486205D01*
X7688760Y7485817D01*
Y7485319D01*
X7688816Y7484765D01*
X7688871Y7484156D01*
X7689037Y7482827D01*
X7689314Y7481388D01*
X7689646Y7479948D01*
X7690089Y7478508D01*
Y7478453D01*
X7690145Y7478342D01*
X7690255Y7478176D01*
X7690366Y7477899D01*
X7690698Y7477235D01*
X7691197Y7476460D01*
X7691806Y7475574D01*
X7692581Y7474632D01*
X7693467Y7473802D01*
X7694519Y7473026D01*
X7694574D01*
X7694685Y7472971D01*
X7694851Y7472860D01*
X7695073Y7472750D01*
X7695350Y7472639D01*
X7695682Y7472473D01*
X7696457Y7472141D01*
X7697454Y7471808D01*
X7698561Y7471531D01*
X7699779Y7471310D01*
X7701053Y7471255D01*
X7701441D01*
X7701773Y7471310D01*
X7702160D01*
X7702548Y7471365D01*
X7703545Y7471587D01*
X7704707Y7471864D01*
X7705870Y7472307D01*
X7707088Y7472916D01*
X7707698Y7473248D01*
X7708251Y7473691D01*
X7708307Y7473746D01*
X7708362Y7473802D01*
X7708528Y7473968D01*
X7708750Y7474134D01*
X7708971Y7474411D01*
X7709248Y7474743D01*
X7709580Y7475075D01*
X7709857Y7475518D01*
X7710189Y7476017D01*
X7710577Y7476570D01*
X7710909Y7477124D01*
X7711241Y7477788D01*
X7711518Y7478508D01*
X7711795Y7479283D01*
X7712072Y7480114D01*
X7712293Y7481000D01*
X7717388Y7479726D01*
Y7479671D01*
X7717332Y7479450D01*
X7717222Y7479117D01*
X7717055Y7478674D01*
X7716889Y7478176D01*
X7716668Y7477567D01*
X7716391Y7476902D01*
X7716059Y7476183D01*
X7715284Y7474632D01*
X7714287Y7473082D01*
X7713678Y7472307D01*
X7713069Y7471531D01*
X7712404Y7470867D01*
X7711629Y7470202D01*
X7711574Y7470147D01*
X7711463Y7470036D01*
X7711186Y7469926D01*
X7710909Y7469704D01*
X7710466Y7469427D01*
X7710023Y7469150D01*
X7709414Y7468874D01*
X7708805Y7468597D01*
X7708085Y7468264D01*
X7707310Y7467988D01*
X7706479Y7467711D01*
X7705593Y7467434D01*
X7704652Y7467212D01*
X7703655Y7467102D01*
X7702603Y7466991D01*
X7701496Y7466936D01*
X7700887D01*
X7700444Y7466991D01*
X7699945D01*
X7699336Y7467046D01*
X7698672Y7467157D01*
X7697897Y7467268D01*
X7696291Y7467545D01*
X7694630Y7467988D01*
X7692969Y7468597D01*
X7692193Y7468984D01*
X7691418Y7469427D01*
X7691363Y7469483D01*
X7691252Y7469538D01*
X7691031Y7469704D01*
X7690809Y7469926D01*
X7690477Y7470147D01*
X7690089Y7470479D01*
X7689646Y7470867D01*
X7689203Y7471310D01*
X7688760Y7471808D01*
X7688262Y7472307D01*
X7687265Y7473580D01*
X7686324Y7475075D01*
X7685493Y7476736D01*
Y7476792D01*
X7685383Y7476958D01*
X7685327Y7477235D01*
X7685161Y7477567D01*
X7685050Y7478010D01*
X7684884Y7478564D01*
X7684663Y7479173D01*
X7684497Y7479837D01*
X7684331Y7480557D01*
X7684109Y7481388D01*
X7683832Y7483104D01*
X7683611Y7485042D01*
X7683500Y7487036D01*
Y7487091D01*
Y7487312D01*
Y7487645D01*
X7683555Y7488032D01*
Y7488586D01*
X7683611Y7489140D01*
X7683666Y7489860D01*
X7683777Y7490579D01*
X7684054Y7492185D01*
X7684441Y7493957D01*
X7684995Y7495729D01*
X7685770Y7497446D01*
X7685826Y7497501D01*
X7685881Y7497667D01*
X7685992Y7497888D01*
X7686213Y7498165D01*
X7686435Y7498553D01*
X7686712Y7498996D01*
X7687431Y7499993D01*
X7688373Y7501100D01*
X7689480Y7502208D01*
X7690754Y7503315D01*
X7692249Y7504256D01*
X7692304Y7504312D01*
X7692470Y7504367D01*
X7692692Y7504478D01*
X7692969Y7504644D01*
X7693412Y7504810D01*
X7693855Y7504976D01*
X7694408Y7505198D01*
X7695017Y7505419D01*
X7695682Y7505641D01*
X7696402Y7505862D01*
X7697952Y7506194D01*
X7699724Y7506471D01*
X7701551Y7506582D01*
X7702105D01*
X7702493Y7506527D01*
D02*
G37*
G36*
X7741474Y7481111D02*
X7746679D01*
Y7476792D01*
X7741474D01*
Y7467600D01*
X7736768D01*
Y7476792D01*
X7720101D01*
Y7481111D01*
X7737654Y7505917D01*
X7741474D01*
Y7481111D01*
D02*
G37*
G36*
X12464698Y7264728D02*
X12465085D01*
X12465528Y7264673D01*
X12466580Y7264451D01*
X12467743Y7264174D01*
X12468961Y7263731D01*
X12470180Y7263067D01*
X12470789Y7262679D01*
X12471342Y7262236D01*
X12471398Y7262181D01*
X12471453Y7262126D01*
X12471619Y7261960D01*
X12471785Y7261793D01*
X12472062Y7261517D01*
X12472284Y7261184D01*
X12472893Y7260409D01*
X12473502Y7259412D01*
X12474056Y7258194D01*
X12474554Y7256810D01*
X12474886Y7255260D01*
X12470180Y7254872D01*
Y7254927D01*
X12470124Y7254983D01*
X12470069Y7255315D01*
X12469903Y7255813D01*
X12469681Y7256422D01*
X12469460Y7257087D01*
X12469127Y7257751D01*
X12468740Y7258360D01*
X12468352Y7258859D01*
X12468242Y7258969D01*
X12468020Y7259191D01*
X12467632Y7259523D01*
X12467079Y7259911D01*
X12466359Y7260243D01*
X12465584Y7260575D01*
X12464642Y7260797D01*
X12463646Y7260908D01*
X12463258D01*
X12462815Y7260852D01*
X12462317Y7260741D01*
X12461652Y7260575D01*
X12460988Y7260354D01*
X12460323Y7260077D01*
X12459659Y7259634D01*
X12459548Y7259579D01*
X12459271Y7259357D01*
X12458884Y7258969D01*
X12458385Y7258416D01*
X12457832Y7257751D01*
X12457222Y7256976D01*
X12456669Y7255979D01*
X12456115Y7254872D01*
Y7254817D01*
X12456060Y7254706D01*
X12456004Y7254540D01*
X12455894Y7254318D01*
X12455838Y7253986D01*
X12455727Y7253598D01*
X12455617Y7253155D01*
X12455506Y7252602D01*
X12455340Y7251993D01*
X12455229Y7251328D01*
X12455118Y7250608D01*
X12455063Y7249833D01*
X12454952Y7248947D01*
X12454897Y7248061D01*
X12454841Y7247064D01*
Y7246068D01*
X12454897Y7246123D01*
X12455118Y7246455D01*
X12455506Y7246898D01*
X12456004Y7247452D01*
X12456558Y7248117D01*
X12457278Y7248726D01*
X12458053Y7249335D01*
X12458939Y7249888D01*
X12458994D01*
X12459050Y7249944D01*
X12459382Y7250110D01*
X12459880Y7250276D01*
X12460545Y7250553D01*
X12461320Y7250774D01*
X12462206Y7250941D01*
X12463147Y7251107D01*
X12464144Y7251162D01*
X12464587D01*
X12464919Y7251107D01*
X12465362Y7251051D01*
X12465805Y7250996D01*
X12466359Y7250885D01*
X12466913Y7250719D01*
X12468186Y7250331D01*
X12468851Y7250055D01*
X12469515Y7249667D01*
X12470180Y7249279D01*
X12470899Y7248836D01*
X12471564Y7248283D01*
X12472173Y7247674D01*
X12472228Y7247618D01*
X12472339Y7247507D01*
X12472505Y7247341D01*
X12472671Y7247064D01*
X12472948Y7246677D01*
X12473225Y7246289D01*
X12473502Y7245791D01*
X12473834Y7245237D01*
X12474166Y7244628D01*
X12474443Y7243964D01*
X12474720Y7243188D01*
X12474997Y7242413D01*
X12475163Y7241583D01*
X12475329Y7240641D01*
X12475440Y7239700D01*
X12475495Y7238703D01*
Y7238648D01*
Y7238537D01*
Y7238371D01*
Y7238094D01*
X12475440Y7237762D01*
Y7237430D01*
X12475274Y7236544D01*
X12475108Y7235492D01*
X12474831Y7234384D01*
X12474443Y7233166D01*
X12473889Y7232003D01*
Y7231948D01*
X12473834Y7231893D01*
X12473723Y7231726D01*
X12473613Y7231505D01*
X12473280Y7230951D01*
X12472782Y7230231D01*
X12472173Y7229456D01*
X12471453Y7228681D01*
X12470567Y7227906D01*
X12469626Y7227241D01*
X12469570D01*
X12469515Y7227186D01*
X12469349Y7227075D01*
X12469127Y7227020D01*
X12468574Y7226743D01*
X12467854Y7226466D01*
X12466913Y7226134D01*
X12465861Y7225912D01*
X12464698Y7225691D01*
X12463424Y7225636D01*
X12463147D01*
X12462870Y7225691D01*
X12462427D01*
X12461929Y7225746D01*
X12461375Y7225857D01*
X12460711Y7226023D01*
X12460046Y7226189D01*
X12459271Y7226411D01*
X12458496Y7226688D01*
X12457721Y7227020D01*
X12456890Y7227463D01*
X12456115Y7227961D01*
X12455340Y7228515D01*
X12454565Y7229179D01*
X12453845Y7229955D01*
X12453789Y7230010D01*
X12453679Y7230176D01*
X12453513Y7230398D01*
X12453291Y7230785D01*
X12452959Y7231283D01*
X12452682Y7231837D01*
X12452350Y7232557D01*
X12452018Y7233332D01*
X12451630Y7234274D01*
X12451298Y7235326D01*
X12451021Y7236488D01*
X12450744Y7237762D01*
X12450467Y7239202D01*
X12450301Y7240752D01*
X12450190Y7242413D01*
X12450135Y7244185D01*
Y7244241D01*
Y7244296D01*
Y7244462D01*
Y7244684D01*
X12450190Y7245237D01*
Y7246012D01*
X12450246Y7246898D01*
X12450356Y7247950D01*
X12450467Y7249113D01*
X12450633Y7250387D01*
X12450855Y7251660D01*
X12451132Y7253045D01*
X12451464Y7254374D01*
X12451851Y7255703D01*
X12452350Y7256976D01*
X12452903Y7258194D01*
X12453513Y7259357D01*
X12454232Y7260354D01*
X12454288Y7260409D01*
X12454399Y7260520D01*
X12454620Y7260741D01*
X12454897Y7261074D01*
X12455229Y7261406D01*
X12455672Y7261738D01*
X12456226Y7262181D01*
X12456780Y7262569D01*
X12457444Y7262956D01*
X12458164Y7263399D01*
X12458994Y7263731D01*
X12459825Y7264119D01*
X12460766Y7264396D01*
X12461763Y7264617D01*
X12462815Y7264728D01*
X12463922Y7264784D01*
X12464365D01*
X12464698Y7264728D01*
D02*
G37*
G36*
X12431917Y7264562D02*
X12432416D01*
X12433579Y7264507D01*
X12434797Y7264341D01*
X12436126Y7264174D01*
X12437344Y7263898D01*
X12437953Y7263731D01*
X12438451Y7263565D01*
X12438507D01*
X12438562Y7263510D01*
X12438894Y7263344D01*
X12439393Y7263122D01*
X12440002Y7262735D01*
X12440666Y7262236D01*
X12441386Y7261572D01*
X12442051Y7260797D01*
X12442715Y7259911D01*
Y7259855D01*
X12442770Y7259800D01*
X12442992Y7259468D01*
X12443213Y7258914D01*
X12443546Y7258194D01*
X12443822Y7257364D01*
X12444099Y7256367D01*
X12444265Y7255315D01*
X12444321Y7254152D01*
Y7254097D01*
Y7253986D01*
Y7253765D01*
X12444265Y7253488D01*
Y7253100D01*
X12444210Y7252712D01*
X12443989Y7251771D01*
X12443656Y7250664D01*
X12443213Y7249501D01*
X12442549Y7248338D01*
X12442106Y7247784D01*
X12441663Y7247231D01*
X12441608Y7247175D01*
X12441552Y7247120D01*
X12441386Y7246954D01*
X12441165Y7246788D01*
X12440888Y7246566D01*
X12440556Y7246345D01*
X12440113Y7246068D01*
X12439670Y7245736D01*
X12439116Y7245459D01*
X12438507Y7245182D01*
X12437842Y7244850D01*
X12437122Y7244573D01*
X12436292Y7244351D01*
X12435461Y7244074D01*
X12434520Y7243908D01*
X12433523Y7243742D01*
X12433634Y7243687D01*
X12433855Y7243576D01*
X12434188Y7243355D01*
X12434631Y7243133D01*
X12435627Y7242524D01*
X12436126Y7242136D01*
X12436569Y7241804D01*
X12436679Y7241693D01*
X12436956Y7241417D01*
X12437399Y7240974D01*
X12437953Y7240420D01*
X12438562Y7239645D01*
X12439282Y7238814D01*
X12440002Y7237817D01*
X12440777Y7236710D01*
X12447366Y7226300D01*
X12441054D01*
X12436015Y7234274D01*
Y7234329D01*
X12435904Y7234440D01*
X12435794Y7234606D01*
X12435627Y7234827D01*
X12435240Y7235436D01*
X12434741Y7236212D01*
X12434132Y7237042D01*
X12433523Y7237928D01*
X12432914Y7238759D01*
X12432360Y7239534D01*
X12432305Y7239589D01*
X12432139Y7239811D01*
X12431862Y7240143D01*
X12431475Y7240531D01*
X12430644Y7241361D01*
X12430201Y7241749D01*
X12429758Y7242081D01*
X12429703Y7242136D01*
X12429592Y7242192D01*
X12429370Y7242303D01*
X12429038Y7242469D01*
X12428706Y7242635D01*
X12428318Y7242801D01*
X12427432Y7243078D01*
X12427377D01*
X12427266Y7243133D01*
X12427045D01*
X12426768Y7243188D01*
X12426380Y7243244D01*
X12425937D01*
X12425328Y7243299D01*
X12418794D01*
Y7226300D01*
X12413700D01*
Y7264617D01*
X12431475D01*
X12431917Y7264562D01*
D02*
G37*
G36*
X12444617Y6731162D02*
X12445116D01*
X12446279Y6731107D01*
X12447497Y6730941D01*
X12448826Y6730774D01*
X12450044Y6730498D01*
X12450653Y6730331D01*
X12451151Y6730165D01*
X12451207D01*
X12451262Y6730110D01*
X12451594Y6729944D01*
X12452093Y6729722D01*
X12452702Y6729335D01*
X12453366Y6728836D01*
X12454086Y6728172D01*
X12454751Y6727397D01*
X12455415Y6726511D01*
Y6726455D01*
X12455470Y6726400D01*
X12455692Y6726068D01*
X12455913Y6725514D01*
X12456246Y6724794D01*
X12456522Y6723964D01*
X12456799Y6722967D01*
X12456965Y6721915D01*
X12457021Y6720752D01*
Y6720697D01*
Y6720586D01*
Y6720365D01*
X12456965Y6720088D01*
Y6719700D01*
X12456910Y6719312D01*
X12456689Y6718371D01*
X12456356Y6717264D01*
X12455913Y6716101D01*
X12455249Y6714938D01*
X12454806Y6714384D01*
X12454363Y6713831D01*
X12454308Y6713775D01*
X12454252Y6713720D01*
X12454086Y6713554D01*
X12453865Y6713388D01*
X12453588Y6713166D01*
X12453256Y6712945D01*
X12452813Y6712668D01*
X12452370Y6712336D01*
X12451816Y6712059D01*
X12451207Y6711782D01*
X12450542Y6711450D01*
X12449822Y6711173D01*
X12448992Y6710951D01*
X12448161Y6710674D01*
X12447220Y6710508D01*
X12446223Y6710342D01*
X12446334Y6710287D01*
X12446555Y6710176D01*
X12446888Y6709955D01*
X12447331Y6709733D01*
X12448327Y6709124D01*
X12448826Y6708736D01*
X12449269Y6708404D01*
X12449379Y6708293D01*
X12449656Y6708017D01*
X12450099Y6707574D01*
X12450653Y6707020D01*
X12451262Y6706245D01*
X12451982Y6705414D01*
X12452702Y6704417D01*
X12453477Y6703310D01*
X12460066Y6692900D01*
X12453754D01*
X12448715Y6700874D01*
Y6700929D01*
X12448604Y6701040D01*
X12448494Y6701206D01*
X12448327Y6701427D01*
X12447940Y6702036D01*
X12447441Y6702812D01*
X12446832Y6703642D01*
X12446223Y6704528D01*
X12445614Y6705359D01*
X12445060Y6706134D01*
X12445005Y6706189D01*
X12444839Y6706411D01*
X12444562Y6706743D01*
X12444175Y6707131D01*
X12443344Y6707961D01*
X12442901Y6708349D01*
X12442458Y6708681D01*
X12442403Y6708736D01*
X12442292Y6708792D01*
X12442070Y6708903D01*
X12441738Y6709069D01*
X12441406Y6709235D01*
X12441018Y6709401D01*
X12440132Y6709678D01*
X12440077D01*
X12439966Y6709733D01*
X12439745D01*
X12439468Y6709788D01*
X12439080Y6709844D01*
X12438637D01*
X12438028Y6709899D01*
X12431494D01*
Y6692900D01*
X12426400D01*
Y6731217D01*
X12444175D01*
X12444617Y6731162D01*
D02*
G37*
G36*
X12476346Y6731328D02*
X12476789Y6731273D01*
X12477287Y6731217D01*
X12477841Y6731162D01*
X12478394Y6730996D01*
X12479723Y6730664D01*
X12481052Y6730165D01*
X12481717Y6729833D01*
X12482381Y6729446D01*
X12482990Y6728947D01*
X12483599Y6728449D01*
X12483655Y6728393D01*
X12483710Y6728338D01*
X12483876Y6728172D01*
X12484098Y6727950D01*
X12484319Y6727618D01*
X12484596Y6727286D01*
X12485150Y6726455D01*
X12485704Y6725403D01*
X12486202Y6724185D01*
X12486589Y6722801D01*
X12486645Y6722081D01*
X12486700Y6721306D01*
Y6721250D01*
Y6721195D01*
Y6720863D01*
X12486645Y6720365D01*
X12486534Y6719755D01*
X12486368Y6718980D01*
X12486091Y6718205D01*
X12485759Y6717430D01*
X12485261Y6716655D01*
X12485205Y6716544D01*
X12484984Y6716322D01*
X12484651Y6715990D01*
X12484208Y6715547D01*
X12483599Y6715049D01*
X12482880Y6714550D01*
X12482049Y6714052D01*
X12481052Y6713609D01*
X12481108D01*
X12481218Y6713554D01*
X12481384Y6713498D01*
X12481606Y6713388D01*
X12482270Y6713111D01*
X12483046Y6712723D01*
X12483876Y6712169D01*
X12484762Y6711560D01*
X12485593Y6710785D01*
X12486368Y6709899D01*
Y6709844D01*
X12486423Y6709788D01*
X12486645Y6709456D01*
X12486977Y6708903D01*
X12487309Y6708183D01*
X12487642Y6707297D01*
X12487974Y6706245D01*
X12488195Y6705082D01*
X12488251Y6703808D01*
Y6703753D01*
Y6703587D01*
Y6703310D01*
X12488195Y6702978D01*
X12488140Y6702590D01*
X12488084Y6702092D01*
X12487974Y6701538D01*
X12487808Y6700929D01*
X12487420Y6699655D01*
X12487143Y6698936D01*
X12486756Y6698271D01*
X12486368Y6697551D01*
X12485925Y6696887D01*
X12485371Y6696222D01*
X12484762Y6695558D01*
X12484707Y6695502D01*
X12484596Y6695392D01*
X12484430Y6695226D01*
X12484153Y6695060D01*
X12483765Y6694783D01*
X12483378Y6694506D01*
X12482880Y6694229D01*
X12482326Y6693897D01*
X12481717Y6693564D01*
X12480997Y6693288D01*
X12480222Y6693011D01*
X12479446Y6692734D01*
X12478561Y6692568D01*
X12477619Y6692402D01*
X12476678Y6692291D01*
X12475626Y6692236D01*
X12475072D01*
X12474684Y6692291D01*
X12474186Y6692346D01*
X12473632Y6692402D01*
X12473023Y6692512D01*
X12472359Y6692679D01*
X12470864Y6693066D01*
X12470089Y6693343D01*
X12469369Y6693620D01*
X12468594Y6694007D01*
X12467818Y6694450D01*
X12467099Y6694949D01*
X12466434Y6695558D01*
X12466379Y6695613D01*
X12466268Y6695724D01*
X12466102Y6695890D01*
X12465880Y6696167D01*
X12465659Y6696499D01*
X12465327Y6696887D01*
X12465050Y6697330D01*
X12464718Y6697883D01*
X12464385Y6698437D01*
X12464108Y6699102D01*
X12463555Y6700486D01*
X12463333Y6701317D01*
X12463167Y6702147D01*
X12463056Y6703033D01*
X12463001Y6703919D01*
Y6703974D01*
Y6704085D01*
Y6704307D01*
X12463056Y6704528D01*
Y6704860D01*
X12463112Y6705248D01*
X12463222Y6706134D01*
X12463444Y6707131D01*
X12463776Y6708127D01*
X12464275Y6709179D01*
X12464884Y6710176D01*
Y6710231D01*
X12464994Y6710287D01*
X12465216Y6710564D01*
X12465659Y6711007D01*
X12466268Y6711560D01*
X12467043Y6712114D01*
X12467984Y6712723D01*
X12469037Y6713222D01*
X12470310Y6713609D01*
X12470255D01*
X12470199Y6713665D01*
X12470033Y6713720D01*
X12469812Y6713831D01*
X12469313Y6714052D01*
X12468649Y6714384D01*
X12467929Y6714827D01*
X12467209Y6715381D01*
X12466545Y6715990D01*
X12465936Y6716655D01*
X12465880Y6716765D01*
X12465714Y6716987D01*
X12465493Y6717430D01*
X12465271Y6717984D01*
X12464994Y6718703D01*
X12464773Y6719534D01*
X12464607Y6720475D01*
X12464551Y6721472D01*
Y6721527D01*
Y6721638D01*
Y6721860D01*
X12464607Y6722192D01*
X12464662Y6722524D01*
X12464718Y6722967D01*
X12464939Y6723908D01*
X12465271Y6725016D01*
X12465825Y6726179D01*
X12466157Y6726788D01*
X12466545Y6727397D01*
X12467043Y6727950D01*
X12467541Y6728504D01*
X12467597Y6728560D01*
X12467708Y6728615D01*
X12467874Y6728781D01*
X12468095Y6728947D01*
X12468372Y6729169D01*
X12468760Y6729390D01*
X12469203Y6729667D01*
X12469646Y6729944D01*
X12470199Y6730221D01*
X12470808Y6730498D01*
X12471473Y6730719D01*
X12472193Y6730941D01*
X12473743Y6731273D01*
X12474629Y6731328D01*
X12475515Y6731384D01*
X12476013D01*
X12476346Y6731328D01*
D02*
G37*
G36*
X10718800Y7812782D02*
X10718745D01*
X10718523D01*
X10718191D01*
X10717748Y7812837D01*
X10717250Y7812893D01*
X10716696Y7813003D01*
X10716142Y7813114D01*
X10715533Y7813336D01*
X10715478D01*
X10715422Y7813391D01*
X10715090Y7813502D01*
X10714592Y7813723D01*
X10713927Y7814055D01*
X10713152Y7814498D01*
X10712266Y7815052D01*
X10711380Y7815661D01*
X10710439Y7816436D01*
X10710383D01*
X10710328Y7816547D01*
X10709996Y7816824D01*
X10709498Y7817322D01*
X10708778Y7818042D01*
X10707947Y7818873D01*
X10706950Y7819925D01*
X10705843Y7821198D01*
X10704680Y7822583D01*
X10704625Y7822638D01*
X10704459Y7822860D01*
X10704182Y7823192D01*
X10703850Y7823579D01*
X10703407Y7824078D01*
X10702908Y7824687D01*
X10702355Y7825296D01*
X10701745Y7826016D01*
X10700416Y7827400D01*
X10699088Y7828784D01*
X10698423Y7829449D01*
X10697759Y7830058D01*
X10697150Y7830612D01*
X10696540Y7831055D01*
X10696485D01*
X10696430Y7831165D01*
X10696264Y7831276D01*
X10696042Y7831387D01*
X10695433Y7831775D01*
X10694713Y7832218D01*
X10693827Y7832605D01*
X10692886Y7832993D01*
X10691834Y7833214D01*
X10690837Y7833325D01*
X10690782D01*
X10690726D01*
X10690394Y7833270D01*
X10689840Y7833214D01*
X10689231Y7833048D01*
X10688456Y7832827D01*
X10687681Y7832439D01*
X10686906Y7831941D01*
X10686131Y7831276D01*
X10686020Y7831165D01*
X10685798Y7830889D01*
X10685521Y7830501D01*
X10685134Y7829892D01*
X10684802Y7829117D01*
X10684469Y7828231D01*
X10684248Y7827179D01*
X10684193Y7826016D01*
Y7825684D01*
X10684248Y7825462D01*
X10684303Y7824798D01*
X10684469Y7824022D01*
X10684691Y7823192D01*
X10685078Y7822251D01*
X10685577Y7821365D01*
X10686241Y7820534D01*
X10686352Y7820423D01*
X10686629Y7820202D01*
X10687072Y7819870D01*
X10687736Y7819537D01*
X10688512Y7819150D01*
X10689508Y7818817D01*
X10690616Y7818596D01*
X10691889Y7818485D01*
X10691391Y7813668D01*
X10691335D01*
X10691169Y7813723D01*
X10690893D01*
X10690505Y7813779D01*
X10690062Y7813889D01*
X10689564Y7814000D01*
X10688954Y7814166D01*
X10688345Y7814332D01*
X10687016Y7814775D01*
X10685688Y7815440D01*
X10685023Y7815827D01*
X10684359Y7816326D01*
X10683750Y7816824D01*
X10683196Y7817378D01*
X10683140Y7817433D01*
X10683085Y7817544D01*
X10682919Y7817710D01*
X10682753Y7817987D01*
X10682531Y7818319D01*
X10682310Y7818707D01*
X10682033Y7819150D01*
X10681756Y7819703D01*
X10681479Y7820313D01*
X10681202Y7820977D01*
X10680981Y7821697D01*
X10680759Y7822472D01*
X10680593Y7823303D01*
X10680427Y7824189D01*
X10680372Y7825130D01*
X10680316Y7826127D01*
Y7826680D01*
X10680372Y7827068D01*
X10680427Y7827511D01*
X10680483Y7828065D01*
X10680593Y7828674D01*
X10680704Y7829283D01*
X10681092Y7830722D01*
X10681645Y7832162D01*
X10681978Y7832882D01*
X10682365Y7833602D01*
X10682864Y7834266D01*
X10683417Y7834875D01*
X10683473Y7834931D01*
X10683528Y7835041D01*
X10683750Y7835152D01*
X10683971Y7835374D01*
X10684248Y7835651D01*
X10684635Y7835927D01*
X10685023Y7836204D01*
X10685521Y7836537D01*
X10686573Y7837090D01*
X10687902Y7837644D01*
X10688567Y7837865D01*
X10689342Y7837976D01*
X10690117Y7838087D01*
X10690948Y7838142D01*
X10691059D01*
X10691335D01*
X10691778Y7838087D01*
X10692388Y7838032D01*
X10693052Y7837921D01*
X10693827Y7837699D01*
X10694658Y7837478D01*
X10695488Y7837146D01*
X10695599Y7837090D01*
X10695876Y7836979D01*
X10696319Y7836758D01*
X10696928Y7836426D01*
X10697593Y7835983D01*
X10698423Y7835429D01*
X10699254Y7834765D01*
X10700195Y7833989D01*
X10700306Y7833879D01*
X10700638Y7833602D01*
X10700915Y7833325D01*
X10701192Y7833048D01*
X10701524Y7832716D01*
X10701967Y7832273D01*
X10702410Y7831830D01*
X10702908Y7831276D01*
X10703462Y7830722D01*
X10704071Y7830058D01*
X10704680Y7829338D01*
X10705400Y7828563D01*
X10706120Y7827677D01*
X10706895Y7826791D01*
X10706950Y7826736D01*
X10707061Y7826625D01*
X10707227Y7826403D01*
X10707449Y7826127D01*
X10707781Y7825794D01*
X10708113Y7825407D01*
X10708833Y7824521D01*
X10709664Y7823579D01*
X10710494Y7822694D01*
X10711214Y7821918D01*
X10711491Y7821586D01*
X10711768Y7821309D01*
X10711823Y7821254D01*
X10711989Y7821088D01*
X10712211Y7820866D01*
X10712543Y7820589D01*
X10712931Y7820313D01*
X10713318Y7819980D01*
X10714259Y7819316D01*
Y7838198D01*
X10718800D01*
Y7812782D01*
D02*
G37*
G36*
Y7796669D02*
X10688844D01*
X10688899Y7796613D01*
X10689121Y7796336D01*
X10689453Y7796004D01*
X10689840Y7795450D01*
X10690339Y7794841D01*
X10690893Y7794066D01*
X10691502Y7793180D01*
X10692111Y7792184D01*
Y7792128D01*
X10692166Y7792073D01*
X10692388Y7791741D01*
X10692664Y7791187D01*
X10692997Y7790522D01*
X10693384Y7789747D01*
X10693772Y7788917D01*
X10694159Y7788086D01*
X10694492Y7787255D01*
X10689951D01*
Y7787311D01*
X10689840Y7787422D01*
X10689785Y7787643D01*
X10689619Y7787920D01*
X10689453Y7788252D01*
X10689231Y7788640D01*
X10688678Y7789581D01*
X10688069Y7790689D01*
X10687293Y7791796D01*
X10686407Y7792959D01*
X10685466Y7794122D01*
X10685411Y7794177D01*
X10685355Y7794232D01*
X10685189Y7794398D01*
X10685023Y7794620D01*
X10684469Y7795118D01*
X10683805Y7795783D01*
X10683030Y7796447D01*
X10682144Y7797167D01*
X10681258Y7797776D01*
X10680316Y7798330D01*
Y7801375D01*
X10718800D01*
Y7796669D01*
D02*
G37*
G36*
Y7774354D02*
X10710826Y7769315D01*
X10710771D01*
X10710660Y7769204D01*
X10710494Y7769093D01*
X10710273Y7768927D01*
X10709664Y7768540D01*
X10708888Y7768041D01*
X10708058Y7767432D01*
X10707172Y7766823D01*
X10706341Y7766214D01*
X10705566Y7765660D01*
X10705511Y7765605D01*
X10705289Y7765439D01*
X10704957Y7765162D01*
X10704569Y7764774D01*
X10703739Y7763944D01*
X10703351Y7763501D01*
X10703019Y7763058D01*
X10702964Y7763003D01*
X10702908Y7762892D01*
X10702797Y7762670D01*
X10702631Y7762338D01*
X10702465Y7762006D01*
X10702299Y7761618D01*
X10702022Y7760732D01*
Y7760677D01*
X10701967Y7760566D01*
Y7760345D01*
X10701912Y7760068D01*
X10701856Y7759680D01*
Y7759237D01*
X10701801Y7758628D01*
Y7752094D01*
X10718800D01*
Y7747000D01*
X10680483D01*
Y7764774D01*
X10680538Y7765217D01*
Y7765716D01*
X10680593Y7766879D01*
X10680759Y7768097D01*
X10680926Y7769426D01*
X10681202Y7770644D01*
X10681369Y7771253D01*
X10681535Y7771751D01*
Y7771807D01*
X10681590Y7771862D01*
X10681756Y7772194D01*
X10681978Y7772693D01*
X10682365Y7773302D01*
X10682864Y7773966D01*
X10683528Y7774686D01*
X10684303Y7775350D01*
X10685189Y7776015D01*
X10685245D01*
X10685300Y7776070D01*
X10685632Y7776292D01*
X10686186Y7776513D01*
X10686906Y7776846D01*
X10687736Y7777122D01*
X10688733Y7777399D01*
X10689785Y7777565D01*
X10690948Y7777621D01*
X10691003D01*
X10691114D01*
X10691335D01*
X10691612Y7777565D01*
X10692000D01*
X10692388Y7777510D01*
X10693329Y7777288D01*
X10694436Y7776956D01*
X10695599Y7776513D01*
X10696762Y7775849D01*
X10697316Y7775406D01*
X10697869Y7774963D01*
X10697925Y7774907D01*
X10697980Y7774852D01*
X10698146Y7774686D01*
X10698312Y7774465D01*
X10698534Y7774188D01*
X10698755Y7773855D01*
X10699032Y7773412D01*
X10699364Y7772969D01*
X10699641Y7772416D01*
X10699918Y7771807D01*
X10700250Y7771142D01*
X10700527Y7770422D01*
X10700749Y7769592D01*
X10701026Y7768761D01*
X10701192Y7767820D01*
X10701358Y7766823D01*
X10701413Y7766934D01*
X10701524Y7767155D01*
X10701745Y7767488D01*
X10701967Y7767931D01*
X10702576Y7768927D01*
X10702964Y7769426D01*
X10703296Y7769869D01*
X10703407Y7769979D01*
X10703683Y7770256D01*
X10704126Y7770699D01*
X10704680Y7771253D01*
X10705455Y7771862D01*
X10706286Y7772582D01*
X10707283Y7773302D01*
X10708390Y7774077D01*
X10718800Y7780666D01*
Y7774354D01*
D02*
G37*
G36*
X6971693Y7557327D02*
X6972191Y7557271D01*
X6972800Y7557216D01*
X6973409Y7557160D01*
X6974129Y7556994D01*
X6975624Y7556662D01*
X6977285Y7556164D01*
X6978116Y7555831D01*
X6978891Y7555444D01*
X6979666Y7554946D01*
X6980441Y7554447D01*
X6980497Y7554392D01*
X6980608Y7554336D01*
X6980829Y7554170D01*
X6981106Y7553893D01*
X6981383Y7553617D01*
X6981770Y7553229D01*
X6982158Y7552786D01*
X6982601Y7552343D01*
X6983044Y7551789D01*
X6983487Y7551125D01*
X6983985Y7550460D01*
X6984428Y7549741D01*
X6984816Y7548910D01*
X6985259Y7548079D01*
X6985591Y7547193D01*
X6985923Y7546197D01*
X6980940Y7545034D01*
Y7545089D01*
X6980884Y7545200D01*
X6980774Y7545422D01*
X6980663Y7545698D01*
X6980552Y7546031D01*
X6980386Y7546474D01*
X6979943Y7547360D01*
X6979389Y7548356D01*
X6978725Y7549353D01*
X6977894Y7550294D01*
X6977008Y7551125D01*
X6976898Y7551236D01*
X6976565Y7551457D01*
X6976012Y7551734D01*
X6975292Y7552122D01*
X6974351Y7552454D01*
X6973298Y7552786D01*
X6972025Y7553007D01*
X6970641Y7553063D01*
X6970198D01*
X6969921Y7553007D01*
X6969533D01*
X6969090Y7552952D01*
X6968038Y7552786D01*
X6966875Y7552565D01*
X6965657Y7552177D01*
X6964384Y7551623D01*
X6963221Y7550903D01*
X6963165D01*
X6963110Y7550793D01*
X6962722Y7550516D01*
X6962224Y7550073D01*
X6961615Y7549408D01*
X6960895Y7548578D01*
X6960231Y7547636D01*
X6959622Y7546474D01*
X6959068Y7545200D01*
Y7545145D01*
X6959012Y7545034D01*
X6958957Y7544868D01*
X6958902Y7544591D01*
X6958791Y7544259D01*
X6958680Y7543871D01*
X6958514Y7542930D01*
X6958293Y7541822D01*
X6958071Y7540604D01*
X6957960Y7539275D01*
X6957905Y7537836D01*
Y7537780D01*
Y7537614D01*
Y7537337D01*
Y7537005D01*
X6957960Y7536617D01*
Y7536119D01*
X6958016Y7535565D01*
X6958071Y7534956D01*
X6958237Y7533627D01*
X6958514Y7532188D01*
X6958846Y7530748D01*
X6959289Y7529308D01*
Y7529253D01*
X6959345Y7529142D01*
X6959455Y7528976D01*
X6959566Y7528699D01*
X6959898Y7528035D01*
X6960397Y7527260D01*
X6961006Y7526374D01*
X6961781Y7525432D01*
X6962667Y7524602D01*
X6963719Y7523826D01*
X6963774D01*
X6963885Y7523771D01*
X6964051Y7523660D01*
X6964273Y7523550D01*
X6964550Y7523439D01*
X6964882Y7523273D01*
X6965657Y7522941D01*
X6966654Y7522608D01*
X6967761Y7522331D01*
X6968979Y7522110D01*
X6970253Y7522055D01*
X6970641D01*
X6970973Y7522110D01*
X6971360D01*
X6971748Y7522165D01*
X6972745Y7522387D01*
X6973908Y7522664D01*
X6975070Y7523107D01*
X6976289Y7523716D01*
X6976898Y7524048D01*
X6977451Y7524491D01*
X6977507Y7524546D01*
X6977562Y7524602D01*
X6977728Y7524768D01*
X6977950Y7524934D01*
X6978171Y7525211D01*
X6978448Y7525543D01*
X6978780Y7525875D01*
X6979057Y7526318D01*
X6979389Y7526817D01*
X6979777Y7527370D01*
X6980109Y7527924D01*
X6980441Y7528588D01*
X6980718Y7529308D01*
X6980995Y7530083D01*
X6981272Y7530914D01*
X6981494Y7531800D01*
X6986588Y7530526D01*
Y7530471D01*
X6986532Y7530250D01*
X6986422Y7529917D01*
X6986256Y7529474D01*
X6986089Y7528976D01*
X6985868Y7528367D01*
X6985591Y7527702D01*
X6985259Y7526983D01*
X6984484Y7525432D01*
X6983487Y7523882D01*
X6982878Y7523107D01*
X6982269Y7522331D01*
X6981604Y7521667D01*
X6980829Y7521002D01*
X6980774Y7520947D01*
X6980663Y7520836D01*
X6980386Y7520726D01*
X6980109Y7520504D01*
X6979666Y7520227D01*
X6979223Y7519950D01*
X6978614Y7519674D01*
X6978005Y7519397D01*
X6977285Y7519064D01*
X6976510Y7518788D01*
X6975679Y7518511D01*
X6974794Y7518234D01*
X6973852Y7518012D01*
X6972855Y7517902D01*
X6971803Y7517791D01*
X6970696Y7517736D01*
X6970087D01*
X6969644Y7517791D01*
X6969146D01*
X6968536Y7517846D01*
X6967872Y7517957D01*
X6967097Y7518068D01*
X6965491Y7518345D01*
X6963830Y7518788D01*
X6962169Y7519397D01*
X6961393Y7519784D01*
X6960618Y7520227D01*
X6960563Y7520283D01*
X6960452Y7520338D01*
X6960231Y7520504D01*
X6960009Y7520726D01*
X6959677Y7520947D01*
X6959289Y7521279D01*
X6958846Y7521667D01*
X6958403Y7522110D01*
X6957960Y7522608D01*
X6957462Y7523107D01*
X6956465Y7524380D01*
X6955524Y7525875D01*
X6954693Y7527536D01*
Y7527592D01*
X6954583Y7527758D01*
X6954527Y7528035D01*
X6954361Y7528367D01*
X6954251Y7528810D01*
X6954084Y7529364D01*
X6953863Y7529973D01*
X6953697Y7530637D01*
X6953531Y7531357D01*
X6953309Y7532188D01*
X6953032Y7533904D01*
X6952811Y7535842D01*
X6952700Y7537836D01*
Y7537891D01*
Y7538112D01*
Y7538445D01*
X6952755Y7538832D01*
Y7539386D01*
X6952811Y7539940D01*
X6952866Y7540660D01*
X6952977Y7541379D01*
X6953254Y7542985D01*
X6953641Y7544757D01*
X6954195Y7546529D01*
X6954970Y7548246D01*
X6955026Y7548301D01*
X6955081Y7548467D01*
X6955192Y7548688D01*
X6955413Y7548965D01*
X6955635Y7549353D01*
X6955912Y7549796D01*
X6956632Y7550793D01*
X6957573Y7551900D01*
X6958680Y7553007D01*
X6959954Y7554115D01*
X6961449Y7555056D01*
X6961504Y7555112D01*
X6961670Y7555167D01*
X6961892Y7555278D01*
X6962169Y7555444D01*
X6962612Y7555610D01*
X6963055Y7555776D01*
X6963608Y7555998D01*
X6964217Y7556219D01*
X6964882Y7556441D01*
X6965602Y7556662D01*
X6967152Y7556994D01*
X6968924Y7557271D01*
X6970751Y7557382D01*
X6971305D01*
X6971693Y7557327D01*
D02*
G37*
G36*
X7004085Y7556828D02*
X7004805Y7556717D01*
X7005691Y7556551D01*
X7006688Y7556274D01*
X7007684Y7555942D01*
X7008681Y7555499D01*
X7008737D01*
X7008792Y7555444D01*
X7009124Y7555278D01*
X7009623Y7554946D01*
X7010176Y7554558D01*
X7010841Y7554004D01*
X7011505Y7553395D01*
X7012170Y7552675D01*
X7012723Y7551845D01*
X7012779Y7551734D01*
X7012945Y7551457D01*
X7013166Y7550959D01*
X7013443Y7550350D01*
X7013720Y7549630D01*
X7013942Y7548799D01*
X7014108Y7547858D01*
X7014163Y7546917D01*
Y7546806D01*
Y7546474D01*
X7014108Y7546031D01*
X7013997Y7545422D01*
X7013831Y7544702D01*
X7013554Y7543926D01*
X7013222Y7543151D01*
X7012779Y7542376D01*
X7012723Y7542265D01*
X7012557Y7542044D01*
X7012225Y7541656D01*
X7011782Y7541213D01*
X7011228Y7540715D01*
X7010564Y7540161D01*
X7009789Y7539663D01*
X7008847Y7539164D01*
X7008903D01*
X7009013Y7539109D01*
X7009180Y7539054D01*
X7009401Y7538998D01*
X7010010Y7538777D01*
X7010785Y7538445D01*
X7011671Y7538002D01*
X7012557Y7537448D01*
X7013388Y7536728D01*
X7014163Y7535898D01*
X7014218Y7535787D01*
X7014440Y7535455D01*
X7014772Y7534901D01*
X7015104Y7534181D01*
X7015437Y7533295D01*
X7015769Y7532243D01*
X7015990Y7531025D01*
X7016046Y7529696D01*
Y7529641D01*
Y7529474D01*
Y7529198D01*
X7015990Y7528865D01*
X7015935Y7528422D01*
X7015824Y7527924D01*
X7015713Y7527370D01*
X7015603Y7526761D01*
X7015160Y7525432D01*
X7014827Y7524712D01*
X7014495Y7524048D01*
X7014052Y7523328D01*
X7013554Y7522608D01*
X7013000Y7521888D01*
X7012336Y7521224D01*
X7012280Y7521169D01*
X7012170Y7521058D01*
X7011948Y7520892D01*
X7011671Y7520670D01*
X7011339Y7520393D01*
X7010896Y7520117D01*
X7010398Y7519784D01*
X7009789Y7519507D01*
X7009180Y7519175D01*
X7008460Y7518843D01*
X7007740Y7518566D01*
X7006909Y7518289D01*
X7006023Y7518068D01*
X7005082Y7517902D01*
X7004141Y7517791D01*
X7003089Y7517736D01*
X7002590D01*
X7002258Y7517791D01*
X7001815Y7517846D01*
X7001317Y7517902D01*
X7000763Y7518012D01*
X7000154Y7518123D01*
X6998825Y7518455D01*
X6997441Y7519009D01*
X6996721Y7519341D01*
X6996056Y7519729D01*
X6995392Y7520227D01*
X6994727Y7520726D01*
X6994672Y7520781D01*
X6994561Y7520892D01*
X6994395Y7521058D01*
X6994229Y7521279D01*
X6993952Y7521556D01*
X6993675Y7521944D01*
X6993343Y7522331D01*
X6993011Y7522830D01*
X6992679Y7523383D01*
X6992346Y7523937D01*
X6991737Y7525266D01*
X6991239Y7526817D01*
X6991073Y7527647D01*
X6990962Y7528533D01*
X6995669Y7529142D01*
Y7529087D01*
X6995724Y7528976D01*
X6995780Y7528755D01*
X6995835Y7528478D01*
X6995890Y7528145D01*
X6996001Y7527758D01*
X6996278Y7526927D01*
X6996665Y7525931D01*
X6997164Y7524989D01*
X6997718Y7524103D01*
X6998382Y7523328D01*
X6998493Y7523273D01*
X6998714Y7523051D01*
X6999157Y7522774D01*
X6999711Y7522498D01*
X7000375Y7522165D01*
X7001206Y7521888D01*
X7002147Y7521667D01*
X7003144Y7521612D01*
X7003476D01*
X7003698Y7521667D01*
X7004307Y7521722D01*
X7005082Y7521888D01*
X7005968Y7522165D01*
X7006909Y7522553D01*
X7007851Y7523107D01*
X7008737Y7523882D01*
X7008847Y7523993D01*
X7009124Y7524325D01*
X7009456Y7524823D01*
X7009899Y7525488D01*
X7010342Y7526318D01*
X7010675Y7527260D01*
X7010951Y7528367D01*
X7011062Y7529585D01*
Y7529641D01*
Y7529751D01*
Y7529917D01*
X7011007Y7530139D01*
X7010951Y7530748D01*
X7010785Y7531468D01*
X7010564Y7532354D01*
X7010176Y7533240D01*
X7009623Y7534126D01*
X7008903Y7534956D01*
X7008792Y7535067D01*
X7008515Y7535288D01*
X7008072Y7535621D01*
X7007463Y7536008D01*
X7006688Y7536396D01*
X7005746Y7536728D01*
X7004694Y7536950D01*
X7003532Y7537060D01*
X7003033D01*
X7002646Y7537005D01*
X7002147Y7536950D01*
X7001594Y7536839D01*
X7000929Y7536728D01*
X7000209Y7536562D01*
X7000763Y7540715D01*
X7001040D01*
X7001261Y7540660D01*
X7001981D01*
X7002590Y7540770D01*
X7003310Y7540881D01*
X7004141Y7541047D01*
X7005082Y7541324D01*
X7005968Y7541712D01*
X7006909Y7542210D01*
X7006965D01*
X7007020Y7542265D01*
X7007297Y7542487D01*
X7007684Y7542874D01*
X7008127Y7543373D01*
X7008570Y7544093D01*
X7008958Y7544923D01*
X7009235Y7545865D01*
X7009346Y7546418D01*
Y7547027D01*
Y7547083D01*
Y7547138D01*
Y7547470D01*
X7009235Y7547913D01*
X7009124Y7548522D01*
X7008903Y7549187D01*
X7008626Y7549907D01*
X7008183Y7550627D01*
X7007574Y7551291D01*
X7007518Y7551346D01*
X7007242Y7551568D01*
X7006854Y7551845D01*
X7006356Y7552177D01*
X7005691Y7552454D01*
X7004916Y7552731D01*
X7004030Y7552952D01*
X7003033Y7553007D01*
X7002590D01*
X7002092Y7552897D01*
X7001427Y7552786D01*
X7000708Y7552565D01*
X6999988Y7552288D01*
X6999213Y7551845D01*
X6998493Y7551291D01*
X6998437Y7551236D01*
X6998216Y7550959D01*
X6997884Y7550571D01*
X6997496Y7550017D01*
X6997108Y7549298D01*
X6996721Y7548412D01*
X6996389Y7547360D01*
X6996167Y7546141D01*
X6991460Y7546972D01*
Y7547027D01*
X6991516Y7547193D01*
X6991571Y7547415D01*
X6991627Y7547747D01*
X6991737Y7548135D01*
X6991903Y7548578D01*
X6992236Y7549630D01*
X6992789Y7550848D01*
X6993454Y7552066D01*
X6994284Y7553229D01*
X6995337Y7554281D01*
X6995392Y7554336D01*
X6995503Y7554392D01*
X6995669Y7554503D01*
X6995890Y7554669D01*
X6996167Y7554890D01*
X6996555Y7555112D01*
X6996942Y7555333D01*
X6997441Y7555610D01*
X6998548Y7556053D01*
X6999822Y7556496D01*
X7001317Y7556773D01*
X7002092Y7556884D01*
X7003476D01*
X7004085Y7556828D01*
D02*
G37*
G36*
X7047893Y10630727D02*
X7048391Y10630671D01*
X7049000Y10630616D01*
X7049609Y10630560D01*
X7050329Y10630394D01*
X7051824Y10630062D01*
X7053485Y10629564D01*
X7054316Y10629231D01*
X7055091Y10628844D01*
X7055866Y10628346D01*
X7056641Y10627847D01*
X7056697Y10627792D01*
X7056808Y10627736D01*
X7057029Y10627570D01*
X7057306Y10627293D01*
X7057583Y10627017D01*
X7057970Y10626629D01*
X7058358Y10626186D01*
X7058801Y10625743D01*
X7059244Y10625189D01*
X7059687Y10624525D01*
X7060185Y10623860D01*
X7060628Y10623141D01*
X7061016Y10622310D01*
X7061459Y10621479D01*
X7061791Y10620593D01*
X7062123Y10619597D01*
X7057140Y10618434D01*
Y10618489D01*
X7057084Y10618600D01*
X7056974Y10618822D01*
X7056863Y10619098D01*
X7056752Y10619431D01*
X7056586Y10619874D01*
X7056143Y10620760D01*
X7055589Y10621756D01*
X7054925Y10622753D01*
X7054094Y10623694D01*
X7053208Y10624525D01*
X7053098Y10624636D01*
X7052765Y10624857D01*
X7052212Y10625134D01*
X7051492Y10625522D01*
X7050551Y10625854D01*
X7049498Y10626186D01*
X7048225Y10626408D01*
X7046841Y10626463D01*
X7046398D01*
X7046121Y10626408D01*
X7045733D01*
X7045290Y10626352D01*
X7044238Y10626186D01*
X7043075Y10625965D01*
X7041857Y10625577D01*
X7040584Y10625023D01*
X7039421Y10624303D01*
X7039365D01*
X7039310Y10624193D01*
X7038922Y10623916D01*
X7038424Y10623473D01*
X7037815Y10622808D01*
X7037095Y10621978D01*
X7036431Y10621036D01*
X7035822Y10619874D01*
X7035268Y10618600D01*
Y10618545D01*
X7035212Y10618434D01*
X7035157Y10618268D01*
X7035102Y10617991D01*
X7034991Y10617659D01*
X7034880Y10617271D01*
X7034714Y10616330D01*
X7034493Y10615222D01*
X7034271Y10614004D01*
X7034160Y10612675D01*
X7034105Y10611236D01*
Y10611180D01*
Y10611014D01*
Y10610737D01*
Y10610405D01*
X7034160Y10610017D01*
Y10609519D01*
X7034216Y10608965D01*
X7034271Y10608356D01*
X7034437Y10607027D01*
X7034714Y10605588D01*
X7035046Y10604148D01*
X7035489Y10602708D01*
Y10602653D01*
X7035545Y10602542D01*
X7035655Y10602376D01*
X7035766Y10602099D01*
X7036098Y10601435D01*
X7036597Y10600660D01*
X7037206Y10599774D01*
X7037981Y10598832D01*
X7038867Y10598002D01*
X7039919Y10597226D01*
X7039974D01*
X7040085Y10597171D01*
X7040251Y10597060D01*
X7040473Y10596950D01*
X7040750Y10596839D01*
X7041082Y10596673D01*
X7041857Y10596341D01*
X7042854Y10596008D01*
X7043961Y10595731D01*
X7045179Y10595510D01*
X7046453Y10595455D01*
X7046841D01*
X7047173Y10595510D01*
X7047560D01*
X7047948Y10595565D01*
X7048945Y10595787D01*
X7050108Y10596064D01*
X7051270Y10596507D01*
X7052489Y10597116D01*
X7053098Y10597448D01*
X7053651Y10597891D01*
X7053707Y10597946D01*
X7053762Y10598002D01*
X7053928Y10598168D01*
X7054150Y10598334D01*
X7054371Y10598611D01*
X7054648Y10598943D01*
X7054980Y10599275D01*
X7055257Y10599718D01*
X7055589Y10600217D01*
X7055977Y10600770D01*
X7056309Y10601324D01*
X7056641Y10601988D01*
X7056918Y10602708D01*
X7057195Y10603483D01*
X7057472Y10604314D01*
X7057694Y10605200D01*
X7062788Y10603926D01*
Y10603871D01*
X7062732Y10603650D01*
X7062622Y10603317D01*
X7062456Y10602874D01*
X7062289Y10602376D01*
X7062068Y10601767D01*
X7061791Y10601102D01*
X7061459Y10600383D01*
X7060684Y10598832D01*
X7059687Y10597282D01*
X7059078Y10596507D01*
X7058469Y10595731D01*
X7057804Y10595067D01*
X7057029Y10594402D01*
X7056974Y10594347D01*
X7056863Y10594236D01*
X7056586Y10594126D01*
X7056309Y10593904D01*
X7055866Y10593627D01*
X7055423Y10593350D01*
X7054814Y10593074D01*
X7054205Y10592797D01*
X7053485Y10592464D01*
X7052710Y10592188D01*
X7051879Y10591911D01*
X7050994Y10591634D01*
X7050052Y10591412D01*
X7049055Y10591302D01*
X7048003Y10591191D01*
X7046896Y10591136D01*
X7046287D01*
X7045844Y10591191D01*
X7045346D01*
X7044736Y10591246D01*
X7044072Y10591357D01*
X7043297Y10591468D01*
X7041691Y10591745D01*
X7040030Y10592188D01*
X7038369Y10592797D01*
X7037593Y10593184D01*
X7036818Y10593627D01*
X7036763Y10593683D01*
X7036652Y10593738D01*
X7036431Y10593904D01*
X7036209Y10594126D01*
X7035877Y10594347D01*
X7035489Y10594679D01*
X7035046Y10595067D01*
X7034603Y10595510D01*
X7034160Y10596008D01*
X7033662Y10596507D01*
X7032665Y10597780D01*
X7031724Y10599275D01*
X7030893Y10600936D01*
Y10600992D01*
X7030783Y10601158D01*
X7030727Y10601435D01*
X7030561Y10601767D01*
X7030451Y10602210D01*
X7030284Y10602764D01*
X7030063Y10603373D01*
X7029897Y10604037D01*
X7029731Y10604757D01*
X7029509Y10605588D01*
X7029232Y10607304D01*
X7029011Y10609242D01*
X7028900Y10611236D01*
Y10611291D01*
Y10611512D01*
Y10611845D01*
X7028955Y10612232D01*
Y10612786D01*
X7029011Y10613340D01*
X7029066Y10614060D01*
X7029177Y10614779D01*
X7029454Y10616385D01*
X7029841Y10618157D01*
X7030395Y10619929D01*
X7031170Y10621646D01*
X7031226Y10621701D01*
X7031281Y10621867D01*
X7031392Y10622088D01*
X7031613Y10622365D01*
X7031835Y10622753D01*
X7032112Y10623196D01*
X7032832Y10624193D01*
X7033773Y10625300D01*
X7034880Y10626408D01*
X7036154Y10627515D01*
X7037649Y10628456D01*
X7037704Y10628512D01*
X7037870Y10628567D01*
X7038092Y10628678D01*
X7038369Y10628844D01*
X7038812Y10629010D01*
X7039255Y10629176D01*
X7039808Y10629398D01*
X7040417Y10629619D01*
X7041082Y10629841D01*
X7041802Y10630062D01*
X7043352Y10630394D01*
X7045124Y10630671D01*
X7046951Y10630782D01*
X7047505D01*
X7047893Y10630727D01*
D02*
G37*
G36*
X7084826Y10591800D02*
X7080119D01*
Y10621756D01*
X7080064Y10621701D01*
X7079787Y10621479D01*
X7079455Y10621147D01*
X7078901Y10620760D01*
X7078292Y10620261D01*
X7077517Y10619707D01*
X7076631Y10619098D01*
X7075634Y10618489D01*
X7075579D01*
X7075523Y10618434D01*
X7075191Y10618212D01*
X7074637Y10617936D01*
X7073973Y10617603D01*
X7073198Y10617216D01*
X7072367Y10616828D01*
X7071537Y10616441D01*
X7070706Y10616108D01*
Y10620649D01*
X7070761D01*
X7070872Y10620760D01*
X7071094Y10620815D01*
X7071370Y10620981D01*
X7071703Y10621147D01*
X7072090Y10621369D01*
X7073032Y10621922D01*
X7074139Y10622531D01*
X7075246Y10623307D01*
X7076409Y10624193D01*
X7077572Y10625134D01*
X7077627Y10625189D01*
X7077683Y10625245D01*
X7077849Y10625411D01*
X7078070Y10625577D01*
X7078569Y10626131D01*
X7079233Y10626795D01*
X7079898Y10627570D01*
X7080618Y10628456D01*
X7081227Y10629342D01*
X7081780Y10630284D01*
X7084826D01*
Y10591800D01*
D02*
G37*
G36*
X9035993Y7722427D02*
X9036491Y7722371D01*
X9037100Y7722316D01*
X9037709Y7722260D01*
X9038429Y7722094D01*
X9039924Y7721762D01*
X9041585Y7721264D01*
X9042416Y7720931D01*
X9043191Y7720544D01*
X9043966Y7720046D01*
X9044741Y7719547D01*
X9044797Y7719492D01*
X9044907Y7719436D01*
X9045129Y7719270D01*
X9045406Y7718993D01*
X9045683Y7718717D01*
X9046070Y7718329D01*
X9046458Y7717886D01*
X9046901Y7717443D01*
X9047344Y7716889D01*
X9047787Y7716225D01*
X9048285Y7715560D01*
X9048728Y7714841D01*
X9049116Y7714010D01*
X9049559Y7713179D01*
X9049891Y7712293D01*
X9050223Y7711297D01*
X9045240Y7710134D01*
Y7710189D01*
X9045184Y7710300D01*
X9045074Y7710522D01*
X9044963Y7710798D01*
X9044852Y7711131D01*
X9044686Y7711574D01*
X9044243Y7712460D01*
X9043689Y7713456D01*
X9043025Y7714453D01*
X9042194Y7715394D01*
X9041308Y7716225D01*
X9041198Y7716336D01*
X9040865Y7716557D01*
X9040312Y7716834D01*
X9039592Y7717222D01*
X9038650Y7717554D01*
X9037598Y7717886D01*
X9036325Y7718108D01*
X9034941Y7718163D01*
X9034498D01*
X9034221Y7718108D01*
X9033833D01*
X9033390Y7718052D01*
X9032338Y7717886D01*
X9031175Y7717665D01*
X9029957Y7717277D01*
X9028683Y7716723D01*
X9027521Y7716003D01*
X9027465D01*
X9027410Y7715893D01*
X9027022Y7715616D01*
X9026524Y7715173D01*
X9025915Y7714508D01*
X9025195Y7713678D01*
X9024531Y7712736D01*
X9023921Y7711574D01*
X9023368Y7710300D01*
Y7710245D01*
X9023312Y7710134D01*
X9023257Y7709968D01*
X9023202Y7709691D01*
X9023091Y7709359D01*
X9022980Y7708971D01*
X9022814Y7708030D01*
X9022593Y7706922D01*
X9022371Y7705704D01*
X9022260Y7704375D01*
X9022205Y7702936D01*
Y7702880D01*
Y7702714D01*
Y7702437D01*
Y7702105D01*
X9022260Y7701717D01*
Y7701219D01*
X9022316Y7700665D01*
X9022371Y7700056D01*
X9022537Y7698727D01*
X9022814Y7697288D01*
X9023146Y7695848D01*
X9023589Y7694408D01*
Y7694353D01*
X9023645Y7694242D01*
X9023755Y7694076D01*
X9023866Y7693799D01*
X9024198Y7693135D01*
X9024697Y7692360D01*
X9025306Y7691474D01*
X9026081Y7690532D01*
X9026967Y7689702D01*
X9028019Y7688926D01*
X9028074D01*
X9028185Y7688871D01*
X9028351Y7688760D01*
X9028573Y7688650D01*
X9028850Y7688539D01*
X9029182Y7688373D01*
X9029957Y7688041D01*
X9030954Y7687708D01*
X9032061Y7687431D01*
X9033279Y7687210D01*
X9034553Y7687155D01*
X9034941D01*
X9035273Y7687210D01*
X9035660D01*
X9036048Y7687265D01*
X9037045Y7687487D01*
X9038207Y7687764D01*
X9039370Y7688207D01*
X9040588Y7688816D01*
X9041198Y7689148D01*
X9041751Y7689591D01*
X9041807Y7689646D01*
X9041862Y7689702D01*
X9042028Y7689868D01*
X9042250Y7690034D01*
X9042471Y7690311D01*
X9042748Y7690643D01*
X9043080Y7690975D01*
X9043357Y7691418D01*
X9043689Y7691917D01*
X9044077Y7692470D01*
X9044409Y7693024D01*
X9044741Y7693688D01*
X9045018Y7694408D01*
X9045295Y7695183D01*
X9045572Y7696014D01*
X9045793Y7696900D01*
X9050888Y7695626D01*
Y7695571D01*
X9050832Y7695350D01*
X9050722Y7695017D01*
X9050555Y7694574D01*
X9050389Y7694076D01*
X9050168Y7693467D01*
X9049891Y7692802D01*
X9049559Y7692083D01*
X9048784Y7690532D01*
X9047787Y7688982D01*
X9047178Y7688207D01*
X9046569Y7687431D01*
X9045904Y7686767D01*
X9045129Y7686102D01*
X9045074Y7686047D01*
X9044963Y7685936D01*
X9044686Y7685826D01*
X9044409Y7685604D01*
X9043966Y7685327D01*
X9043523Y7685050D01*
X9042914Y7684774D01*
X9042305Y7684497D01*
X9041585Y7684164D01*
X9040810Y7683888D01*
X9039979Y7683611D01*
X9039093Y7683334D01*
X9038152Y7683112D01*
X9037155Y7683002D01*
X9036103Y7682891D01*
X9034996Y7682836D01*
X9034387D01*
X9033944Y7682891D01*
X9033445D01*
X9032836Y7682946D01*
X9032172Y7683057D01*
X9031397Y7683168D01*
X9029791Y7683445D01*
X9028130Y7683888D01*
X9026469Y7684497D01*
X9025693Y7684884D01*
X9024918Y7685327D01*
X9024863Y7685383D01*
X9024752Y7685438D01*
X9024531Y7685604D01*
X9024309Y7685826D01*
X9023977Y7686047D01*
X9023589Y7686379D01*
X9023146Y7686767D01*
X9022703Y7687210D01*
X9022260Y7687708D01*
X9021762Y7688207D01*
X9020765Y7689480D01*
X9019824Y7690975D01*
X9018993Y7692636D01*
Y7692692D01*
X9018883Y7692858D01*
X9018827Y7693135D01*
X9018661Y7693467D01*
X9018550Y7693910D01*
X9018384Y7694464D01*
X9018163Y7695073D01*
X9017997Y7695737D01*
X9017831Y7696457D01*
X9017609Y7697288D01*
X9017332Y7699004D01*
X9017111Y7700942D01*
X9017000Y7702936D01*
Y7702991D01*
Y7703212D01*
Y7703545D01*
X9017055Y7703932D01*
Y7704486D01*
X9017111Y7705040D01*
X9017166Y7705760D01*
X9017277Y7706479D01*
X9017554Y7708085D01*
X9017941Y7709857D01*
X9018495Y7711629D01*
X9019270Y7713346D01*
X9019326Y7713401D01*
X9019381Y7713567D01*
X9019492Y7713788D01*
X9019713Y7714065D01*
X9019935Y7714453D01*
X9020212Y7714896D01*
X9020931Y7715893D01*
X9021873Y7717000D01*
X9022980Y7718108D01*
X9024254Y7719215D01*
X9025749Y7720156D01*
X9025804Y7720212D01*
X9025970Y7720267D01*
X9026192Y7720378D01*
X9026469Y7720544D01*
X9026912Y7720710D01*
X9027355Y7720876D01*
X9027908Y7721098D01*
X9028517Y7721319D01*
X9029182Y7721541D01*
X9029902Y7721762D01*
X9031452Y7722094D01*
X9033224Y7722371D01*
X9035051Y7722482D01*
X9035605D01*
X9035993Y7722427D01*
D02*
G37*
G36*
X9078795Y7716834D02*
X9063457D01*
X9061408Y7706479D01*
X9061464Y7706535D01*
X9061574Y7706590D01*
X9061741Y7706701D01*
X9062017Y7706867D01*
X9062350Y7707033D01*
X9062737Y7707255D01*
X9063623Y7707698D01*
X9064731Y7708141D01*
X9065949Y7708528D01*
X9067278Y7708805D01*
X9067942Y7708916D01*
X9069160D01*
X9069493Y7708860D01*
X9069936Y7708805D01*
X9070434Y7708750D01*
X9070988Y7708639D01*
X9071597Y7708473D01*
X9072926Y7708085D01*
X9073646Y7707808D01*
X9074365Y7707421D01*
X9075085Y7707033D01*
X9075805Y7706590D01*
X9076470Y7706036D01*
X9077134Y7705427D01*
X9077189Y7705372D01*
X9077300Y7705261D01*
X9077466Y7705095D01*
X9077688Y7704818D01*
X9077965Y7704431D01*
X9078241Y7704043D01*
X9078574Y7703545D01*
X9078906Y7702991D01*
X9079183Y7702382D01*
X9079515Y7701717D01*
X9079792Y7700942D01*
X9080069Y7700167D01*
X9080290Y7699336D01*
X9080456Y7698395D01*
X9080567Y7697454D01*
X9080622Y7696457D01*
Y7696402D01*
Y7696236D01*
Y7695959D01*
X9080567Y7695571D01*
X9080512Y7695128D01*
X9080456Y7694630D01*
X9080346Y7694021D01*
X9080235Y7693412D01*
X9079903Y7691972D01*
X9079349Y7690477D01*
X9079017Y7689702D01*
X9078574Y7688982D01*
X9078131Y7688207D01*
X9077577Y7687487D01*
X9077522Y7687431D01*
X9077411Y7687265D01*
X9077189Y7687044D01*
X9076913Y7686767D01*
X9076525Y7686435D01*
X9076082Y7685992D01*
X9075528Y7685604D01*
X9074919Y7685161D01*
X9074255Y7684718D01*
X9073479Y7684331D01*
X9072649Y7683943D01*
X9071763Y7683555D01*
X9070822Y7683279D01*
X9069770Y7683057D01*
X9068662Y7682891D01*
X9067499Y7682836D01*
X9067001D01*
X9066613Y7682891D01*
X9066170Y7682946D01*
X9065672Y7683002D01*
X9065063Y7683057D01*
X9064454Y7683223D01*
X9063070Y7683555D01*
X9061685Y7684054D01*
X9060965Y7684386D01*
X9060246Y7684774D01*
X9059581Y7685217D01*
X9058917Y7685715D01*
X9058861Y7685770D01*
X9058750Y7685826D01*
X9058640Y7686047D01*
X9058418Y7686269D01*
X9058141Y7686545D01*
X9057865Y7686878D01*
X9057532Y7687321D01*
X9057255Y7687819D01*
X9056923Y7688317D01*
X9056591Y7688926D01*
X9055982Y7690255D01*
X9055484Y7691806D01*
X9055317Y7692636D01*
X9055207Y7693522D01*
X9060135Y7693910D01*
Y7693855D01*
Y7693744D01*
X9060190Y7693578D01*
X9060246Y7693301D01*
X9060412Y7692692D01*
X9060633Y7691861D01*
X9060965Y7691031D01*
X9061408Y7690089D01*
X9061962Y7689259D01*
X9062627Y7688483D01*
X9062737Y7688428D01*
X9062959Y7688207D01*
X9063402Y7687930D01*
X9064011Y7687598D01*
X9064675Y7687265D01*
X9065506Y7686988D01*
X9066447Y7686767D01*
X9067499Y7686712D01*
X9067831D01*
X9068053Y7686767D01*
X9068717Y7686822D01*
X9069493Y7687044D01*
X9070434Y7687321D01*
X9071375Y7687764D01*
X9072372Y7688428D01*
X9072815Y7688816D01*
X9073258Y7689259D01*
X9073313Y7689314D01*
X9073369Y7689369D01*
X9073479Y7689536D01*
X9073646Y7689702D01*
X9074033Y7690311D01*
X9074476Y7691086D01*
X9074864Y7692027D01*
X9075251Y7693190D01*
X9075528Y7694574D01*
X9075639Y7695294D01*
Y7696069D01*
Y7696125D01*
Y7696236D01*
Y7696457D01*
X9075584Y7696734D01*
Y7697066D01*
X9075528Y7697454D01*
X9075362Y7698340D01*
X9075085Y7699392D01*
X9074698Y7700444D01*
X9074144Y7701441D01*
X9073369Y7702382D01*
Y7702437D01*
X9073258Y7702493D01*
X9072981Y7702769D01*
X9072483Y7703157D01*
X9071818Y7703600D01*
X9070932Y7703988D01*
X9069936Y7704375D01*
X9068773Y7704652D01*
X9068108Y7704763D01*
X9067056D01*
X9066613Y7704707D01*
X9066060Y7704652D01*
X9065395Y7704486D01*
X9064731Y7704320D01*
X9064011Y7704043D01*
X9063291Y7703711D01*
X9063236Y7703655D01*
X9063014Y7703545D01*
X9062682Y7703268D01*
X9062239Y7702991D01*
X9061796Y7702603D01*
X9061353Y7702105D01*
X9060855Y7701607D01*
X9060467Y7700998D01*
X9056037Y7701607D01*
X9059747Y7721319D01*
X9078795D01*
Y7716834D01*
D02*
G37*
G36*
X10727035Y8613119D02*
X10727699D01*
X10728419Y8613064D01*
X10729194Y8613008D01*
X10730966Y8612842D01*
X10732793Y8612565D01*
X10734565Y8612233D01*
X10735396Y8612012D01*
X10736226Y8611735D01*
X10736282D01*
X10736393Y8611679D01*
X10736614Y8611569D01*
X10736891Y8611458D01*
X10737278Y8611347D01*
X10737666Y8611126D01*
X10738607Y8610683D01*
X10739604Y8610129D01*
X10740712Y8609409D01*
X10741708Y8608579D01*
X10742650Y8607582D01*
Y8607527D01*
X10742760Y8607471D01*
X10742871Y8607305D01*
X10742982Y8607084D01*
X10743148Y8606807D01*
X10743369Y8606530D01*
X10743757Y8605699D01*
X10744145Y8604703D01*
X10744532Y8603540D01*
X10744754Y8602156D01*
X10744864Y8600660D01*
Y8600107D01*
X10744809Y8599719D01*
X10744754Y8599276D01*
X10744643Y8598722D01*
X10744532Y8598113D01*
X10744366Y8597449D01*
X10744145Y8596784D01*
X10743923Y8596065D01*
X10743591Y8595345D01*
X10743203Y8594625D01*
X10742760Y8593905D01*
X10742207Y8593185D01*
X10741598Y8592521D01*
X10740933Y8591912D01*
X10740878Y8591856D01*
X10740712Y8591746D01*
X10740435Y8591579D01*
X10739992Y8591303D01*
X10739493Y8591026D01*
X10738829Y8590749D01*
X10738054Y8590361D01*
X10737168Y8590029D01*
X10736171Y8589697D01*
X10735008Y8589365D01*
X10733735Y8589032D01*
X10732295Y8588755D01*
X10730745Y8588479D01*
X10729083Y8588313D01*
X10727256Y8588202D01*
X10725318Y8588146D01*
X10725263D01*
X10725041D01*
X10724654D01*
X10724211D01*
X10723602Y8588202D01*
X10722937D01*
X10722217Y8588257D01*
X10721387Y8588313D01*
X10719670Y8588479D01*
X10717843Y8588755D01*
X10716016Y8589088D01*
X10715185Y8589309D01*
X10714354Y8589531D01*
X10714299D01*
X10714188Y8589586D01*
X10713967Y8589697D01*
X10713690Y8589808D01*
X10713302Y8589918D01*
X10712915Y8590140D01*
X10711973Y8590583D01*
X10710977Y8591136D01*
X10709925Y8591856D01*
X10708873Y8592687D01*
X10707987Y8593684D01*
Y8593739D01*
X10707876Y8593794D01*
X10707765Y8593960D01*
X10707654Y8594182D01*
X10707433Y8594459D01*
X10707267Y8594791D01*
X10706824Y8595622D01*
X10706436Y8596618D01*
X10706049Y8597781D01*
X10705827Y8599165D01*
X10705716Y8600660D01*
Y8601159D01*
X10705772Y8601768D01*
X10705883Y8602488D01*
X10706049Y8603318D01*
X10706270Y8604204D01*
X10706547Y8605146D01*
X10706990Y8606032D01*
Y8606087D01*
X10707045Y8606142D01*
X10707212Y8606419D01*
X10707488Y8606862D01*
X10707876Y8607416D01*
X10708430Y8608025D01*
X10709039Y8608689D01*
X10709759Y8609299D01*
X10710589Y8609908D01*
X10710700Y8609963D01*
X10710977Y8610184D01*
X10711475Y8610406D01*
X10712195Y8610794D01*
X10713026Y8611126D01*
X10713967Y8611569D01*
X10715074Y8611956D01*
X10716293Y8612289D01*
X10716348D01*
X10716459Y8612344D01*
X10716625Y8612399D01*
X10716902Y8612455D01*
X10717234Y8612510D01*
X10717621Y8612565D01*
X10718120Y8612676D01*
X10718674Y8612732D01*
X10719283Y8612842D01*
X10719947Y8612898D01*
X10720722Y8612953D01*
X10721497Y8613064D01*
X10722383Y8613119D01*
X10723269D01*
X10724266Y8613175D01*
X10725318D01*
X10725374D01*
X10725595D01*
X10725983D01*
X10726426D01*
X10727035Y8613119D01*
D02*
G37*
G36*
X10744200Y8571369D02*
X10714244D01*
X10714299Y8571313D01*
X10714521Y8571036D01*
X10714853Y8570704D01*
X10715240Y8570150D01*
X10715739Y8569541D01*
X10716293Y8568766D01*
X10716902Y8567880D01*
X10717511Y8566884D01*
Y8566828D01*
X10717566Y8566773D01*
X10717788Y8566441D01*
X10718064Y8565887D01*
X10718397Y8565222D01*
X10718784Y8564447D01*
X10719172Y8563617D01*
X10719559Y8562786D01*
X10719892Y8561955D01*
X10715351D01*
Y8562011D01*
X10715240Y8562122D01*
X10715185Y8562343D01*
X10715019Y8562620D01*
X10714853Y8562952D01*
X10714631Y8563340D01*
X10714078Y8564281D01*
X10713469Y8565389D01*
X10712693Y8566496D01*
X10711807Y8567659D01*
X10710866Y8568822D01*
X10710811Y8568877D01*
X10710755Y8568932D01*
X10710589Y8569098D01*
X10710423Y8569320D01*
X10709869Y8569818D01*
X10709205Y8570483D01*
X10708430Y8571147D01*
X10707544Y8571867D01*
X10706658Y8572476D01*
X10705716Y8573030D01*
Y8576075D01*
X10744200D01*
Y8571369D01*
D02*
G37*
G36*
Y8549054D02*
X10736226Y8544015D01*
X10736171D01*
X10736060Y8543904D01*
X10735894Y8543793D01*
X10735673Y8543627D01*
X10735064Y8543240D01*
X10734288Y8542741D01*
X10733458Y8542132D01*
X10732572Y8541523D01*
X10731741Y8540914D01*
X10730966Y8540360D01*
X10730911Y8540305D01*
X10730689Y8540139D01*
X10730357Y8539862D01*
X10729969Y8539474D01*
X10729139Y8538644D01*
X10728751Y8538201D01*
X10728419Y8537758D01*
X10728364Y8537703D01*
X10728308Y8537592D01*
X10728197Y8537370D01*
X10728031Y8537038D01*
X10727865Y8536706D01*
X10727699Y8536318D01*
X10727422Y8535432D01*
Y8535377D01*
X10727367Y8535266D01*
Y8535045D01*
X10727312Y8534768D01*
X10727256Y8534380D01*
Y8533937D01*
X10727201Y8533328D01*
Y8526794D01*
X10744200D01*
Y8521700D01*
X10705883D01*
Y8539474D01*
X10705938Y8539917D01*
Y8540416D01*
X10705993Y8541579D01*
X10706159Y8542797D01*
X10706326Y8544126D01*
X10706602Y8545344D01*
X10706769Y8545953D01*
X10706935Y8546451D01*
Y8546507D01*
X10706990Y8546562D01*
X10707156Y8546894D01*
X10707378Y8547393D01*
X10707765Y8548002D01*
X10708264Y8548666D01*
X10708928Y8549386D01*
X10709703Y8550050D01*
X10710589Y8550715D01*
X10710645D01*
X10710700Y8550770D01*
X10711032Y8550992D01*
X10711586Y8551213D01*
X10712306Y8551546D01*
X10713136Y8551822D01*
X10714133Y8552099D01*
X10715185Y8552265D01*
X10716348Y8552321D01*
X10716403D01*
X10716514D01*
X10716735D01*
X10717012Y8552265D01*
X10717400D01*
X10717788Y8552210D01*
X10718729Y8551988D01*
X10719836Y8551656D01*
X10720999Y8551213D01*
X10722162Y8550549D01*
X10722716Y8550106D01*
X10723269Y8549663D01*
X10723325Y8549607D01*
X10723380Y8549552D01*
X10723546Y8549386D01*
X10723712Y8549165D01*
X10723934Y8548888D01*
X10724155Y8548555D01*
X10724432Y8548112D01*
X10724764Y8547669D01*
X10725041Y8547116D01*
X10725318Y8546507D01*
X10725650Y8545842D01*
X10725927Y8545122D01*
X10726149Y8544292D01*
X10726426Y8543461D01*
X10726592Y8542520D01*
X10726758Y8541523D01*
X10726813Y8541634D01*
X10726924Y8541855D01*
X10727145Y8542188D01*
X10727367Y8542631D01*
X10727976Y8543627D01*
X10728364Y8544126D01*
X10728696Y8544569D01*
X10728807Y8544679D01*
X10729083Y8544956D01*
X10729526Y8545399D01*
X10730080Y8545953D01*
X10730855Y8546562D01*
X10731686Y8547282D01*
X10732683Y8548002D01*
X10733790Y8548777D01*
X10744200Y8555366D01*
Y8549054D01*
D02*
G37*
G36*
X10747708Y7026214D02*
X10756900D01*
Y7021508D01*
X10747708D01*
Y7004841D01*
X10743389D01*
X10718583Y7022394D01*
Y7026214D01*
X10743389D01*
Y7031419D01*
X10747708D01*
Y7026214D01*
D02*
G37*
G36*
X10756900Y6989669D02*
X10726944D01*
X10726999Y6989613D01*
X10727221Y6989337D01*
X10727553Y6989004D01*
X10727940Y6988451D01*
X10728439Y6987841D01*
X10728993Y6987066D01*
X10729602Y6986180D01*
X10730211Y6985184D01*
Y6985128D01*
X10730266Y6985073D01*
X10730488Y6984741D01*
X10730764Y6984187D01*
X10731097Y6983522D01*
X10731484Y6982747D01*
X10731872Y6981917D01*
X10732259Y6981086D01*
X10732592Y6980256D01*
X10728051D01*
Y6980311D01*
X10727940Y6980422D01*
X10727885Y6980643D01*
X10727719Y6980920D01*
X10727553Y6981252D01*
X10727331Y6981640D01*
X10726778Y6982581D01*
X10726169Y6983689D01*
X10725393Y6984796D01*
X10724507Y6985959D01*
X10723566Y6987122D01*
X10723511Y6987177D01*
X10723455Y6987232D01*
X10723289Y6987399D01*
X10723123Y6987620D01*
X10722569Y6988118D01*
X10721905Y6988783D01*
X10721130Y6989447D01*
X10720244Y6990167D01*
X10719358Y6990776D01*
X10718416Y6991330D01*
Y6994375D01*
X10756900D01*
Y6989669D01*
D02*
G37*
G36*
Y6967354D02*
X10748926Y6962315D01*
X10748871D01*
X10748760Y6962204D01*
X10748594Y6962094D01*
X10748373Y6961927D01*
X10747764Y6961540D01*
X10746988Y6961041D01*
X10746158Y6960432D01*
X10745272Y6959823D01*
X10744441Y6959214D01*
X10743666Y6958660D01*
X10743611Y6958605D01*
X10743389Y6958439D01*
X10743057Y6958162D01*
X10742669Y6957775D01*
X10741839Y6956944D01*
X10741451Y6956501D01*
X10741119Y6956058D01*
X10741064Y6956003D01*
X10741008Y6955892D01*
X10740897Y6955670D01*
X10740731Y6955338D01*
X10740565Y6955006D01*
X10740399Y6954618D01*
X10740122Y6953732D01*
Y6953677D01*
X10740067Y6953566D01*
Y6953345D01*
X10740012Y6953068D01*
X10739956Y6952680D01*
Y6952237D01*
X10739901Y6951628D01*
Y6945094D01*
X10756900D01*
Y6940000D01*
X10718583D01*
Y6957775D01*
X10718638Y6958217D01*
Y6958716D01*
X10718693Y6959879D01*
X10718859Y6961097D01*
X10719026Y6962426D01*
X10719302Y6963644D01*
X10719469Y6964253D01*
X10719635Y6964751D01*
Y6964807D01*
X10719690Y6964862D01*
X10719856Y6965194D01*
X10720078Y6965693D01*
X10720465Y6966302D01*
X10720964Y6966966D01*
X10721628Y6967686D01*
X10722403Y6968351D01*
X10723289Y6969015D01*
X10723345D01*
X10723400Y6969070D01*
X10723732Y6969292D01*
X10724286Y6969513D01*
X10725006Y6969846D01*
X10725836Y6970122D01*
X10726833Y6970399D01*
X10727885Y6970565D01*
X10729048Y6970621D01*
X10729103D01*
X10729214D01*
X10729435D01*
X10729712Y6970565D01*
X10730100D01*
X10730488Y6970510D01*
X10731429Y6970289D01*
X10732536Y6969956D01*
X10733699Y6969513D01*
X10734862Y6968849D01*
X10735416Y6968406D01*
X10735969Y6967963D01*
X10736025Y6967908D01*
X10736080Y6967852D01*
X10736246Y6967686D01*
X10736412Y6967465D01*
X10736634Y6967188D01*
X10736855Y6966856D01*
X10737132Y6966413D01*
X10737464Y6965970D01*
X10737741Y6965416D01*
X10738018Y6964807D01*
X10738350Y6964142D01*
X10738627Y6963422D01*
X10738849Y6962592D01*
X10739126Y6961761D01*
X10739292Y6960820D01*
X10739458Y6959823D01*
X10739513Y6959934D01*
X10739624Y6960155D01*
X10739845Y6960488D01*
X10740067Y6960931D01*
X10740676Y6961927D01*
X10741064Y6962426D01*
X10741396Y6962869D01*
X10741507Y6962979D01*
X10741783Y6963256D01*
X10742226Y6963699D01*
X10742780Y6964253D01*
X10743555Y6964862D01*
X10744386Y6965582D01*
X10745383Y6966302D01*
X10746490Y6967077D01*
X10756900Y6973666D01*
Y6967354D01*
D02*
G37*
%LPC*%
G36*
X4239403Y6756416D02*
X4239348D01*
X4239293D01*
X4238960Y6756360D01*
X4238462Y6756305D01*
X4237797Y6756194D01*
X4237133Y6755917D01*
X4236358Y6755585D01*
X4235638Y6755087D01*
X4234918Y6754422D01*
X4234863Y6754312D01*
X4234641Y6754035D01*
X4234364Y6753592D01*
X4234032Y6752872D01*
X4233700Y6752041D01*
X4233423Y6750934D01*
X4233202Y6749660D01*
X4233146Y6748165D01*
Y6736094D01*
X4245826D01*
Y6747501D01*
X4245771Y6748165D01*
X4245716Y6748941D01*
X4245660Y6749826D01*
X4245550Y6750712D01*
X4245383Y6751598D01*
X4245162Y6752374D01*
X4245107Y6752484D01*
X4244996Y6752706D01*
X4244830Y6753038D01*
X4244608Y6753481D01*
X4244276Y6753979D01*
X4243888Y6754478D01*
X4243390Y6754976D01*
X4242836Y6755364D01*
X4242781Y6755419D01*
X4242559Y6755530D01*
X4242227Y6755696D01*
X4241784Y6755917D01*
X4241286Y6756084D01*
X4240732Y6756250D01*
X4240068Y6756360D01*
X4239403Y6756416D01*
D02*
G37*
G36*
X5448874Y2791868D02*
X5448818D01*
X5448707D01*
X5448486D01*
X5448209Y2791813D01*
X5447877D01*
X5447489Y2791757D01*
X5446603Y2791591D01*
X5445607Y2791370D01*
X5444555Y2790982D01*
X5443558Y2790428D01*
X5442616Y2789708D01*
X5442506Y2789598D01*
X5442229Y2789321D01*
X5441897Y2788878D01*
X5441454Y2788269D01*
X5441011Y2787494D01*
X5440678Y2786608D01*
X5440402Y2785556D01*
X5440291Y2784393D01*
Y2784060D01*
X5440346Y2783839D01*
X5440402Y2783285D01*
X5440568Y2782510D01*
X5440845Y2781679D01*
X5441288Y2780738D01*
X5441841Y2779852D01*
X5442616Y2778966D01*
X5442727Y2778856D01*
X5443004Y2778634D01*
X5443502Y2778246D01*
X5444222Y2777859D01*
X5445053Y2777471D01*
X5446105Y2777084D01*
X5447268Y2776862D01*
X5448597Y2776751D01*
X5448707D01*
X5448984D01*
X5449483Y2776807D01*
X5450092Y2776862D01*
X5450812Y2776973D01*
X5451587Y2777194D01*
X5452417Y2777416D01*
X5453248Y2777748D01*
X5453359Y2777803D01*
X5453636Y2777970D01*
X5454023Y2778191D01*
X5454521Y2778523D01*
X5455020Y2778911D01*
X5455629Y2779409D01*
X5456127Y2779963D01*
X5456626Y2780627D01*
X5456681Y2780738D01*
X5456792Y2780960D01*
X5457013Y2781347D01*
X5457179Y2781846D01*
X5457401Y2782399D01*
X5457622Y2783064D01*
X5457733Y2783784D01*
X5457788Y2784559D01*
Y2784836D01*
X5457733Y2785057D01*
X5457678Y2785611D01*
X5457512Y2786331D01*
X5457179Y2787106D01*
X5456792Y2787992D01*
X5456183Y2788878D01*
X5455850Y2789321D01*
X5455407Y2789708D01*
X5455352D01*
X5455297Y2789819D01*
X5454964Y2790041D01*
X5454411Y2790373D01*
X5453691Y2790816D01*
X5452750Y2791203D01*
X5451642Y2791536D01*
X5450369Y2791757D01*
X5448874Y2791868D01*
D02*
G37*
G36*
X5433203Y2730516D02*
X5433148D01*
X5433093D01*
X5432760Y2730460D01*
X5432262Y2730405D01*
X5431597Y2730294D01*
X5430933Y2730017D01*
X5430158Y2729685D01*
X5429438Y2729187D01*
X5428718Y2728522D01*
X5428663Y2728412D01*
X5428441Y2728135D01*
X5428164Y2727692D01*
X5427832Y2726972D01*
X5427500Y2726141D01*
X5427223Y2725034D01*
X5427002Y2723760D01*
X5426946Y2722265D01*
Y2710194D01*
X5439626D01*
Y2721601D01*
X5439571Y2722265D01*
X5439516Y2723041D01*
X5439460Y2723926D01*
X5439350Y2724812D01*
X5439183Y2725698D01*
X5438962Y2726474D01*
X5438907Y2726584D01*
X5438796Y2726806D01*
X5438630Y2727138D01*
X5438408Y2727581D01*
X5438076Y2728079D01*
X5437688Y2728578D01*
X5437190Y2729076D01*
X5436636Y2729464D01*
X5436581Y2729519D01*
X5436359Y2729630D01*
X5436027Y2729796D01*
X5435584Y2730017D01*
X5435086Y2730184D01*
X5434532Y2730350D01*
X5433868Y2730460D01*
X5433203Y2730516D01*
D02*
G37*
G36*
X5103003Y3181916D02*
X5102948D01*
X5102893D01*
X5102560Y3181860D01*
X5102062Y3181805D01*
X5101397Y3181694D01*
X5100733Y3181417D01*
X5099958Y3181085D01*
X5099238Y3180587D01*
X5098518Y3179922D01*
X5098463Y3179812D01*
X5098241Y3179535D01*
X5097964Y3179092D01*
X5097632Y3178372D01*
X5097300Y3177541D01*
X5097023Y3176434D01*
X5096802Y3175160D01*
X5096746Y3173665D01*
Y3161594D01*
X5109426D01*
Y3173001D01*
X5109371Y3173665D01*
X5109316Y3174440D01*
X5109260Y3175326D01*
X5109150Y3176212D01*
X5108983Y3177098D01*
X5108762Y3177874D01*
X5108707Y3177984D01*
X5108596Y3178206D01*
X5108430Y3178538D01*
X5108208Y3178981D01*
X5107876Y3179479D01*
X5107488Y3179978D01*
X5106990Y3180476D01*
X5106436Y3180864D01*
X5106381Y3180919D01*
X5106159Y3181030D01*
X5105827Y3181196D01*
X5105384Y3181417D01*
X5104886Y3181583D01*
X5104332Y3181750D01*
X5103668Y3181860D01*
X5103003Y3181916D01*
D02*
G37*
G36*
X12463535Y6041707D02*
X12462649D01*
X12462427Y6041652D01*
X12461818Y6041597D01*
X12461099Y6041375D01*
X12460213Y6041098D01*
X12459271Y6040600D01*
X12458330Y6039991D01*
X12457887Y6039548D01*
X12457444Y6039105D01*
Y6039050D01*
X12457333Y6038994D01*
X12457222Y6038828D01*
X12457112Y6038662D01*
X12456724Y6038108D01*
X12456337Y6037333D01*
X12455894Y6036392D01*
X12455506Y6035229D01*
X12455284Y6033900D01*
X12455174Y6032460D01*
Y6032405D01*
Y6032294D01*
Y6032128D01*
X12455229Y6031851D01*
Y6031519D01*
X12455284Y6031187D01*
X12455451Y6030356D01*
X12455727Y6029415D01*
X12456060Y6028418D01*
X12456613Y6027422D01*
X12457333Y6026536D01*
X12457444Y6026425D01*
X12457721Y6026203D01*
X12458219Y6025816D01*
X12458828Y6025428D01*
X12459659Y6024985D01*
X12460600Y6024598D01*
X12461652Y6024376D01*
X12462815Y6024265D01*
X12463147D01*
X12463369Y6024321D01*
X12463978Y6024376D01*
X12464698Y6024542D01*
X12465584Y6024819D01*
X12466470Y6025207D01*
X12467356Y6025760D01*
X12468186Y6026536D01*
X12468297Y6026646D01*
X12468518Y6026979D01*
X12468851Y6027477D01*
X12469294Y6028197D01*
X12469681Y6029083D01*
X12470013Y6030135D01*
X12470235Y6031408D01*
X12470346Y6032848D01*
Y6032903D01*
Y6033014D01*
Y6033236D01*
X12470290Y6033512D01*
Y6033900D01*
X12470235Y6034288D01*
X12470069Y6035174D01*
X12469847Y6036226D01*
X12469460Y6037333D01*
X12468906Y6038385D01*
X12468186Y6039327D01*
Y6039382D01*
X12468075Y6039437D01*
X12467799Y6039714D01*
X12467356Y6040102D01*
X12466746Y6040545D01*
X12465971Y6040932D01*
X12465085Y6041320D01*
X12464089Y6041597D01*
X12463535Y6041707D01*
D02*
G37*
G36*
X12430865Y6041154D02*
X12418794D01*
Y6028474D01*
X12430201D01*
X12430865Y6028529D01*
X12431641Y6028584D01*
X12432527Y6028640D01*
X12433413Y6028750D01*
X12434298Y6028917D01*
X12435074Y6029138D01*
X12435184Y6029193D01*
X12435406Y6029304D01*
X12435738Y6029470D01*
X12436181Y6029692D01*
X12436679Y6030024D01*
X12437178Y6030412D01*
X12437676Y6030910D01*
X12438064Y6031464D01*
X12438119Y6031519D01*
X12438230Y6031741D01*
X12438396Y6032073D01*
X12438617Y6032516D01*
X12438784Y6033014D01*
X12438950Y6033568D01*
X12439060Y6034232D01*
X12439116Y6034897D01*
Y6034952D01*
Y6035007D01*
X12439060Y6035340D01*
X12439005Y6035838D01*
X12438894Y6036503D01*
X12438617Y6037167D01*
X12438285Y6037942D01*
X12437787Y6038662D01*
X12437122Y6039382D01*
X12437012Y6039437D01*
X12436735Y6039659D01*
X12436292Y6039936D01*
X12435572Y6040268D01*
X12434741Y6040600D01*
X12433634Y6040877D01*
X12432360Y6041098D01*
X12430865Y6041154D01*
D02*
G37*
G36*
X10729103Y7536916D02*
X10729048D01*
X10728993D01*
X10728660Y7536860D01*
X10728162Y7536805D01*
X10727497Y7536694D01*
X10726833Y7536417D01*
X10726058Y7536085D01*
X10725338Y7535587D01*
X10724618Y7534922D01*
X10724563Y7534812D01*
X10724341Y7534535D01*
X10724064Y7534092D01*
X10723732Y7533372D01*
X10723400Y7532541D01*
X10723123Y7531434D01*
X10722902Y7530160D01*
X10722846Y7528665D01*
Y7516594D01*
X10735526D01*
Y7528001D01*
X10735471Y7528665D01*
X10735416Y7529441D01*
X10735360Y7530327D01*
X10735250Y7531213D01*
X10735083Y7532098D01*
X10734862Y7532874D01*
X10734807Y7532984D01*
X10734696Y7533206D01*
X10734530Y7533538D01*
X10734308Y7533981D01*
X10733976Y7534479D01*
X10733588Y7534978D01*
X10733090Y7535476D01*
X10732536Y7535864D01*
X10732481Y7535919D01*
X10732259Y7536030D01*
X10731927Y7536196D01*
X10731484Y7536417D01*
X10730986Y7536584D01*
X10730432Y7536750D01*
X10729768Y7536860D01*
X10729103Y7536916D01*
D02*
G37*
G36*
Y8222716D02*
X10729048D01*
X10728993D01*
X10728660Y8222660D01*
X10728162Y8222605D01*
X10727497Y8222494D01*
X10726833Y8222217D01*
X10726058Y8221885D01*
X10725338Y8221387D01*
X10724618Y8220722D01*
X10724563Y8220612D01*
X10724341Y8220335D01*
X10724064Y8219892D01*
X10723732Y8219172D01*
X10723400Y8218341D01*
X10723123Y8217234D01*
X10722902Y8215960D01*
X10722846Y8214465D01*
Y8202394D01*
X10735526D01*
Y8213801D01*
X10735471Y8214465D01*
X10735416Y8215241D01*
X10735360Y8216127D01*
X10735250Y8217013D01*
X10735083Y8217898D01*
X10734862Y8218674D01*
X10734807Y8218784D01*
X10734696Y8219006D01*
X10734530Y8219338D01*
X10734308Y8219781D01*
X10733976Y8220279D01*
X10733588Y8220778D01*
X10733090Y8221276D01*
X10732536Y8221664D01*
X10732481Y8221719D01*
X10732259Y8221830D01*
X10731927Y8221996D01*
X10731484Y8222217D01*
X10730986Y8222384D01*
X10730432Y8222550D01*
X10729768Y8222660D01*
X10729103Y8222716D01*
D02*
G37*
G36*
X7736768Y7498276D02*
X7724697Y7481111D01*
X7736768D01*
Y7498276D01*
D02*
G37*
G36*
X12463203Y7247009D02*
X12462870D01*
X12462649Y7246954D01*
X12462095Y7246898D01*
X12461320Y7246732D01*
X12460489Y7246455D01*
X12459548Y7246012D01*
X12458662Y7245459D01*
X12457776Y7244684D01*
X12457665Y7244573D01*
X12457444Y7244296D01*
X12457056Y7243798D01*
X12456669Y7243078D01*
X12456281Y7242247D01*
X12455894Y7241195D01*
X12455672Y7240032D01*
X12455561Y7238703D01*
Y7238593D01*
Y7238316D01*
X12455617Y7237817D01*
X12455672Y7237208D01*
X12455783Y7236488D01*
X12456004Y7235713D01*
X12456226Y7234883D01*
X12456558Y7234052D01*
X12456613Y7233941D01*
X12456780Y7233664D01*
X12457001Y7233277D01*
X12457333Y7232779D01*
X12457721Y7232280D01*
X12458219Y7231671D01*
X12458773Y7231173D01*
X12459437Y7230674D01*
X12459548Y7230619D01*
X12459770Y7230508D01*
X12460157Y7230287D01*
X12460656Y7230121D01*
X12461209Y7229899D01*
X12461874Y7229678D01*
X12462594Y7229567D01*
X12463369Y7229512D01*
X12463646D01*
X12463867Y7229567D01*
X12464421Y7229622D01*
X12465141Y7229788D01*
X12465916Y7230121D01*
X12466802Y7230508D01*
X12467688Y7231117D01*
X12468131Y7231450D01*
X12468518Y7231893D01*
Y7231948D01*
X12468629Y7232003D01*
X12468851Y7232336D01*
X12469183Y7232889D01*
X12469626Y7233609D01*
X12470013Y7234550D01*
X12470346Y7235658D01*
X12470567Y7236931D01*
X12470678Y7238426D01*
Y7238482D01*
Y7238593D01*
Y7238814D01*
X12470623Y7239091D01*
Y7239423D01*
X12470567Y7239811D01*
X12470401Y7240697D01*
X12470180Y7241693D01*
X12469792Y7242745D01*
X12469238Y7243742D01*
X12468518Y7244684D01*
X12468408Y7244794D01*
X12468131Y7245071D01*
X12467688Y7245403D01*
X12467079Y7245846D01*
X12466303Y7246289D01*
X12465418Y7246622D01*
X12464365Y7246898D01*
X12463203Y7247009D01*
D02*
G37*
G36*
X12430865Y7260354D02*
X12418794D01*
Y7247674D01*
X12430201D01*
X12430865Y7247729D01*
X12431641Y7247784D01*
X12432527Y7247840D01*
X12433413Y7247950D01*
X12434298Y7248117D01*
X12435074Y7248338D01*
X12435184Y7248393D01*
X12435406Y7248504D01*
X12435738Y7248670D01*
X12436181Y7248892D01*
X12436679Y7249224D01*
X12437178Y7249612D01*
X12437676Y7250110D01*
X12438064Y7250664D01*
X12438119Y7250719D01*
X12438230Y7250941D01*
X12438396Y7251273D01*
X12438617Y7251716D01*
X12438784Y7252214D01*
X12438950Y7252768D01*
X12439060Y7253432D01*
X12439116Y7254097D01*
Y7254152D01*
Y7254207D01*
X12439060Y7254540D01*
X12439005Y7255038D01*
X12438894Y7255703D01*
X12438617Y7256367D01*
X12438285Y7257142D01*
X12437787Y7257862D01*
X12437122Y7258582D01*
X12437012Y7258637D01*
X12436735Y7258859D01*
X12436292Y7259136D01*
X12435572Y7259468D01*
X12434741Y7259800D01*
X12433634Y7260077D01*
X12432360Y7260298D01*
X12430865Y7260354D01*
D02*
G37*
G36*
X12443565Y6726954D02*
X12431494D01*
Y6714274D01*
X12442901D01*
X12443565Y6714329D01*
X12444341Y6714384D01*
X12445227Y6714440D01*
X12446113Y6714550D01*
X12446998Y6714717D01*
X12447774Y6714938D01*
X12447884Y6714993D01*
X12448106Y6715104D01*
X12448438Y6715270D01*
X12448881Y6715492D01*
X12449379Y6715824D01*
X12449878Y6716212D01*
X12450376Y6716710D01*
X12450764Y6717264D01*
X12450819Y6717319D01*
X12450930Y6717541D01*
X12451096Y6717873D01*
X12451317Y6718316D01*
X12451484Y6718814D01*
X12451650Y6719368D01*
X12451760Y6720032D01*
X12451816Y6720697D01*
Y6720752D01*
Y6720807D01*
X12451760Y6721140D01*
X12451705Y6721638D01*
X12451594Y6722303D01*
X12451317Y6722967D01*
X12450985Y6723742D01*
X12450487Y6724462D01*
X12449822Y6725182D01*
X12449712Y6725237D01*
X12449435Y6725459D01*
X12448992Y6725736D01*
X12448272Y6726068D01*
X12447441Y6726400D01*
X12446334Y6726677D01*
X12445060Y6726898D01*
X12443565Y6726954D01*
D02*
G37*
G36*
X12475626Y6727508D02*
X12475183D01*
X12474684Y6727397D01*
X12474020Y6727286D01*
X12473300Y6727065D01*
X12472525Y6726788D01*
X12471805Y6726345D01*
X12471085Y6725736D01*
X12471030Y6725680D01*
X12470808Y6725459D01*
X12470532Y6725071D01*
X12470255Y6724573D01*
X12469922Y6723964D01*
X12469646Y6723244D01*
X12469424Y6722469D01*
X12469369Y6721583D01*
Y6721527D01*
Y6721472D01*
X12469424Y6721140D01*
X12469480Y6720641D01*
X12469590Y6720032D01*
X12469812Y6719312D01*
X12470089Y6718593D01*
X12470532Y6717817D01*
X12471085Y6717153D01*
X12471141Y6717098D01*
X12471418Y6716876D01*
X12471805Y6716599D01*
X12472303Y6716322D01*
X12472968Y6715990D01*
X12473743Y6715713D01*
X12474629Y6715492D01*
X12475626Y6715436D01*
X12475737D01*
X12476069Y6715492D01*
X12476567Y6715547D01*
X12477232Y6715658D01*
X12477951Y6715879D01*
X12478671Y6716156D01*
X12479446Y6716599D01*
X12480111Y6717153D01*
X12480166Y6717208D01*
X12480388Y6717485D01*
X12480665Y6717817D01*
X12480997Y6718316D01*
X12481329Y6718925D01*
X12481606Y6719645D01*
X12481827Y6720475D01*
X12481883Y6721361D01*
Y6721417D01*
Y6721472D01*
Y6721804D01*
X12481772Y6722303D01*
X12481661Y6722912D01*
X12481440Y6723576D01*
X12481108Y6724296D01*
X12480665Y6725016D01*
X12480056Y6725736D01*
X12480000Y6725791D01*
X12479723Y6726012D01*
X12479336Y6726289D01*
X12478837Y6726622D01*
X12478173Y6726954D01*
X12477453Y6727231D01*
X12476567Y6727452D01*
X12475626Y6727508D01*
D02*
G37*
G36*
X12475460Y6711616D02*
X12475127D01*
X12474906Y6711560D01*
X12474297Y6711505D01*
X12473522Y6711339D01*
X12472636Y6711062D01*
X12471750Y6710674D01*
X12470808Y6710121D01*
X12469978Y6709401D01*
X12469867Y6709290D01*
X12469646Y6709013D01*
X12469313Y6708515D01*
X12468926Y6707906D01*
X12468483Y6707075D01*
X12468151Y6706134D01*
X12467929Y6705082D01*
X12467818Y6703919D01*
Y6703808D01*
Y6703587D01*
X12467874Y6703199D01*
X12467929Y6702701D01*
X12468040Y6702092D01*
X12468206Y6701427D01*
X12468427Y6700763D01*
X12468704Y6700043D01*
X12468760Y6699988D01*
X12468870Y6699711D01*
X12469092Y6699379D01*
X12469424Y6698991D01*
X12469812Y6698493D01*
X12470310Y6697994D01*
X12470864Y6697551D01*
X12471528Y6697108D01*
X12471639Y6697053D01*
X12471861Y6696942D01*
X12472248Y6696776D01*
X12472746Y6696610D01*
X12473356Y6696444D01*
X12474075Y6696278D01*
X12474851Y6696167D01*
X12475626Y6696112D01*
X12475958D01*
X12476180Y6696167D01*
X12476844Y6696222D01*
X12477619Y6696388D01*
X12478505Y6696665D01*
X12479446Y6696998D01*
X12480332Y6697551D01*
X12481218Y6698271D01*
X12481329Y6698382D01*
X12481551Y6698659D01*
X12481938Y6699157D01*
X12482326Y6699766D01*
X12482713Y6700541D01*
X12483101Y6701483D01*
X12483323Y6702590D01*
X12483433Y6703753D01*
Y6703808D01*
Y6703919D01*
Y6704085D01*
X12483378Y6704307D01*
X12483323Y6704916D01*
X12483156Y6705746D01*
X12482880Y6706577D01*
X12482492Y6707518D01*
X12481938Y6708460D01*
X12481163Y6709345D01*
X12481052Y6709456D01*
X12480775Y6709678D01*
X12480277Y6710065D01*
X12479613Y6710508D01*
X12478782Y6710896D01*
X12477785Y6711284D01*
X12476678Y6711505D01*
X12475460Y6711616D01*
D02*
G37*
G36*
X10691003Y7772416D02*
X10690948D01*
X10690893D01*
X10690560Y7772360D01*
X10690062Y7772305D01*
X10689397Y7772194D01*
X10688733Y7771917D01*
X10687958Y7771585D01*
X10687238Y7771087D01*
X10686518Y7770422D01*
X10686463Y7770312D01*
X10686241Y7770035D01*
X10685964Y7769592D01*
X10685632Y7768872D01*
X10685300Y7768041D01*
X10685023Y7766934D01*
X10684802Y7765660D01*
X10684746Y7764165D01*
Y7752094D01*
X10697426D01*
Y7763501D01*
X10697371Y7764165D01*
X10697316Y7764941D01*
X10697260Y7765826D01*
X10697150Y7766712D01*
X10696983Y7767598D01*
X10696762Y7768374D01*
X10696707Y7768484D01*
X10696596Y7768706D01*
X10696430Y7769038D01*
X10696208Y7769481D01*
X10695876Y7769979D01*
X10695488Y7770478D01*
X10694990Y7770976D01*
X10694436Y7771364D01*
X10694381Y7771419D01*
X10694159Y7771530D01*
X10693827Y7771696D01*
X10693384Y7771917D01*
X10692886Y7772084D01*
X10692332Y7772250D01*
X10691668Y7772360D01*
X10691003Y7772416D01*
D02*
G37*
G36*
X10727035Y8608357D02*
X10725318D01*
X10725263D01*
X10725207D01*
X10724931D01*
X10724432D01*
X10723768Y8608302D01*
X10723048D01*
X10722162Y8608246D01*
X10721221Y8608191D01*
X10720169Y8608080D01*
X10718064Y8607803D01*
X10717012Y8607637D01*
X10716016Y8607416D01*
X10715074Y8607194D01*
X10714188Y8606862D01*
X10713413Y8606530D01*
X10712749Y8606142D01*
X10712693D01*
X10712638Y8606032D01*
X10712472Y8605921D01*
X10712250Y8605755D01*
X10711752Y8605256D01*
X10711143Y8604647D01*
X10710589Y8603817D01*
X10710091Y8602875D01*
X10709869Y8602377D01*
X10709703Y8601823D01*
X10709648Y8601214D01*
X10709592Y8600605D01*
Y8600273D01*
X10709648Y8600051D01*
X10709759Y8599442D01*
X10709925Y8598722D01*
X10710257Y8597892D01*
X10710755Y8597006D01*
X10711088Y8596563D01*
X10711420Y8596120D01*
X10711863Y8595732D01*
X10712361Y8595345D01*
X10712416D01*
X10712527Y8595234D01*
X10712749Y8595123D01*
X10713026Y8594957D01*
X10713469Y8594791D01*
X10713967Y8594570D01*
X10714576Y8594403D01*
X10715296Y8594182D01*
X10716126Y8593960D01*
X10717068Y8593739D01*
X10718120Y8593517D01*
X10719283Y8593351D01*
X10720612Y8593185D01*
X10722051Y8593075D01*
X10723602Y8593019D01*
X10725318Y8592964D01*
X10725429D01*
X10725706D01*
X10726204D01*
X10726869Y8593019D01*
X10727588D01*
X10728474Y8593075D01*
X10729416Y8593130D01*
X10730412Y8593241D01*
X10732572Y8593517D01*
X10733624Y8593684D01*
X10734621Y8593905D01*
X10735562Y8594127D01*
X10736448Y8594459D01*
X10737223Y8594791D01*
X10737888Y8595179D01*
X10737943D01*
X10737998Y8595289D01*
X10738386Y8595566D01*
X10738884Y8596065D01*
X10739438Y8596674D01*
X10739992Y8597504D01*
X10740490Y8598446D01*
X10740878Y8599498D01*
X10740933Y8600051D01*
X10740988Y8600660D01*
Y8600993D01*
X10740933Y8601214D01*
X10740822Y8601768D01*
X10740601Y8602543D01*
X10740213Y8603374D01*
X10739659Y8604315D01*
X10739327Y8604758D01*
X10738884Y8605201D01*
X10738441Y8605644D01*
X10737888Y8606087D01*
X10737832D01*
X10737721Y8606198D01*
X10737555Y8606308D01*
X10737278Y8606419D01*
X10736891Y8606641D01*
X10736393Y8606807D01*
X10735839Y8607028D01*
X10735174Y8607250D01*
X10734344Y8607416D01*
X10733458Y8607637D01*
X10732406Y8607859D01*
X10731298Y8608025D01*
X10729969Y8608136D01*
X10728585Y8608246D01*
X10727035Y8608357D01*
D02*
G37*
G36*
X10716403Y8547116D02*
X10716348D01*
X10716293D01*
X10715960Y8547060D01*
X10715462Y8547005D01*
X10714797Y8546894D01*
X10714133Y8546617D01*
X10713358Y8546285D01*
X10712638Y8545787D01*
X10711918Y8545122D01*
X10711863Y8545012D01*
X10711641Y8544735D01*
X10711364Y8544292D01*
X10711032Y8543572D01*
X10710700Y8542741D01*
X10710423Y8541634D01*
X10710202Y8540360D01*
X10710146Y8538865D01*
Y8526794D01*
X10722826D01*
Y8538201D01*
X10722771Y8538865D01*
X10722716Y8539641D01*
X10722660Y8540526D01*
X10722550Y8541412D01*
X10722383Y8542298D01*
X10722162Y8543074D01*
X10722107Y8543184D01*
X10721996Y8543406D01*
X10721830Y8543738D01*
X10721608Y8544181D01*
X10721276Y8544679D01*
X10720888Y8545178D01*
X10720390Y8545676D01*
X10719836Y8546064D01*
X10719781Y8546119D01*
X10719559Y8546230D01*
X10719227Y8546396D01*
X10718784Y8546617D01*
X10718286Y8546784D01*
X10717732Y8546950D01*
X10717068Y8547060D01*
X10716403Y8547116D01*
D02*
G37*
G36*
X10743389Y7021508D02*
X10726224D01*
X10743389Y7009437D01*
Y7021508D01*
D02*
G37*
G36*
X10729103Y6965416D02*
X10729048D01*
X10728993D01*
X10728660Y6965360D01*
X10728162Y6965305D01*
X10727497Y6965194D01*
X10726833Y6964917D01*
X10726058Y6964585D01*
X10725338Y6964087D01*
X10724618Y6963422D01*
X10724563Y6963312D01*
X10724341Y6963035D01*
X10724064Y6962592D01*
X10723732Y6961872D01*
X10723400Y6961041D01*
X10723123Y6959934D01*
X10722902Y6958660D01*
X10722846Y6957165D01*
Y6945094D01*
X10735526D01*
Y6956501D01*
X10735471Y6957165D01*
X10735416Y6957941D01*
X10735360Y6958827D01*
X10735250Y6959713D01*
X10735083Y6960598D01*
X10734862Y6961374D01*
X10734807Y6961484D01*
X10734696Y6961706D01*
X10734530Y6962038D01*
X10734308Y6962481D01*
X10733976Y6962979D01*
X10733588Y6963478D01*
X10733090Y6963976D01*
X10732536Y6964364D01*
X10732481Y6964419D01*
X10732259Y6964530D01*
X10731927Y6964696D01*
X10731484Y6964917D01*
X10730986Y6965084D01*
X10730432Y6965250D01*
X10729768Y6965360D01*
X10729103Y6965416D01*
D02*
G37*
%LPD*%
%TF.MD5,1ee498607d393625c230e997bf34503e*%
M02*
