%TF.GenerationSoftware,Altium Limited,Altium Designer,26.6.0 (10)*%
G04 Layer_Color=128*
G04 Board_Origin=0|0*
%FSLAX45Y45*%
%MOMM*%
%TF.SameCoordinates,6A3D5CD9-43CD-45B0-B852-C75ABF57ED6A*%
%TF.FilePolarity,Positive*%
%TF.FileFunction,Drillmap*%
%TF.Part,Single*%
G01*
G75*
%TA.AperFunction,NonConductor*%
%ADD63C,0.12700*%
D63*
X3408300Y7636398D02*
X3478300D01*
X3443300Y7601398D02*
Y7671398D01*
X3608300Y7636398D02*
X3678300D01*
X3643300Y7601398D02*
Y7671398D01*
X8535200Y4678502D02*
X8635200D01*
X8585200Y4628502D02*
Y4728502D01*
X8281200Y4678502D02*
X8381200D01*
X8331200Y4628502D02*
Y4728502D01*
X8027200Y4678502D02*
X8127200D01*
X8077200Y4628502D02*
Y4728502D01*
X7773200Y4678502D02*
X7873200D01*
X7823200Y4628502D02*
Y4728502D01*
X7519200Y4678502D02*
X7619200D01*
X7569200Y4628502D02*
Y4728502D01*
X7265200Y4678502D02*
X7365200D01*
X7315200Y4628502D02*
Y4728502D01*
X7011200Y4678502D02*
X7111200D01*
X7061200Y4628502D02*
Y4728502D01*
X6757200Y4678502D02*
X6857200D01*
X6807200Y4628502D02*
Y4728502D01*
X6503200Y4678502D02*
X6603200D01*
X6553200Y4628502D02*
Y4728502D01*
X6503200Y6878498D02*
X6603200D01*
X6553200Y6828498D02*
Y6928498D01*
X6757200Y6878498D02*
X6857200D01*
X6807200Y6828498D02*
Y6928498D01*
X7011200Y6878498D02*
X7111200D01*
X7061200Y6828498D02*
Y6928498D01*
X7265200Y6878498D02*
X7365200D01*
X7315200Y6828498D02*
Y6928498D01*
X7519200Y6878498D02*
X7619200D01*
X7569200Y6828498D02*
Y6928498D01*
X7773200Y6878498D02*
X7873200D01*
X7823200Y6828498D02*
Y6928498D01*
X8027200Y6878498D02*
X8127200D01*
X8077200Y6828498D02*
Y6928498D01*
X8281200Y6878498D02*
X8381200D01*
X8331200Y6828498D02*
Y6928498D01*
X8535200Y6878498D02*
X8635200D01*
X8585200Y6828498D02*
Y6928498D01*
X3346400Y8502701D02*
X3435400D01*
X3390900Y8458201D02*
Y8547201D01*
X3346400Y8702700D02*
X3435400D01*
X3390900Y8658200D02*
Y8747200D01*
X3346400Y8902700D02*
X3435400D01*
X3390900Y8858200D02*
Y8947200D01*
X3346400Y9102700D02*
X3435400D01*
X3390900Y9058200D02*
Y9147200D01*
X3346400Y9302699D02*
X3435400D01*
X3390900Y9258199D02*
Y9347199D01*
X3546400Y8502701D02*
X3635400D01*
X3590900Y8458201D02*
Y8547201D01*
X3546400Y8702700D02*
X3635400D01*
X3590900Y8658200D02*
Y8747200D01*
X3546400Y8902700D02*
X3635400D01*
X3590900Y8858200D02*
Y8947200D01*
X3546400Y9102700D02*
X3635400D01*
X3590900Y9058200D02*
Y9147200D01*
X3546400Y9302699D02*
X3635400D01*
X3590900Y9258199D02*
Y9347199D01*
X8416839Y10318201D02*
X8487959D01*
X8452399Y10282641D02*
Y10353761D01*
X7819939Y7636398D02*
X7891059D01*
X7855499Y7600838D02*
Y7671958D01*
X8363560Y10124440D02*
X8434680D01*
X8399120Y10088880D02*
Y10160000D01*
X8090042Y9977120D02*
X8161162D01*
X8125602Y9941560D02*
Y10012680D01*
X10773126Y7335520D02*
X10844246D01*
X10808686Y7299960D02*
Y7371080D01*
X10218420Y4493260D02*
X10289540D01*
X10253980Y4457700D02*
Y4528820D01*
X8026400Y7983220D02*
X8097520D01*
X8061960Y7947660D02*
Y8018780D01*
X10162540Y7983220D02*
X10233660D01*
X10198100Y7947660D02*
Y8018780D01*
X5339080Y4175760D02*
X5410200D01*
X5374640Y4140200D02*
Y4211320D01*
X7764780Y9344660D02*
X7835900D01*
X7800340Y9309100D02*
Y9380220D01*
X8013700Y9542780D02*
X8084820D01*
X8049260Y9507220D02*
Y9578340D01*
X6225540Y9154058D02*
X6296660D01*
X6261100Y9118498D02*
Y9189618D01*
X8465820Y9550400D02*
X8536940D01*
X8501380Y9514840D02*
Y9585960D01*
X6779362Y9364980D02*
X6850482D01*
X6814922Y9329420D02*
Y9400540D01*
X8470900Y10050780D02*
X8542020D01*
X8506460Y10015220D02*
Y10086340D01*
X10632440Y10050780D02*
X10703560D01*
X10668000Y10015220D02*
Y10086340D01*
X7599680Y9555480D02*
X7670800D01*
X7635240Y9519920D02*
Y9591040D01*
X10934700Y9479280D02*
X11005820D01*
X10970260Y9443720D02*
Y9514840D01*
X7432040Y9555480D02*
X7503160D01*
X7467600Y9519920D02*
Y9591040D01*
X11996420Y7239000D02*
X12067540D01*
X12031980Y7203440D02*
Y7274560D01*
X6906260Y8526917D02*
X6977380D01*
X6941820Y8491357D02*
Y8562477D01*
X12268200Y6705600D02*
X12339320D01*
X12303760Y6670040D02*
Y6741160D01*
X10251440Y8379460D02*
X10322560D01*
X10287000Y8343900D02*
Y8415020D01*
X7432040Y8382000D02*
X7503160D01*
X7467600Y8346440D02*
Y8417560D01*
X10893699Y7958181D02*
X10964819D01*
X10929259Y7922621D02*
Y7993741D01*
X7612380Y8453120D02*
X7683500D01*
X7647940Y8417560D02*
Y8488680D01*
X7590038Y8013182D02*
X7661158D01*
X7625598Y7977622D02*
Y8048742D01*
X10599420Y7043420D02*
X10670540D01*
X10634980Y7007860D02*
Y7078980D01*
X5026660Y7802880D02*
X5097780D01*
X5062220Y7767320D02*
Y7838440D01*
X7764780Y8620760D02*
X7835900D01*
X7800340Y8585200D02*
Y8656320D01*
X12260580Y10124440D02*
X12331700D01*
X12296140Y10088880D02*
Y10160000D01*
X10411460Y7754620D02*
X10482580D01*
X10447020Y7719060D02*
Y7790180D01*
X7680960Y7754620D02*
X7752080D01*
X7716520Y7719060D02*
Y7790180D01*
X10812780Y7754620D02*
X10883900D01*
X10848340Y7719060D02*
Y7790180D01*
X7592060Y7533640D02*
X7663180D01*
X7627620Y7498080D02*
Y7569200D01*
X5661660Y8102600D02*
X5732780D01*
X5697220Y8067040D02*
Y8138160D01*
X7744460Y7980680D02*
X7815580D01*
X7780020Y7945120D02*
Y8016240D01*
X8788329Y7117187D02*
X8859449D01*
X8823889Y7081627D02*
Y7152747D01*
X10883900Y7101840D02*
X10955020D01*
X10919460Y7066280D02*
Y7137400D01*
X4445000Y9992360D02*
X4516120D01*
X4480560Y9956800D02*
Y10027920D01*
X7409180Y9918700D02*
X7480300D01*
X7444740Y9883140D02*
Y9954260D01*
X12509500Y8061960D02*
X12580620D01*
X12545060Y8026400D02*
Y8097520D01*
X8034020Y9413240D02*
X8105140D01*
X8069580Y9377680D02*
Y9448800D01*
X11648440Y10086340D02*
X11719560D01*
X11684000Y10050780D02*
Y10121900D01*
X7508240Y9291320D02*
X7579360D01*
X7543800Y9255760D02*
Y9326880D01*
X5981700Y4770120D02*
X6052820D01*
X6017260Y4734560D02*
Y4805680D01*
X12903200Y9575800D02*
X12974319D01*
X12938760Y9540240D02*
Y9611360D01*
%TF.MD5,a0cdb493d1572f3ad63bfffd13bb19b9*%
M02*
