%TF.GenerationSoftware,Altium Limited,Altium Designer,26.6.0 (10)*%
G04 Layer_Color=255*
G04 Board_Origin=0|0*
%FSLAX45Y45*%
%MOMM*%
%TF.SameCoordinates,6A3D5CD9-43CD-45B0-B852-C75ABF57ED6A*%
%TF.FilePolarity,Positive*%
%TF.FileFunction,Pads,Bot*%
%TF.Part,Single*%
G01*
G75*
%TA.AperFunction,ComponentPad*%
%ADD25R,1.20000X1.20000*%
%ADD26C,1.20000*%
%ADD27C,1.55000*%
%ADD28R,1.55000X1.55000*%
%ADD29C,1.40000*%
%ADD30R,1.40000X1.40000*%
D25*
X3443300Y7636398D02*
D03*
D26*
X3643300D02*
D03*
D27*
X8585200Y4678502D02*
D03*
X8331200D02*
D03*
X8077200D02*
D03*
X7823200D02*
D03*
X7569200D02*
D03*
X7315200D02*
D03*
X7061200D02*
D03*
X6807200D02*
D03*
X6553200D02*
D03*
Y6878498D02*
D03*
X6807200D02*
D03*
X7061200D02*
D03*
X7315200D02*
D03*
X7569200D02*
D03*
X7823200D02*
D03*
X8077200D02*
D03*
X8331200D02*
D03*
D28*
X8585200D02*
D03*
D29*
X3390900Y8502701D02*
D03*
Y8702700D02*
D03*
Y8902700D02*
D03*
Y9102700D02*
D03*
Y9302699D02*
D03*
X3590900Y8702700D02*
D03*
Y8902700D02*
D03*
Y9102700D02*
D03*
Y9302699D02*
D03*
D30*
Y8502701D02*
D03*
%TF.MD5,1dfca76865eb25fff7c6d06c5bc7b538*%
M02*
