%TF.GenerationSoftware,Altium Limited,Altium Designer,26.6.0 (10)*%
G04 Layer_Color=255*
G04 Board_Origin=0|0*
%FSLAX45Y45*%
%MOMM*%
%TF.SameCoordinates,6A3D5CD9-43CD-45B0-B852-C75ABF57ED6A*%
%TF.FilePolarity,Positive*%
%TF.FileFunction,Pads,Top*%
%TF.Part,Single*%
G01*
G75*
%TA.AperFunction,SMDPad,CuDef*%
%ADD10O,2.10000X0.30000*%
%ADD11O,0.30000X2.10000*%
%ADD12R,0.80000X1.70000*%
%TA.AperFunction,ConnectorPad*%
G04:AMPARAMS|DCode=13|XSize=0.55mm|YSize=0.5mm|CornerRadius=0.0625mm|HoleSize=0mm|Usage=FLASHONLY|Rotation=90.000|XOffset=0mm|YOffset=0mm|HoleType=Round|Shape=RoundedRectangle|*
%AMROUNDEDRECTD13*
21,1,0.55000,0.37500,0,0,90.0*
21,1,0.42500,0.50000,0,0,90.0*
1,1,0.12500,0.18750,0.21250*
1,1,0.12500,0.18750,-0.21250*
1,1,0.12500,-0.18750,-0.21250*
1,1,0.12500,-0.18750,0.21250*
%
%ADD13ROUNDEDRECTD13*%
%ADD14R,1.20000X1.40000*%
%TA.AperFunction,SMDPad,CuDef*%
%ADD15R,0.80000X0.80000*%
G04:AMPARAMS|DCode=16|XSize=0.55mm|YSize=0.5mm|CornerRadius=0.0625mm|HoleSize=0mm|Usage=FLASHONLY|Rotation=180.000|XOffset=0mm|YOffset=0mm|HoleType=Round|Shape=RoundedRectangle|*
%AMROUNDEDRECTD16*
21,1,0.55000,0.37500,0,0,180.0*
21,1,0.42500,0.50000,0,0,180.0*
1,1,0.12500,-0.21250,0.18750*
1,1,0.12500,0.21250,0.18750*
1,1,0.12500,0.21250,-0.18750*
1,1,0.12500,-0.21250,-0.18750*
%
%ADD16ROUNDEDRECTD16*%
%TA.AperFunction,ConnectorPad*%
G04:AMPARAMS|DCode=17|XSize=0.55mm|YSize=0.5mm|CornerRadius=0.0625mm|HoleSize=0mm|Usage=FLASHONLY|Rotation=180.000|XOffset=0mm|YOffset=0mm|HoleType=Round|Shape=RoundedRectangle|*
%AMROUNDEDRECTD17*
21,1,0.55000,0.37500,0,0,180.0*
21,1,0.42500,0.50000,0,0,180.0*
1,1,0.12500,-0.21250,0.18750*
1,1,0.12500,0.21250,0.18750*
1,1,0.12500,0.21250,-0.18750*
1,1,0.12500,-0.21250,-0.18750*
%
%ADD17ROUNDEDRECTD17*%
%TA.AperFunction,SMDPad,CuDef*%
%ADD18R,1.35000X1.85000*%
G04:AMPARAMS|DCode=19|XSize=0.55mm|YSize=0.5mm|CornerRadius=0.0625mm|HoleSize=0mm|Usage=FLASHONLY|Rotation=90.000|XOffset=0mm|YOffset=0mm|HoleType=Round|Shape=RoundedRectangle|*
%AMROUNDEDRECTD19*
21,1,0.55000,0.37500,0,0,90.0*
21,1,0.42500,0.50000,0,0,90.0*
1,1,0.12500,0.18750,0.21250*
1,1,0.12500,0.18750,-0.21250*
1,1,0.12500,-0.18750,-0.21250*
1,1,0.12500,-0.18750,0.21250*
%
%ADD19ROUNDEDRECTD19*%
%ADD20R,1.05000X1.30000*%
%ADD21R,0.90000X1.00000*%
G04:AMPARAMS|DCode=22|XSize=1.3mm|YSize=0.76mm|CornerRadius=0.095mm|HoleSize=0mm|Usage=FLASHONLY|Rotation=90.000|XOffset=0mm|YOffset=0mm|HoleType=Round|Shape=RoundedRectangle|*
%AMROUNDEDRECTD22*
21,1,1.30000,0.57000,0,0,90.0*
21,1,1.11000,0.76000,0,0,90.0*
1,1,0.19000,0.28500,0.55500*
1,1,0.19000,0.28500,-0.55500*
1,1,0.19000,-0.28500,-0.55500*
1,1,0.19000,-0.28500,0.55500*
%
%ADD22ROUNDEDRECTD22*%
%TA.AperFunction,ComponentPad*%
%ADD25R,1.20000X1.20000*%
%ADD26C,1.20000*%
%ADD27C,1.55000*%
%ADD28R,1.55000X1.55000*%
%ADD29C,1.40000*%
%ADD30R,1.40000X1.40000*%
D10*
X7215602Y9566199D02*
D03*
Y9516201D02*
D03*
Y9466199D02*
D03*
Y9416202D02*
D03*
Y9366199D02*
D03*
Y9316202D02*
D03*
Y9266199D02*
D03*
Y9216202D02*
D03*
Y9166200D02*
D03*
Y9116202D02*
D03*
Y9066200D02*
D03*
Y9016202D02*
D03*
Y8966200D02*
D03*
Y8916203D02*
D03*
Y8866200D02*
D03*
Y8816198D02*
D03*
Y8766200D02*
D03*
Y8716198D02*
D03*
Y8666201D02*
D03*
Y8616198D02*
D03*
Y8566201D02*
D03*
Y8516198D02*
D03*
Y8466201D02*
D03*
Y8416199D02*
D03*
Y8366201D02*
D03*
X8735598D02*
D03*
Y8416199D02*
D03*
Y8466201D02*
D03*
Y8516198D02*
D03*
Y8566201D02*
D03*
Y8616198D02*
D03*
Y8666201D02*
D03*
Y8716198D02*
D03*
Y8766200D02*
D03*
Y8816198D02*
D03*
Y8866200D02*
D03*
Y8916203D02*
D03*
Y8966200D02*
D03*
Y9016202D02*
D03*
Y9066200D02*
D03*
Y9116202D02*
D03*
Y9166200D02*
D03*
Y9216202D02*
D03*
Y9266199D02*
D03*
Y9316202D02*
D03*
Y9366199D02*
D03*
Y9416202D02*
D03*
Y9466199D02*
D03*
Y9516201D02*
D03*
Y9566199D02*
D03*
D11*
X7375601Y8206202D02*
D03*
X7425599D02*
D03*
X7475601D02*
D03*
X7525598D02*
D03*
X7575601D02*
D03*
X7625598D02*
D03*
X7675601D02*
D03*
X7725598D02*
D03*
X7775600D02*
D03*
X7825598D02*
D03*
X7875600D02*
D03*
X7925603D02*
D03*
X7975600D02*
D03*
X8025602D02*
D03*
X8075600D02*
D03*
X8125602D02*
D03*
X8175600D02*
D03*
X8225602D02*
D03*
X8275599D02*
D03*
X8325602D02*
D03*
X8375599D02*
D03*
X8425602D02*
D03*
X8475599D02*
D03*
X8525601D02*
D03*
X8575599D02*
D03*
Y9726198D02*
D03*
X8525601D02*
D03*
X8475599D02*
D03*
X8425602D02*
D03*
X8375599D02*
D03*
X8325602D02*
D03*
X8275599D02*
D03*
X8225602D02*
D03*
X8175600D02*
D03*
X8125602D02*
D03*
X8075600D02*
D03*
X8025602D02*
D03*
X7975600D02*
D03*
X7925603D02*
D03*
X7875600D02*
D03*
X7825598D02*
D03*
X7775600D02*
D03*
X7725598D02*
D03*
X7675601D02*
D03*
X7625598D02*
D03*
X7575601D02*
D03*
X7525598D02*
D03*
X7475601D02*
D03*
X7425599D02*
D03*
X7375601D02*
D03*
D12*
X13339902Y10109200D02*
D03*
X12999898D02*
D03*
X12412802Y10121900D02*
D03*
X12072798D02*
D03*
X10533202Y10096500D02*
D03*
X10193198D02*
D03*
X11460302D02*
D03*
X11120298D02*
D03*
D13*
X8452399Y10591800D02*
D03*
X8362401D02*
D03*
X7200900Y10604500D02*
D03*
X7110903D02*
D03*
D14*
X3182798Y6451600D02*
D03*
X3352800D02*
D03*
D15*
X13296890Y5944809D02*
D03*
Y6094806D02*
D03*
X13284190Y6592509D02*
D03*
Y6742506D02*
D03*
X4864100Y6756400D02*
D03*
Y6906402D02*
D03*
X13258791Y7240209D02*
D03*
Y7390206D02*
D03*
D16*
X4254500Y6902999D02*
D03*
Y6813001D02*
D03*
X5118100Y3328502D02*
D03*
Y3238500D02*
D03*
X10744200Y7683500D02*
D03*
Y7593503D02*
D03*
Y8369300D02*
D03*
Y8279303D02*
D03*
X10706100Y7918999D02*
D03*
Y7829001D02*
D03*
X10731500Y8693699D02*
D03*
Y8603701D02*
D03*
X10744200Y7112000D02*
D03*
Y7022003D02*
D03*
D17*
X5448300Y2877099D02*
D03*
Y2787101D02*
D03*
D18*
X11213998Y9499600D02*
D03*
X11519002D02*
D03*
X5816498Y8445500D02*
D03*
X6121502D02*
D03*
X10223398Y9461500D02*
D03*
X10528402D02*
D03*
X12090298Y9474200D02*
D03*
X12395302D02*
D03*
X5854598Y8928100D02*
D03*
X6159602D02*
D03*
X13080898Y9499600D02*
D03*
X13385902D02*
D03*
D19*
X12585700Y6019800D02*
D03*
X12495703D02*
D03*
X7855499Y7480300D02*
D03*
X7765501D02*
D03*
X12585700Y7239000D02*
D03*
X12495703D02*
D03*
X12598400Y6705600D02*
D03*
X12508403D02*
D03*
X7124700Y7531100D02*
D03*
X7034703D02*
D03*
D20*
X3806302Y6438900D02*
D03*
X3661298D02*
D03*
D21*
X7790998Y10401300D02*
D03*
X8001000D02*
D03*
Y10211298D02*
D03*
X7790998D02*
D03*
D22*
X9233002Y7696200D02*
D03*
X9053998D02*
D03*
D25*
X3443300Y7636398D02*
D03*
D26*
X3643300D02*
D03*
D27*
X8585200Y4678502D02*
D03*
X8331200D02*
D03*
X8077200D02*
D03*
X7823200D02*
D03*
X7569200D02*
D03*
X7315200D02*
D03*
X7061200D02*
D03*
X6807200D02*
D03*
X6553200D02*
D03*
Y6878498D02*
D03*
X6807200D02*
D03*
X7061200D02*
D03*
X7315200D02*
D03*
X7569200D02*
D03*
X7823200D02*
D03*
X8077200D02*
D03*
X8331200D02*
D03*
D28*
X8585200D02*
D03*
D29*
X3390900Y8502701D02*
D03*
Y8702700D02*
D03*
Y8902700D02*
D03*
Y9102700D02*
D03*
Y9302699D02*
D03*
X3590900Y8702700D02*
D03*
Y8902700D02*
D03*
Y9102700D02*
D03*
Y9302699D02*
D03*
D30*
Y8502701D02*
D03*
%TF.MD5,3ed5a861264da18dc29b98c62c312f04*%
M02*
