%TF.GenerationSoftware,Altium Limited,Altium Designer,26.6.0 (10)*%
G04 Layer_Color=16711935*
G04 Board_Origin=0|0*
%FSLAX45Y45*%
%MOMM*%
%TF.SameCoordinates,6A3D5CD9-43CD-45B0-B852-C75ABF57ED6A*%
%TF.FilePolarity,Positive*%
%TF.FileFunction,Other,Top_Assembly*%
%TF.Part,Single*%
G01*
G75*
%TA.AperFunction,NonConductor*%
%ADD34C,0.10000*%
%ADD35C,0.20000*%
G36*
X7482569Y5778408D02*
X7483402D01*
X7484326Y5778316D01*
X7485436Y5778223D01*
X7487747Y5777854D01*
X7490151Y5777484D01*
X7492555Y5776837D01*
X7494866Y5776004D01*
X7494959D01*
X7495144Y5775912D01*
X7495421Y5775727D01*
X7495791Y5775542D01*
X7496900Y5774987D01*
X7498195Y5774155D01*
X7499674Y5773046D01*
X7501246Y5771751D01*
X7502725Y5770180D01*
X7504112Y5768423D01*
Y5768331D01*
X7504297Y5768146D01*
X7504389Y5767868D01*
X7504666Y5767498D01*
X7504851Y5767036D01*
X7505129Y5766481D01*
X7505776Y5765095D01*
X7506423Y5763338D01*
X7506978Y5761396D01*
X7507348Y5759177D01*
X7507533Y5756866D01*
X7499581Y5756126D01*
Y5756219D01*
Y5756311D01*
X7499489Y5756589D01*
Y5756959D01*
X7499304Y5757791D01*
X7499027Y5758993D01*
X7498657Y5760194D01*
X7498287Y5761581D01*
X7497640Y5762876D01*
X7496993Y5764078D01*
X7496900Y5764170D01*
X7496623Y5764540D01*
X7496161Y5765187D01*
X7495421Y5765834D01*
X7494496Y5766666D01*
X7493479Y5767498D01*
X7492092Y5768331D01*
X7490613Y5769070D01*
X7490521D01*
X7490428Y5769163D01*
X7490151Y5769255D01*
X7489874Y5769348D01*
X7488949Y5769625D01*
X7487747Y5769995D01*
X7486268Y5770365D01*
X7484604Y5770642D01*
X7482754Y5770827D01*
X7480720Y5770919D01*
X7479888D01*
X7478964Y5770827D01*
X7477854Y5770734D01*
X7476560Y5770550D01*
X7475081Y5770365D01*
X7473601Y5769995D01*
X7472214Y5769533D01*
X7472030Y5769440D01*
X7471567Y5769255D01*
X7470920Y5768885D01*
X7470088Y5768516D01*
X7469256Y5767868D01*
X7468331Y5767221D01*
X7467407Y5766481D01*
X7466667Y5765557D01*
X7466575Y5765464D01*
X7466390Y5765095D01*
X7466112Y5764632D01*
X7465742Y5763893D01*
X7465373Y5763153D01*
X7465095Y5762229D01*
X7464910Y5761211D01*
X7464818Y5760102D01*
Y5760010D01*
Y5759547D01*
X7464910Y5758993D01*
X7465003Y5758253D01*
X7465280Y5757513D01*
X7465558Y5756589D01*
X7466020Y5755664D01*
X7466667Y5754832D01*
X7466760Y5754740D01*
X7467037Y5754462D01*
X7467407Y5754092D01*
X7468054Y5753538D01*
X7468794Y5752983D01*
X7469811Y5752336D01*
X7471012Y5751689D01*
X7472399Y5751134D01*
X7472492Y5751041D01*
X7472954Y5750949D01*
X7473694Y5750672D01*
X7474156Y5750579D01*
X7474803Y5750394D01*
X7475450Y5750117D01*
X7476282Y5749932D01*
X7477207Y5749654D01*
X7478317Y5749377D01*
X7479426Y5749100D01*
X7480720Y5748730D01*
X7482200Y5748360D01*
X7483771Y5747990D01*
X7483864D01*
X7484141Y5747898D01*
X7484604Y5747805D01*
X7485158Y5747620D01*
X7485898Y5747436D01*
X7486730Y5747251D01*
X7488579Y5746696D01*
X7490613Y5746049D01*
X7492740Y5745402D01*
X7494589Y5744754D01*
X7495421Y5744384D01*
X7496161Y5744015D01*
X7496253D01*
X7496345Y5743922D01*
X7496900Y5743552D01*
X7497732Y5743090D01*
X7498657Y5742350D01*
X7499766Y5741518D01*
X7500876Y5740501D01*
X7501985Y5739299D01*
X7502910Y5738005D01*
X7503002Y5737820D01*
X7503280Y5737358D01*
X7503649Y5736618D01*
X7504019Y5735694D01*
X7504389Y5734492D01*
X7504759Y5733105D01*
X7505036Y5731626D01*
X7505129Y5730054D01*
Y5729961D01*
Y5729869D01*
Y5729592D01*
Y5729222D01*
X7504944Y5728297D01*
X7504759Y5727095D01*
X7504482Y5725708D01*
X7504019Y5724137D01*
X7503372Y5722565D01*
X7502448Y5720993D01*
Y5720901D01*
X7502355Y5720808D01*
X7501893Y5720253D01*
X7501246Y5719514D01*
X7500413Y5718589D01*
X7499304Y5717572D01*
X7497917Y5716463D01*
X7496253Y5715446D01*
X7494404Y5714521D01*
X7494311D01*
X7494126Y5714429D01*
X7493849Y5714336D01*
X7493479Y5714151D01*
X7493017Y5713966D01*
X7492370Y5713782D01*
X7490983Y5713412D01*
X7489226Y5713042D01*
X7487192Y5712672D01*
X7485066Y5712395D01*
X7482662Y5712302D01*
X7481460D01*
X7480813Y5712395D01*
X7480166D01*
X7478409Y5712580D01*
X7476467Y5712857D01*
X7474433Y5713319D01*
X7472214Y5713874D01*
X7470180Y5714614D01*
X7470088D01*
X7469903Y5714706D01*
X7469626Y5714891D01*
X7469256Y5715076D01*
X7468331Y5715538D01*
X7467129Y5716370D01*
X7465742Y5717295D01*
X7464356Y5718497D01*
X7463061Y5719884D01*
X7461859Y5721455D01*
Y5721548D01*
X7461767Y5721640D01*
X7461582Y5721918D01*
X7461397Y5722195D01*
X7460935Y5723120D01*
X7460380Y5724322D01*
X7459733Y5725801D01*
X7459271Y5727558D01*
X7458808Y5729407D01*
X7458623Y5731441D01*
X7466760Y5732088D01*
Y5731995D01*
Y5731810D01*
X7466852Y5731533D01*
X7466944Y5731071D01*
X7467222Y5730054D01*
X7467592Y5728667D01*
X7468146Y5727188D01*
X7468978Y5725708D01*
X7469995Y5724322D01*
X7471290Y5723027D01*
X7471475Y5722935D01*
X7471937Y5722565D01*
X7472862Y5722010D01*
X7474064Y5721455D01*
X7475635Y5720901D01*
X7477484Y5720346D01*
X7479796Y5719976D01*
X7482385Y5719884D01*
X7483679D01*
X7484234Y5719976D01*
X7484973Y5720069D01*
X7486638Y5720253D01*
X7488487Y5720623D01*
X7490336Y5721086D01*
X7492092Y5721825D01*
X7492832Y5722288D01*
X7493572Y5722750D01*
X7493757Y5722842D01*
X7494126Y5723212D01*
X7494681Y5723859D01*
X7495236Y5724599D01*
X7495883Y5725616D01*
X7496438Y5726725D01*
X7496808Y5728020D01*
X7496993Y5729499D01*
Y5729684D01*
Y5730054D01*
X7496900Y5730701D01*
X7496715Y5731441D01*
X7496438Y5732365D01*
X7495976Y5733290D01*
X7495421Y5734214D01*
X7494589Y5735139D01*
X7494496Y5735231D01*
X7494034Y5735509D01*
X7493664Y5735786D01*
X7493294Y5735971D01*
X7492740Y5736248D01*
X7492092Y5736618D01*
X7491260Y5736896D01*
X7490336Y5737265D01*
X7489319Y5737635D01*
X7488117Y5738097D01*
X7486822Y5738467D01*
X7485343Y5738930D01*
X7483679Y5739299D01*
X7481830Y5739762D01*
X7481737D01*
X7481368Y5739854D01*
X7480813Y5739947D01*
X7480166Y5740132D01*
X7479334Y5740316D01*
X7478317Y5740594D01*
X7477299Y5740871D01*
X7476190Y5741149D01*
X7473786Y5741796D01*
X7471475Y5742443D01*
X7470365Y5742813D01*
X7469348Y5743183D01*
X7468424Y5743460D01*
X7467684Y5743830D01*
X7467592D01*
X7467407Y5743922D01*
X7467129Y5744107D01*
X7466760Y5744292D01*
X7465742Y5744847D01*
X7464541Y5745586D01*
X7463154Y5746603D01*
X7461767Y5747713D01*
X7460473Y5749007D01*
X7459363Y5750394D01*
X7459271Y5750579D01*
X7458901Y5751041D01*
X7458531Y5751873D01*
X7457976Y5752983D01*
X7457514Y5754277D01*
X7457052Y5755849D01*
X7456774Y5757606D01*
X7456682Y5759455D01*
Y5759547D01*
Y5759640D01*
Y5759917D01*
Y5760287D01*
X7456867Y5761304D01*
X7457052Y5762598D01*
X7457421Y5764078D01*
X7457884Y5765649D01*
X7458623Y5767314D01*
X7459640Y5769070D01*
Y5769163D01*
X7459733Y5769255D01*
X7460195Y5769810D01*
X7460842Y5770642D01*
X7461767Y5771567D01*
X7462969Y5772676D01*
X7464448Y5773878D01*
X7466112Y5774987D01*
X7468054Y5776004D01*
X7468146D01*
X7468331Y5776097D01*
X7468609Y5776189D01*
X7468978Y5776374D01*
X7469533Y5776559D01*
X7470180Y5776837D01*
X7471660Y5777206D01*
X7473416Y5777669D01*
X7475543Y5778131D01*
X7477854Y5778408D01*
X7480351Y5778501D01*
X7481830D01*
X7482569Y5778408D01*
D02*
G37*
G36*
X7569201Y5713412D02*
X7544607D01*
X7542943Y5713504D01*
X7541094Y5713597D01*
X7539245Y5713782D01*
X7537396Y5714059D01*
X7535824Y5714336D01*
X7535732D01*
X7535547Y5714429D01*
X7535269D01*
X7534900Y5714614D01*
X7533883Y5714891D01*
X7532588Y5715353D01*
X7531109Y5716001D01*
X7529537Y5716833D01*
X7527965Y5717757D01*
X7526486Y5718959D01*
X7526394Y5719052D01*
X7526301Y5719144D01*
X7526024Y5719421D01*
X7525654Y5719699D01*
X7524729Y5720623D01*
X7523620Y5721918D01*
X7522418Y5723489D01*
X7521124Y5725339D01*
X7519922Y5727465D01*
X7518905Y5729869D01*
Y5729961D01*
X7518812Y5730146D01*
X7518627Y5730516D01*
X7518535Y5731071D01*
X7518258Y5731718D01*
X7518073Y5732458D01*
X7517888Y5733290D01*
X7517610Y5734307D01*
X7517333Y5735324D01*
X7517148Y5736526D01*
X7516686Y5739115D01*
X7516408Y5741981D01*
X7516316Y5745124D01*
Y5745217D01*
Y5745402D01*
Y5745864D01*
Y5746326D01*
X7516408Y5746973D01*
Y5747713D01*
X7516501Y5749470D01*
X7516778Y5751504D01*
X7517056Y5753630D01*
X7517518Y5755849D01*
X7518073Y5758068D01*
Y5758160D01*
X7518165Y5758345D01*
X7518258Y5758623D01*
X7518350Y5758993D01*
X7518720Y5760010D01*
X7519275Y5761304D01*
X7519829Y5762783D01*
X7520569Y5764263D01*
X7521493Y5765834D01*
X7522418Y5767314D01*
X7522510Y5767498D01*
X7522880Y5767961D01*
X7523435Y5768608D01*
X7524175Y5769440D01*
X7525007Y5770365D01*
X7526024Y5771289D01*
X7527041Y5772306D01*
X7528243Y5773138D01*
X7528428Y5773231D01*
X7528797Y5773508D01*
X7529445Y5773878D01*
X7530369Y5774340D01*
X7531479Y5774895D01*
X7532773Y5775357D01*
X7534252Y5775912D01*
X7535917Y5776374D01*
X7536102D01*
X7536379Y5776467D01*
X7536656Y5776559D01*
X7537581Y5776652D01*
X7538875Y5776837D01*
X7540354Y5777021D01*
X7542111Y5777206D01*
X7544053Y5777299D01*
X7546179Y5777391D01*
X7569201D01*
Y5713412D01*
D02*
G37*
G36*
X7423120Y5762044D02*
X7450950D01*
Y5754832D01*
X7421641Y5713412D01*
X7415262D01*
Y5754832D01*
X7406571D01*
Y5762044D01*
X7415262D01*
Y5777391D01*
X7423120D01*
Y5762044D01*
D02*
G37*
G36*
X7929190Y10333388D02*
Y10306299D01*
X7920684D01*
Y10333388D01*
X7895999Y10370278D01*
X7906261D01*
X7918835Y10350862D01*
Y10350770D01*
X7919020Y10350585D01*
X7919205Y10350308D01*
X7919483Y10349938D01*
X7919760Y10349476D01*
X7920130Y10348921D01*
X7921054Y10347534D01*
X7922071Y10345870D01*
X7923088Y10344021D01*
X7924290Y10342079D01*
X7925400Y10340045D01*
Y10340138D01*
X7925492Y10340322D01*
X7925677Y10340600D01*
X7925954Y10340970D01*
X7926232Y10341432D01*
X7926602Y10341987D01*
X7927434Y10343374D01*
X7928451Y10345038D01*
X7929653Y10346979D01*
X7931040Y10349106D01*
X7932519Y10351417D01*
X7944815Y10370278D01*
X7954708D01*
X7929190Y10333388D01*
D02*
G37*
G36*
X7988732Y10306299D02*
X7980873D01*
Y10356317D01*
X7980781Y10356225D01*
X7980319Y10355855D01*
X7979764Y10355300D01*
X7978839Y10354653D01*
X7977822Y10353821D01*
X7976528Y10352896D01*
X7975049Y10351879D01*
X7973384Y10350862D01*
X7973292D01*
X7973199Y10350770D01*
X7972645Y10350400D01*
X7971720Y10349938D01*
X7970611Y10349383D01*
X7969316Y10348736D01*
X7967929Y10348089D01*
X7966543Y10347442D01*
X7965156Y10346887D01*
Y10354468D01*
X7965248D01*
X7965433Y10354653D01*
X7965803Y10354746D01*
X7966265Y10355023D01*
X7966820Y10355300D01*
X7967467Y10355670D01*
X7969039Y10356595D01*
X7970888Y10357612D01*
X7972737Y10358906D01*
X7974679Y10360385D01*
X7976620Y10361957D01*
X7976713Y10362050D01*
X7976805Y10362142D01*
X7977083Y10362419D01*
X7977452Y10362697D01*
X7978285Y10363621D01*
X7979394Y10364731D01*
X7980503Y10366025D01*
X7981705Y10367505D01*
X7982722Y10368984D01*
X7983647Y10370556D01*
X7988732D01*
Y10306299D01*
D02*
G37*
%LPC*%
G36*
X7560695Y5769810D02*
X7545532D01*
X7544885Y5769717D01*
X7543498Y5769625D01*
X7541926Y5769533D01*
X7540262Y5769348D01*
X7538598Y5769070D01*
X7537211Y5768700D01*
X7537026Y5768608D01*
X7536564Y5768516D01*
X7535917Y5768238D01*
X7535084Y5767868D01*
X7534160Y5767314D01*
X7533235Y5766759D01*
X7532311Y5766112D01*
X7531386Y5765372D01*
X7531294Y5765187D01*
X7530924Y5764817D01*
X7530369Y5764170D01*
X7529722Y5763246D01*
X7528982Y5762044D01*
X7528150Y5760657D01*
X7527411Y5759085D01*
X7526763Y5757328D01*
Y5757236D01*
X7526671Y5757051D01*
X7526579Y5756774D01*
X7526486Y5756404D01*
X7526394Y5755941D01*
X7526209Y5755294D01*
X7526024Y5754647D01*
X7525839Y5753907D01*
X7525562Y5752058D01*
X7525284Y5749932D01*
X7525099Y5747528D01*
X7525007Y5744939D01*
Y5744847D01*
Y5744477D01*
Y5744015D01*
X7525099Y5743275D01*
Y5742443D01*
X7525192Y5741518D01*
X7525284Y5740409D01*
X7525377Y5739299D01*
X7525839Y5736803D01*
X7526394Y5734214D01*
X7527226Y5731810D01*
X7527780Y5730609D01*
X7528335Y5729592D01*
Y5729499D01*
X7528520Y5729314D01*
X7528705Y5729037D01*
X7528890Y5728667D01*
X7529630Y5727742D01*
X7530554Y5726633D01*
X7531756Y5725431D01*
X7533143Y5724229D01*
X7534715Y5723212D01*
X7536379Y5722380D01*
X7536564Y5722288D01*
X7537026Y5722195D01*
X7537858Y5721918D01*
X7539060Y5721640D01*
X7540539Y5721455D01*
X7542389Y5721178D01*
X7543498Y5721086D01*
X7544700D01*
X7545902Y5720993D01*
X7560695D01*
Y5769810D01*
D02*
G37*
G36*
X7443276Y5754832D02*
X7423120D01*
Y5726171D01*
X7443276Y5754832D01*
D02*
G37*
%LPD*%
D34*
X7415600Y9576200D02*
G03*
X7415600Y9576200I-50000J0D01*
G01*
X3838321Y7011426D02*
Y7771430D01*
X3248320Y7011426D02*
X3838321D01*
X3248294Y7011406D02*
Y7771430D01*
X3248320D02*
X3348269D01*
X3348294Y7771404D01*
Y7611405D02*
Y7771404D01*
X3738301D02*
X3838301D01*
X3738301Y7611405D02*
Y7771404D01*
X3348294Y7611405D02*
X3738301D01*
X7275601Y8266201D02*
Y9666199D01*
X8675599Y8266201D02*
Y9666199D01*
X7275601D02*
X8675599D01*
X7275601Y8266201D02*
X8675599D01*
X13369901Y9914199D02*
Y10234198D01*
X12969901Y9914199D02*
X13369901D01*
X12969901Y10234198D02*
X13369901D01*
X12969901Y9914199D02*
Y10234198D01*
X8352399Y10561803D02*
X8462401D01*
X8352399Y10621802D02*
X8462401D01*
Y10561803D02*
Y10621802D01*
X8352399Y10561803D02*
Y10621802D01*
X12442800Y9926899D02*
Y10246898D01*
X12042800Y9926899D02*
X12442800D01*
X12042800Y10246898D02*
X12442800D01*
X12042800Y9926899D02*
Y10246898D01*
X3162798Y6384102D02*
Y6519098D01*
X3372800Y6384102D02*
Y6519098D01*
X3162798D02*
X3372800D01*
X3162798Y6384102D02*
X3372800D01*
X13256889Y5939810D02*
Y6099810D01*
X13336890Y5939810D02*
Y6099810D01*
X13256889Y5939810D02*
X13336890D01*
X13256889Y6099810D02*
X13336890D01*
X4281998Y6805498D02*
Y6910502D01*
X4227002Y6805498D02*
Y6910502D01*
X4281998D01*
X4227002Y6805498D02*
X4281998D01*
X5475798Y2779598D02*
Y2884602D01*
X5420802Y2779598D02*
Y2884602D01*
X5475798D01*
X5420802Y2779598D02*
X5475798D01*
X5145598Y3231002D02*
Y3336000D01*
X5090602Y3231002D02*
Y3336000D01*
X5145598D01*
X5090602Y3231002D02*
X5145598D01*
X11201502Y9412102D02*
Y9587098D01*
X11531498Y9412102D02*
Y9587098D01*
X11201502D02*
X11531498D01*
X11201502Y9412102D02*
X11531498D01*
X13244189Y6587510D02*
Y6747510D01*
X13324190Y6587510D02*
Y6747510D01*
X13244189Y6587510D02*
X13324190D01*
X13244189Y6747510D02*
X13324190D01*
X12488200Y5992302D02*
X12593198D01*
X12488200Y6047298D02*
X12593198D01*
Y5992302D02*
Y6047298D01*
X12488200Y5992302D02*
Y6047298D01*
X10771698Y7586000D02*
Y7690998D01*
X10716702Y7586000D02*
Y7690998D01*
X10771698D01*
X10716702Y7586000D02*
X10771698D01*
Y8271800D02*
Y8376798D01*
X10716702Y8271800D02*
Y8376798D01*
X10771698D01*
X10716702Y8271800D02*
X10771698D01*
X4824100Y6751401D02*
Y6911401D01*
X4904100Y6751401D02*
Y6911401D01*
X4824100Y6751401D02*
X4904100D01*
X4824100Y6911401D02*
X4904100D01*
X7755499Y7450303D02*
X7865501D01*
X7755499Y7510302D02*
X7865501D01*
Y7450303D02*
Y7510302D01*
X7755499Y7450303D02*
Y7510302D01*
X5804002Y8358002D02*
Y8532998D01*
X6133998Y8358002D02*
Y8532998D01*
X5804002D02*
X6133998D01*
X5804002Y8358002D02*
X6133998D01*
X10563200Y9901499D02*
Y10221498D01*
X10163200Y9901499D02*
X10563200D01*
X10163200Y10221498D02*
X10563200D01*
X10163200Y9901499D02*
Y10221498D01*
X10210902Y9374002D02*
Y9548998D01*
X10540898Y9374002D02*
Y9548998D01*
X10210902D02*
X10540898D01*
X10210902Y9374002D02*
X10540898D01*
X12077802Y9386702D02*
Y9561698D01*
X12407798Y9386702D02*
Y9561698D01*
X12077802D02*
X12407798D01*
X12077802Y9386702D02*
X12407798D01*
X11490300Y9901499D02*
Y10221498D01*
X11090300Y9901499D02*
X11490300D01*
X11090300Y10221498D02*
X11490300D01*
X11090300Y9901499D02*
Y10221498D01*
X5842102Y8840602D02*
Y9015598D01*
X6172098Y8840602D02*
Y9015598D01*
X5842102D02*
X6172098D01*
X5842102Y8840602D02*
X6172098D01*
X12488200Y7211502D02*
X12593198D01*
X12488200Y7266498D02*
X12593198D01*
Y7211502D02*
Y7266498D01*
X12488200Y7211502D02*
Y7266498D01*
X12500900Y6678102D02*
X12605898D01*
X12500900Y6733098D02*
X12605898D01*
Y6678102D02*
Y6733098D01*
X12500900Y6678102D02*
Y6733098D01*
X13218790Y7235210D02*
Y7395210D01*
X13298790Y7235210D02*
Y7395210D01*
X13218790Y7235210D02*
X13298790D01*
X13218790Y7395210D02*
X13298790D01*
X10733598Y7821498D02*
Y7926502D01*
X10678602Y7821498D02*
Y7926502D01*
X10733598D01*
X10678602Y7821498D02*
X10733598D01*
X7024700Y7501103D02*
X7134703D01*
X7024700Y7561102D02*
X7134703D01*
Y7501103D02*
Y7561102D01*
X7024700Y7501103D02*
Y7561102D01*
X3628801Y6371402D02*
X3838799D01*
X3628801Y6506398D02*
X3838799D01*
Y6371402D02*
Y6506398D01*
X3628801Y6371402D02*
Y6506398D01*
X3290900Y9415201D02*
X3690899D01*
Y8390199D02*
Y9415201D01*
X3290900Y8390199D02*
X3690899D01*
X3290900D02*
Y9415201D01*
X13068402Y9412102D02*
Y9587098D01*
X13398398Y9412102D02*
Y9587098D01*
X13068402D02*
X13398398D01*
X13068402Y9412102D02*
X13398398D01*
X7100900Y10574503D02*
X7210903D01*
X7100900Y10634502D02*
X7210903D01*
Y10574503D02*
Y10634502D01*
X7100900Y10574503D02*
Y10634502D01*
X9034003Y7623698D02*
X9254002D01*
X9034003Y7768702D02*
X9254002D01*
Y7623698D02*
Y7768702D01*
X9034003Y7623698D02*
Y7768702D01*
X10758998Y8596198D02*
Y8701202D01*
X10704002Y8596198D02*
Y8701202D01*
X10758998D01*
X10704002Y8596198D02*
X10758998D01*
X10771698Y7014500D02*
Y7119498D01*
X10716702Y7014500D02*
Y7119498D01*
X10771698D01*
X10716702Y7014500D02*
X10771698D01*
D35*
X9381698Y4463501D02*
Y7093499D01*
X5756702D02*
X9381698D01*
X5756702Y4463501D02*
Y7093499D01*
Y4463501D02*
X9381698D01*
X7723500Y10151298D02*
Y10461300D01*
Y10151298D02*
X8068498D01*
Y10461300D01*
X7723500D02*
X8068498D01*
%TF.MD5,1f4bc0bfc7d6797cd5276b934671e31c*%
M02*
