%TF.GenerationSoftware,Altium Limited,Altium Designer,26.6.0 (10)*%
G04 Layer_Color=65535*
G04 Board_Origin=0|0*
%FSLAX45Y45*%
%MOMM*%
%TF.SameCoordinates,6A3D5CD9-43CD-45B0-B852-C75ABF57ED6A*%
%TF.FilePolarity,Positive*%
%TF.FileFunction,Legend,Top*%
%TF.Part,Single*%
G01*
G75*
%TA.AperFunction,NonConductor*%
%ADD32C,0.25000*%
%ADD33C,0.60000*%
%ADD34C,0.10000*%
%ADD35C,0.20000*%
%ADD36C,0.15000*%
%ADD37C,0.40000*%
%ADD38C,0.25400*%
D32*
X3454200Y7814200D02*
G03*
X3454200Y7814200I-12500J0D01*
G01*
X7228100Y9636200D02*
G03*
X7228100Y9636200I-12500J0D01*
G01*
X9444200Y6878500D02*
G03*
X9444200Y6878500I-12500J0D01*
G01*
X7803500Y10106300D02*
G03*
X7803500Y10106300I-12500J0D01*
G01*
D33*
X7490600Y9481200D02*
G03*
X7490600Y9481200I-30000J0D01*
G01*
D34*
X12924899Y10109200D02*
G03*
X12924899Y10109200I-5000J0D01*
G01*
X11997800Y10121900D02*
G03*
X11997800Y10121900I-5000J0D01*
G01*
X10118200Y10096500D02*
G03*
X10118200Y10096500I-5000J0D01*
G01*
X11045300D02*
G03*
X11045300Y10096500I-5000J0D01*
G01*
D35*
X3738301Y7771404D02*
X3838301D01*
X3838321Y7011426D02*
Y7771430D01*
X3248294Y7011406D02*
X3838301D01*
X3248294Y7771404D02*
X3348299D01*
X3248294Y7011406D02*
Y7771404D01*
X7360600Y8351200D02*
Y9581200D01*
X8590600Y8351200D02*
Y9581200D01*
X7360600D02*
X8590600D01*
X7360600Y8351200D02*
X8590600D01*
X12969901Y9914199D02*
Y9984202D01*
Y9914199D02*
X13369901D01*
Y9984202D01*
X12969901Y10234198D02*
X13369901D01*
X12042800Y9926899D02*
Y9996902D01*
Y9926899D02*
X12442800D01*
Y9996902D01*
X12042800Y10246898D02*
X12442800D01*
X11321501Y9582099D02*
X11411499D01*
X11321501Y9417101D02*
X11411499D01*
X5924001Y8527999D02*
X6013999D01*
X5924001Y8363001D02*
X6013999D01*
X10163200Y9901499D02*
Y9971502D01*
Y9901499D02*
X10563200D01*
Y9971502D01*
X10163200Y10221498D02*
X10563200D01*
X10330901Y9543999D02*
X10420899D01*
X10330901Y9379001D02*
X10420899D01*
X12197801Y9556699D02*
X12287799D01*
X12197801Y9391701D02*
X12287799D01*
X11090300Y9901499D02*
Y9971502D01*
Y9901499D02*
X11490300D01*
Y9971502D01*
X11090300Y10221498D02*
X11490300D01*
X5962101Y9010599D02*
X6052099D01*
X5962101Y8845601D02*
X6052099D01*
X9371701Y4473499D02*
Y7083501D01*
X5766699D02*
X9371701D01*
X5766699Y4473499D02*
Y7083501D01*
Y4473499D02*
X9371701D01*
X3280898Y9415201D02*
X3700902D01*
Y8390199D02*
Y9415201D01*
X3280898Y8390199D02*
X3700902D01*
X3280898D02*
Y9415201D01*
X13188400Y9582099D02*
X13278400D01*
X13188400Y9417101D02*
X13278400D01*
X7703500Y10178801D02*
Y10433802D01*
X7873502Y10178801D02*
X7918501D01*
X8088498D02*
Y10433802D01*
X7873502D02*
X7918501D01*
D36*
X8407400Y10571800D02*
Y10611800D01*
X4234500Y6858000D02*
X4274500D01*
X5428300Y2832100D02*
X5468300D01*
X5098100Y3283499D02*
X5138100D01*
X12540701Y5999800D02*
Y6039800D01*
X10724200Y7638501D02*
X10764200D01*
X10724200Y8324301D02*
X10764200D01*
X7810500Y7460300D02*
Y7500300D01*
X12540701Y7219000D02*
Y7259000D01*
X12553401Y6685600D02*
Y6725600D01*
X10686100Y7874000D02*
X10726100D01*
X7079701Y7511100D02*
Y7551100D01*
X7155901Y10584500D02*
Y10624500D01*
X9114003Y7751201D02*
X9174002D01*
X9114003Y7641199D02*
X9174002D01*
X10711500Y8648700D02*
X10751500D01*
X10724200Y7067001D02*
X10764200D01*
D37*
X13256889Y6184809D02*
X13336890D01*
X13244189Y6832509D02*
X13324190D01*
X4824100Y6996400D02*
X4904100D01*
X13218790Y7480209D02*
X13298790D01*
D38*
X3261360Y7914640D02*
Y8066991D01*
X3337535D01*
X3362927Y8041599D01*
Y7990815D01*
X3337535Y7965423D01*
X3261360D01*
X3515278Y7914640D02*
X3413711D01*
X3515278Y8016207D01*
Y8041599D01*
X3489886Y8066991D01*
X3439103D01*
X3413711Y8041599D01*
X7084060Y10111691D02*
Y9984732D01*
X7109452Y9959340D01*
X7160235D01*
X7185627Y9984732D01*
Y10111691D01*
X7236411Y9959340D02*
X7287194D01*
X7261803D01*
Y10111691D01*
X7236411Y10086299D01*
X13037787Y10449519D02*
X13012395Y10474911D01*
X12961612D01*
X12936220Y10449519D01*
Y10424127D01*
X12961612Y10398735D01*
X13012395D01*
X13037787Y10373343D01*
Y10347952D01*
X13012395Y10322560D01*
X12961612D01*
X12936220Y10347952D01*
X13088571Y10474911D02*
Y10322560D01*
X13139354Y10373343D01*
X13190138Y10322560D01*
Y10474911D01*
X13317097Y10322560D02*
Y10474911D01*
X13240921Y10398735D01*
X13342490D01*
X8442927Y10843219D02*
X8417535Y10868611D01*
X8366752D01*
X8341360Y10843219D01*
Y10741652D01*
X8366752Y10716260D01*
X8417535D01*
X8442927Y10741652D01*
X8595278Y10716260D02*
X8493711D01*
X8595278Y10817827D01*
Y10843219D01*
X8569886Y10868611D01*
X8519103D01*
X8493711Y10843219D01*
X12110687Y10462219D02*
X12085295Y10487611D01*
X12034512D01*
X12009120Y10462219D01*
Y10436827D01*
X12034512Y10411435D01*
X12085295D01*
X12110687Y10386043D01*
Y10360652D01*
X12085295Y10335260D01*
X12034512D01*
X12009120Y10360652D01*
X12161471Y10487611D02*
Y10335260D01*
X12212254Y10386043D01*
X12263038Y10335260D01*
Y10487611D01*
X12313821Y10462219D02*
X12339213Y10487611D01*
X12389997D01*
X12415389Y10462219D01*
Y10436827D01*
X12389997Y10411435D01*
X12364605D01*
X12389997D01*
X12415389Y10386043D01*
Y10360652D01*
X12389997Y10335260D01*
X12339213D01*
X12313821Y10360652D01*
X3223227Y6751279D02*
X3197835Y6776671D01*
X3147052D01*
X3121660Y6751279D01*
Y6649712D01*
X3147052Y6624320D01*
X3197835D01*
X3223227Y6649712D01*
X3375578Y6776671D02*
X3324794Y6751279D01*
X3274011Y6700495D01*
Y6649712D01*
X3299403Y6624320D01*
X3350186D01*
X3375578Y6649712D01*
Y6675103D01*
X3350186Y6700495D01*
X3274011D01*
X13261340Y6433771D02*
Y6281420D01*
X13337515D01*
X13362907Y6306812D01*
Y6408379D01*
X13337515Y6433771D01*
X13261340D01*
X13515257Y6408379D02*
X13489867Y6433771D01*
X13439082D01*
X13413692Y6408379D01*
Y6382987D01*
X13439082Y6357595D01*
X13489867D01*
X13515257Y6332203D01*
Y6306812D01*
X13489867Y6281420D01*
X13439082D01*
X13413692Y6306812D01*
X13566042Y6408379D02*
X13591434Y6433771D01*
X13642216D01*
X13667609Y6408379D01*
Y6382987D01*
X13642216Y6357595D01*
X13616824D01*
X13642216D01*
X13667609Y6332203D01*
Y6306812D01*
X13642216Y6281420D01*
X13591434D01*
X13566042Y6306812D01*
X4231640Y7020560D02*
Y7172911D01*
X4307815D01*
X4333207Y7147519D01*
Y7096735D01*
X4307815Y7071343D01*
X4231640D01*
X4282423D02*
X4333207Y7020560D01*
X4383991D02*
X4434774D01*
X4409383D01*
Y7172911D01*
X4383991Y7147519D01*
X4510950Y7172911D02*
X4612517D01*
Y7147519D01*
X4510950Y7045952D01*
Y7020560D01*
X5425440Y2994660D02*
Y3147011D01*
X5501615D01*
X5527007Y3121619D01*
Y3070835D01*
X5501615Y3045443D01*
X5425440D01*
X5476223D02*
X5527007Y2994660D01*
X5577791D02*
X5628574D01*
X5603183D01*
Y3147011D01*
X5577791Y3121619D01*
X5806317Y3147011D02*
X5755533Y3121619D01*
X5704750Y3070835D01*
Y3020052D01*
X5730141Y2994660D01*
X5780925D01*
X5806317Y3020052D01*
Y3045443D01*
X5780925Y3070835D01*
X5704750D01*
X5095240Y3446780D02*
Y3599131D01*
X5171415D01*
X5196807Y3573739D01*
Y3522955D01*
X5171415Y3497563D01*
X5095240D01*
X5146023D02*
X5196807Y3446780D01*
X5247591D02*
X5298374D01*
X5272983D01*
Y3599131D01*
X5247591Y3573739D01*
X5476117Y3599131D02*
X5374550D01*
Y3522955D01*
X5425333Y3548347D01*
X5450725D01*
X5476117Y3522955D01*
Y3472172D01*
X5450725Y3446780D01*
X5399941D01*
X5374550Y3472172D01*
X11112541Y9715525D02*
Y9867875D01*
X11188717D01*
X11214108Y9842483D01*
Y9791700D01*
X11188717Y9766308D01*
X11112541D01*
X11163325D02*
X11214108Y9715525D01*
X11341067D02*
Y9867875D01*
X11264892Y9791700D01*
X11366459D01*
X13248640Y7081471D02*
Y6929120D01*
X13324815D01*
X13350208Y6954512D01*
Y7056079D01*
X13324815Y7081471D01*
X13248640D01*
X13502557Y7056079D02*
X13477167Y7081471D01*
X13426382D01*
X13400990Y7056079D01*
Y7030687D01*
X13426382Y7005295D01*
X13477167D01*
X13502557Y6979903D01*
Y6954512D01*
X13477167Y6929120D01*
X13426382D01*
X13400990Y6954512D01*
X13654909Y6929120D02*
X13553342D01*
X13654909Y7030687D01*
Y7056079D01*
X13629517Y7081471D01*
X13578732D01*
X13553342Y7056079D01*
X12479020Y6144260D02*
Y6296611D01*
X12555195D01*
X12580587Y6271219D01*
Y6220435D01*
X12555195Y6195043D01*
X12479020D01*
X12529803D02*
X12580587Y6144260D01*
X12631371Y6169652D02*
X12656763Y6144260D01*
X12707546D01*
X12732938Y6169652D01*
Y6271219D01*
X12707546Y6296611D01*
X12656763D01*
X12631371Y6271219D01*
Y6245827D01*
X12656763Y6220435D01*
X12732938D01*
X10756962Y7797825D02*
Y7950175D01*
X10833137D01*
X10858529Y7924783D01*
Y7874000D01*
X10833137Y7848608D01*
X10756962D01*
X10807745D02*
X10858529Y7797825D01*
X10909312D02*
X10960096D01*
X10934704D01*
Y7950175D01*
X10909312Y7924783D01*
X11036271D02*
X11061663Y7950175D01*
X11112447D01*
X11137839Y7924783D01*
Y7899392D01*
X11112447Y7874000D01*
X11087055D01*
X11112447D01*
X11137839Y7848608D01*
Y7823217D01*
X11112447Y7797825D01*
X11061663D01*
X11036271Y7823217D01*
X10795054Y8496325D02*
Y8648675D01*
X10871229D01*
X10896621Y8623283D01*
Y8572500D01*
X10871229Y8547108D01*
X10795054D01*
X10845837D02*
X10896621Y8496325D01*
X10947404D02*
X10998188D01*
X10972796D01*
Y8648675D01*
X10947404Y8623283D01*
X11074363Y8496325D02*
X11125147D01*
X11099755D01*
Y8648675D01*
X11074363Y8623283D01*
X4828540Y7244031D02*
Y7091680D01*
X4904715D01*
X4930107Y7117072D01*
Y7218639D01*
X4904715Y7244031D01*
X4828540D01*
X5082458Y7218639D02*
X5057066Y7244031D01*
X5006283D01*
X4980891Y7218639D01*
Y7193247D01*
X5006283Y7167855D01*
X5057066D01*
X5082458Y7142463D01*
Y7117072D01*
X5057066Y7091680D01*
X5006283D01*
X4980891Y7117072D01*
X5234809Y7244031D02*
X5133241D01*
Y7167855D01*
X5184025Y7193247D01*
X5209417D01*
X5234809Y7167855D01*
Y7117072D01*
X5209417Y7091680D01*
X5158633D01*
X5133241Y7117072D01*
X7846027Y7731719D02*
X7820635Y7757111D01*
X7769852D01*
X7744460Y7731719D01*
Y7630152D01*
X7769852Y7604760D01*
X7820635D01*
X7846027Y7630152D01*
X7972986Y7604760D02*
Y7757111D01*
X7896811Y7680935D01*
X7998378D01*
X5715041Y8661425D02*
Y8813775D01*
X5791217D01*
X5816608Y8788383D01*
Y8737600D01*
X5791217Y8712208D01*
X5715041D01*
X5765825D02*
X5816608Y8661425D01*
X5968959D02*
X5867392D01*
X5968959Y8762992D01*
Y8788383D01*
X5943567Y8813775D01*
X5892784D01*
X5867392Y8788383D01*
X10231087Y10436819D02*
X10205695Y10462211D01*
X10154912D01*
X10129520Y10436819D01*
Y10411427D01*
X10154912Y10386035D01*
X10205695D01*
X10231087Y10360643D01*
Y10335252D01*
X10205695Y10309860D01*
X10154912D01*
X10129520Y10335252D01*
X10281871Y10462211D02*
Y10309860D01*
X10332654Y10360643D01*
X10383438Y10309860D01*
Y10462211D01*
X10434221Y10309860D02*
X10485005D01*
X10459613D01*
Y10462211D01*
X10434221Y10436819D01*
X10129520Y9685020D02*
Y9837371D01*
X10205695D01*
X10231087Y9811979D01*
Y9761195D01*
X10205695Y9735803D01*
X10129520D01*
X10180303D02*
X10231087Y9685020D01*
X10281871Y9811979D02*
X10307263Y9837371D01*
X10358046D01*
X10383438Y9811979D01*
Y9786587D01*
X10358046Y9761195D01*
X10332654D01*
X10358046D01*
X10383438Y9735803D01*
Y9710412D01*
X10358046Y9685020D01*
X10307263D01*
X10281871Y9710412D01*
X11996420Y9697720D02*
Y9850071D01*
X12072595D01*
X12097987Y9824679D01*
Y9773895D01*
X12072595Y9748503D01*
X11996420D01*
X12047203D02*
X12097987Y9697720D01*
X12250338Y9850071D02*
X12148771D01*
Y9773895D01*
X12199554Y9799287D01*
X12224946D01*
X12250338Y9773895D01*
Y9723112D01*
X12224946Y9697720D01*
X12174163D01*
X12148771Y9723112D01*
X11158187Y10436819D02*
X11132795Y10462211D01*
X11082012D01*
X11056620Y10436819D01*
Y10411427D01*
X11082012Y10386035D01*
X11132795D01*
X11158187Y10360643D01*
Y10335252D01*
X11132795Y10309860D01*
X11082012D01*
X11056620Y10335252D01*
X11208971Y10462211D02*
Y10309860D01*
X11259754Y10360643D01*
X11310538Y10309860D01*
Y10462211D01*
X11462889Y10309860D02*
X11361321D01*
X11462889Y10411427D01*
Y10436819D01*
X11437497Y10462211D01*
X11386713D01*
X11361321Y10436819D01*
X5760720Y9151620D02*
Y9303971D01*
X5836895D01*
X5862287Y9278579D01*
Y9227795D01*
X5836895Y9202403D01*
X5760720D01*
X5811503D02*
X5862287Y9151620D01*
X5913071D02*
X5963854D01*
X5938463D01*
Y9303971D01*
X5913071Y9278579D01*
X12479020Y7363460D02*
Y7515811D01*
X12555195D01*
X12580587Y7490419D01*
Y7439635D01*
X12555195Y7414243D01*
X12479020D01*
X12529803D02*
X12580587Y7363460D01*
X12732938Y7515811D02*
X12682154Y7490419D01*
X12631371Y7439635D01*
Y7388852D01*
X12656763Y7363460D01*
X12707546D01*
X12732938Y7388852D01*
Y7414243D01*
X12707546Y7439635D01*
X12631371D01*
X12491720Y6830060D02*
Y6982411D01*
X12567895D01*
X12593287Y6957019D01*
Y6906235D01*
X12567895Y6880843D01*
X12491720D01*
X12542503D02*
X12593287Y6830060D01*
X12644071Y6957019D02*
X12669463Y6982411D01*
X12720246D01*
X12745638Y6957019D01*
Y6931627D01*
X12720246Y6906235D01*
X12745638Y6880843D01*
Y6855452D01*
X12720246Y6830060D01*
X12669463D01*
X12644071Y6855452D01*
Y6880843D01*
X12669463Y6906235D01*
X12644071Y6931627D01*
Y6957019D01*
X12669463Y6906235D02*
X12720246D01*
X13223241Y7729171D02*
Y7576820D01*
X13299416D01*
X13324808Y7602212D01*
Y7703779D01*
X13299416Y7729171D01*
X13223241D01*
X13477158Y7703779D02*
X13451765Y7729171D01*
X13400983D01*
X13375591Y7703779D01*
Y7678387D01*
X13400983Y7652995D01*
X13451765D01*
X13477158Y7627603D01*
Y7602212D01*
X13451765Y7576820D01*
X13400983D01*
X13375591Y7602212D01*
X13527940Y7576820D02*
X13578725D01*
X13553333D01*
Y7729171D01*
X13527940Y7703779D01*
X10683240Y8036560D02*
Y8188911D01*
X10759415D01*
X10784807Y8163519D01*
Y8112735D01*
X10759415Y8087343D01*
X10683240D01*
X10734023D02*
X10784807Y8036560D01*
X10835591D02*
X10886374D01*
X10860983D01*
Y8188911D01*
X10835591Y8163519D01*
X11064117Y8036560D02*
X10962550D01*
X11064117Y8138127D01*
Y8163519D01*
X11038725Y8188911D01*
X10987941D01*
X10962550Y8163519D01*
X7114507Y7782519D02*
X7089115Y7807911D01*
X7038332D01*
X7012940Y7782519D01*
Y7680952D01*
X7038332Y7655560D01*
X7089115D01*
X7114507Y7680952D01*
X7165291Y7782519D02*
X7190683Y7807911D01*
X7241466D01*
X7266858Y7782519D01*
Y7757127D01*
X7241466Y7731735D01*
X7216074D01*
X7241466D01*
X7266858Y7706343D01*
Y7680952D01*
X7241466Y7655560D01*
X7190683D01*
X7165291Y7680952D01*
X3723607Y6723339D02*
X3698215Y6748731D01*
X3647432D01*
X3622040Y6723339D01*
Y6621772D01*
X3647432Y6596380D01*
X3698215D01*
X3723607Y6621772D01*
X3774391Y6748731D02*
X3875958D01*
Y6723339D01*
X3774391Y6621772D01*
Y6596380D01*
X5770880Y7332931D02*
Y7180580D01*
X5847055D01*
X5872447Y7205972D01*
Y7307539D01*
X5847055Y7332931D01*
X5770880D01*
X6024798Y7307539D02*
X5999406Y7332931D01*
X5948623D01*
X5923231Y7307539D01*
Y7282147D01*
X5948623Y7256755D01*
X5999406D01*
X6024798Y7231363D01*
Y7205972D01*
X5999406Y7180580D01*
X5948623D01*
X5923231Y7205972D01*
X6151757Y7180580D02*
Y7332931D01*
X6075581Y7256755D01*
X6177149D01*
X3281680Y9517380D02*
Y9669731D01*
X3357855D01*
X3383247Y9644339D01*
Y9593555D01*
X3357855Y9568163D01*
X3281680D01*
X3434031Y9517380D02*
X3484814D01*
X3459423D01*
Y9669731D01*
X3434031Y9644339D01*
X12987019Y9723120D02*
Y9875471D01*
X13063194D01*
X13088586Y9850079D01*
Y9799295D01*
X13063194Y9773903D01*
X12987019D01*
X13037804D02*
X13088586Y9723120D01*
X13139371Y9875471D02*
X13240938D01*
Y9850079D01*
X13139371Y9748512D01*
Y9723120D01*
X7719060Y10700971D02*
Y10675579D01*
X7769843Y10624795D01*
X7820627Y10675579D01*
Y10700971D01*
X7769843Y10624795D02*
Y10548620D01*
X7871411D02*
X7922194D01*
X7896803D01*
Y10700971D01*
X7871411Y10675579D01*
X7190707Y10855919D02*
X7165315Y10881311D01*
X7114532D01*
X7089140Y10855919D01*
Y10754352D01*
X7114532Y10728960D01*
X7165315D01*
X7190707Y10754352D01*
X7241491Y10728960D02*
X7292274D01*
X7266883D01*
Y10881311D01*
X7241491Y10855919D01*
X9118567Y7985719D02*
X9093175Y8011111D01*
X9042392D01*
X9017000Y7985719D01*
Y7884152D01*
X9042392Y7858760D01*
X9093175D01*
X9118567Y7884152D01*
X9270918Y8011111D02*
X9169351D01*
Y7934935D01*
X9220134Y7960327D01*
X9245526D01*
X9270918Y7934935D01*
Y7884152D01*
X9245526Y7858760D01*
X9194743D01*
X9169351Y7884152D01*
X10708640Y8811260D02*
Y8963611D01*
X10784815D01*
X10810207Y8938219D01*
Y8887435D01*
X10784815Y8862043D01*
X10708640D01*
X10759423D02*
X10810207Y8811260D01*
X10860991D02*
X10911774D01*
X10886383D01*
Y8963611D01*
X10860991Y8938219D01*
X10987950D02*
X11013341Y8963611D01*
X11064125D01*
X11089517Y8938219D01*
Y8836652D01*
X11064125Y8811260D01*
X11013341D01*
X10987950Y8836652D01*
Y8938219D01*
X10721340Y7231380D02*
Y7383731D01*
X10797515D01*
X10822907Y7358339D01*
Y7307555D01*
X10797515Y7282163D01*
X10721340D01*
X10772123D02*
X10822907Y7231380D01*
X10873691D02*
X10924474D01*
X10899083D01*
Y7383731D01*
X10873691Y7358339D01*
X11076825Y7231380D02*
Y7383731D01*
X11000650Y7307555D01*
X11102217D01*
%TF.MD5,b56e22f67eb1f5b7aefd181599cb8864*%
M02*
