%TF.GenerationSoftware,Altium Limited,Altium Designer,26.6.0 (10)*%
G04 Layer_Color=32768*
G04 Board_Origin=0|0*
%FSLAX45Y45*%
%MOMM*%
%TF.SameCoordinates,6A3D5CD9-43CD-45B0-B852-C75ABF57ED6A*%
%TF.FilePolarity,Positive*%
%TF.FileFunction,Other,Top_Courtyard*%
%TF.Part,Single*%
G01*
G75*
%TA.AperFunction,NonConductor*%
%ADD34C,0.10000*%
%ADD35C,0.20000*%
%ADD56C,0.05000*%
D34*
X3493298Y7391400D02*
X3593297D01*
X3543300Y7341403D02*
Y7441402D01*
X7925603Y8966200D02*
X8025602D01*
X7975600Y8916203D02*
Y9016202D01*
X13119904Y10109200D02*
X13219902D01*
X13169901Y10059203D02*
Y10159202D01*
X12192803Y10121900D02*
X12292802D01*
X12242800Y10071903D02*
Y10171902D01*
X3217799Y6451600D02*
X3317799D01*
X3267801Y6401603D02*
Y6501602D01*
X13296890Y5994806D02*
Y6044809D01*
X13271890Y6019810D02*
X13321893D01*
X11316498Y9499600D02*
X11416502D01*
X11366500Y9449598D02*
Y9549602D01*
X13284190Y6642506D02*
Y6692509D01*
X13259190Y6667510D02*
X13309193D01*
X4864100Y6806402D02*
Y6856400D01*
X4839101Y6831401D02*
X4889099D01*
X5918998Y8445500D02*
X6019002D01*
X5969000Y8395498D02*
Y8495502D01*
X10313203Y10096500D02*
X10413202D01*
X10363200Y10046503D02*
Y10146502D01*
X10325898Y9461500D02*
X10425902D01*
X10375900Y9411498D02*
Y9511502D01*
X12192798Y9474200D02*
X12292802D01*
X12242800Y9424198D02*
Y9524202D01*
X11240303Y10096500D02*
X11340302D01*
X11290300Y10046503D02*
Y10146502D01*
X5957098Y8928100D02*
X6057102D01*
X6007100Y8878098D02*
Y8978102D01*
X13258791Y7290206D02*
Y7340209D01*
X13233791Y7315210D02*
X13283794D01*
X3733800Y6388903D02*
Y6488902D01*
X3683803Y6438900D02*
X3783802D01*
X13183398Y9499600D02*
X13283401D01*
X13233400Y9449598D02*
Y9549602D01*
D35*
X9381698Y4463501D02*
Y7093499D01*
X5756702D02*
X9381698D01*
X5756702Y4463501D02*
Y7093499D01*
Y4463501D02*
X9381698D01*
X7723500Y10151298D02*
Y10461300D01*
Y10151298D02*
X8068498D01*
Y10461300D01*
X7723500D02*
X8068498D01*
D56*
X3238302Y7001398D02*
Y7781402D01*
Y7001398D02*
X3848298D01*
Y7781402D01*
X3238302D02*
X3848298D01*
X7060601Y8051201D02*
Y9881199D01*
X8890599Y8051201D02*
Y9881199D01*
X7060601D02*
X8890599D01*
X7060601Y8051201D02*
X8890599D01*
X12949899Y9904202D02*
Y10244201D01*
X13389900D01*
Y9904202D02*
Y10244201D01*
X12949899Y9904202D02*
X13389900D01*
X8407400Y10564302D02*
Y10619298D01*
X8379902Y10591800D02*
X8434898D01*
X8317398Y10546801D02*
Y10636799D01*
X8497402Y10546801D02*
Y10636799D01*
X8317398D02*
X8497402D01*
X8317398Y10546801D02*
X8497402D01*
X12022800Y9916902D02*
Y10256901D01*
X12462800D01*
Y9916902D02*
Y10256901D01*
X12022800Y9916902D02*
X12462800D01*
X3097799Y6356599D02*
Y6546601D01*
X3437799Y6356599D02*
Y6546601D01*
X3097799D02*
X3437799D01*
X3097799Y6356599D02*
X3437799D01*
X13246892Y5894807D02*
X13346892D01*
X13246892D02*
Y6144809D01*
X13346892Y5894807D02*
Y6144809D01*
X13246892D02*
X13346892D01*
X4227002Y6858000D02*
X4281998D01*
X4254500Y6830502D02*
Y6885498D01*
X4299499Y6773001D02*
Y6942999D01*
X4209501Y6773001D02*
Y6942999D01*
X4299499D01*
X4209501Y6773001D02*
X4299499D01*
X5420802Y2832100D02*
X5475798D01*
X5448300Y2804602D02*
Y2859598D01*
X5493299Y2747101D02*
Y2917099D01*
X5403301Y2747101D02*
Y2917099D01*
X5493299D01*
X5403301Y2747101D02*
X5493299D01*
X5090602Y3283499D02*
X5145598D01*
X5118100Y3256001D02*
Y3311002D01*
X5163099Y3198500D02*
Y3368502D01*
X5073101Y3198500D02*
Y3368502D01*
X5163099D01*
X5073101Y3198500D02*
X5163099D01*
X11096498Y9354602D02*
Y9644598D01*
X11636502Y9354602D02*
Y9644598D01*
X11096498D02*
X11636502D01*
X11096498Y9354602D02*
X11636502D01*
X13234192Y6542507D02*
X13334192D01*
X13234192D02*
Y6792509D01*
X13334192Y6542507D02*
Y6792509D01*
X13234192D02*
X13334192D01*
X12540701Y5992302D02*
Y6047298D01*
X12513198Y6019800D02*
X12568199D01*
X12455698Y5974801D02*
X12625700D01*
X12455698Y6064799D02*
X12625700D01*
Y5974801D02*
Y6064799D01*
X12455698Y5974801D02*
Y6064799D01*
X10716702Y7638501D02*
X10771698D01*
X10744200Y7610998D02*
Y7665999D01*
X10789199Y7553498D02*
Y7723500D01*
X10699201Y7553498D02*
Y7723500D01*
X10789199D01*
X10699201Y7553498D02*
X10789199D01*
X10716702Y8324301D02*
X10771698D01*
X10744200Y8296798D02*
Y8351799D01*
X10789199Y8239298D02*
Y8409300D01*
X10699201Y8239298D02*
Y8409300D01*
X10789199D01*
X10699201Y8239298D02*
X10789199D01*
X4814103Y6706403D02*
X4914102D01*
X4814103D02*
Y6956400D01*
X4914102Y6706403D02*
Y6956400D01*
X4814103D02*
X4914102D01*
X7810500Y7452802D02*
Y7507798D01*
X7783002Y7480300D02*
X7837998D01*
X7720498Y7435301D02*
Y7525299D01*
X7900502Y7435301D02*
Y7525299D01*
X7720498D02*
X7900502D01*
X7720498Y7435301D02*
X7900502D01*
X5698998Y8300502D02*
Y8590498D01*
X6239002Y8300502D02*
Y8590498D01*
X5698998D02*
X6239002D01*
X5698998Y8300502D02*
X6239002D01*
X10143200Y9891502D02*
Y10231501D01*
X10583200D01*
Y9891502D02*
Y10231501D01*
X10143200Y9891502D02*
X10583200D01*
X10105898Y9316502D02*
Y9606498D01*
X10645902Y9316502D02*
Y9606498D01*
X10105898D02*
X10645902D01*
X10105898Y9316502D02*
X10645902D01*
X11972798Y9329202D02*
Y9619198D01*
X12512802Y9329202D02*
Y9619198D01*
X11972798D02*
X12512802D01*
X11972798Y9329202D02*
X12512802D01*
X11070300Y9891502D02*
Y10231501D01*
X11510300D01*
Y9891502D02*
Y10231501D01*
X11070300Y9891502D02*
X11510300D01*
X5737098Y8783102D02*
Y9073098D01*
X6277102Y8783102D02*
Y9073098D01*
X5737098D02*
X6277102D01*
X5737098Y8783102D02*
X6277102D01*
X12540701Y7211502D02*
Y7266498D01*
X12513198Y7239000D02*
X12568199D01*
X12455698Y7194001D02*
X12625700D01*
X12455698Y7283999D02*
X12625700D01*
Y7194001D02*
Y7283999D01*
X12455698Y7194001D02*
Y7283999D01*
X12553401Y6678102D02*
Y6733098D01*
X12525898Y6705600D02*
X12580899D01*
X12468398Y6660601D02*
X12638400D01*
X12468398Y6750599D02*
X12638400D01*
Y6660601D02*
Y6750599D01*
X12468398Y6660601D02*
Y6750599D01*
X13208792Y7190207D02*
X13308792D01*
X13208792D02*
Y7440209D01*
X13308792Y7190207D02*
Y7440209D01*
X13208792D02*
X13308792D01*
X10678602Y7874000D02*
X10733598D01*
X10706100Y7846502D02*
Y7901498D01*
X10751099Y7789001D02*
Y7958999D01*
X10661101Y7789001D02*
Y7958999D01*
X10751099D01*
X10661101Y7789001D02*
X10751099D01*
X7079701Y7503602D02*
Y7558598D01*
X7052198Y7531100D02*
X7107199D01*
X6989699Y7486101D02*
Y7576099D01*
X7169699Y7486101D02*
Y7576099D01*
X6989699D02*
X7169699D01*
X6989699Y7486101D02*
X7169699D01*
X3598799Y6358900D02*
X3868801D01*
X3598799Y6518900D02*
X3868801D01*
Y6358900D02*
Y6518900D01*
X3598799Y6358900D02*
Y6518900D01*
X3258398Y9437700D02*
X3723401D01*
Y8367700D02*
Y9437700D01*
X3258398Y8367700D02*
X3723401D01*
X3258398D02*
Y9437700D01*
X12963399Y9354602D02*
Y9644598D01*
X13503403Y9354602D02*
Y9644598D01*
X12963399D02*
X13503403D01*
X12963399Y9354602D02*
X13503403D01*
X7155901Y10577002D02*
Y10631998D01*
X7128398Y10604500D02*
X7183399D01*
X7065899Y10559501D02*
Y10649499D01*
X7245899Y10559501D02*
Y10649499D01*
X7065899D02*
X7245899D01*
X7065899Y10559501D02*
X7245899D01*
X8993998Y7611201D02*
Y7781199D01*
X9294002Y7611201D02*
Y7781199D01*
X8993998D02*
X9294002D01*
X8993998Y7611201D02*
X9294002D01*
X9094003Y7696200D02*
X9194002D01*
X9144000Y7646203D02*
Y7746202D01*
X10704002Y8648700D02*
X10758998D01*
X10731500Y8621202D02*
Y8676198D01*
X10776499Y8563701D02*
Y8733699D01*
X10686501Y8563701D02*
Y8733699D01*
X10776499D01*
X10686501Y8563701D02*
X10776499D01*
X10716702Y7067001D02*
X10771698D01*
X10744200Y7039498D02*
Y7094499D01*
X10789199Y6981998D02*
Y7152000D01*
X10699201Y6981998D02*
Y7152000D01*
X10789199D01*
X10699201Y6981998D02*
X10789199D01*
%TF.MD5,7dd49a741db14b5b7a33a0b3c3d3de75*%
M02*
