%TF.GenerationSoftware,Altium Limited,Altium Designer,26.6.0 (10)*%
G04 Layer_Physical_Order=2*
G04 Layer_Color=16711680*
G04 Board_Origin=0|0*
%FSLAX45Y45*%
%MOMM*%
%TF.SameCoordinates,6A3D5CD9-43CD-45B0-B852-C75ABF57ED6A*%
%TF.FilePolarity,Positive*%
%TF.FileFunction,Copper,L2,Bot,Signal*%
%TF.Part,Single*%
G01*
G75*
%TA.AperFunction,Conductor*%
%ADD23C,0.15240*%
%TA.AperFunction,ComponentPad*%
%ADD25R,1.20000X1.20000*%
%ADD26C,1.20000*%
%ADD27C,1.55000*%
%ADD28R,1.55000X1.55000*%
%ADD29C,1.40000*%
%ADD30R,1.40000X1.40000*%
%TA.AperFunction,ViaPad*%
%ADD31C,1.27000*%
D23*
X3643300Y7636398D02*
X7855499D01*
X3390900Y7888798D02*
X3643300Y7636398D01*
X3390900Y7888798D02*
Y8502701D01*
X7910860Y4678680D02*
Y4729302D01*
X7735540Y4622800D02*
Y4729302D01*
X10431780Y8455660D02*
X10929259Y7958181D01*
X10627360Y7533640D02*
X10848340Y7754620D01*
X10556240Y6738620D02*
X10919460Y7101840D01*
X10634980Y7043420D02*
X10934700Y7343140D01*
Y7830820D01*
X10873740Y7891780D02*
X10934700Y7830820D01*
X7650480Y8455660D02*
X10431780D01*
X7647940Y8453120D02*
X7650480Y8455660D01*
X7772400Y4766163D02*
X7874000D01*
X7735540Y4729302D02*
X7772400Y4766163D01*
X7467600Y8382000D02*
X7470140Y8379460D01*
X10287000D01*
X8225760Y4783943D02*
X8331200Y4678502D01*
X8496478Y4589780D02*
X8585200Y4678502D01*
X7999760Y4589780D02*
X8496478D01*
X7910860Y4678680D02*
X7999760Y4589780D01*
X7874000Y4766163D02*
X7910860Y4729302D01*
X8061960Y7983220D02*
X10198100D01*
X7627620Y7533640D02*
X10627360D01*
X7716520Y7754620D02*
X10447020D01*
X7747000Y7891780D02*
X10873740D01*
X7625598Y8013182D02*
X7747000Y7891780D01*
X8217078Y6738620D02*
X10556240D01*
X8077200Y6878498D02*
X8217078Y6738620D01*
X8585200Y6878498D02*
X8823889Y7117187D01*
X8331200Y6878498D02*
X8788222Y7335520D01*
X10808686D01*
X5374640Y4175760D02*
X7288500D01*
X7735540Y4622800D01*
X7823200Y4678502D02*
X8008442Y4493260D01*
X10253980D01*
X8506460Y10050780D02*
X10668000D01*
X10784840Y9664700D02*
X10970260Y9479280D01*
X10756900Y9850120D02*
X12545060Y8061960D01*
X7541260Y9481820D02*
X7827010D01*
X7467600Y9555480D02*
X7541260Y9481820D01*
X7635240Y9555480D02*
X7840492D01*
X3590900Y8902700D02*
X3979520Y9291320D01*
X3510280Y9067800D02*
Y9222080D01*
Y9067800D02*
X3556000Y9022080D01*
X3672840D01*
X3510280Y9222080D02*
X3590900Y9302699D01*
X4102100Y9451340D02*
X7693660D01*
X3979520Y9291320D02*
X7543800D01*
X6017260Y4770120D02*
X6031083Y4783943D01*
X6814922Y9364980D02*
X7617460D01*
X6261100Y9154058D02*
X7757058D01*
X7942580Y9436100D02*
X8049260Y9542780D01*
X7617460Y9364980D02*
X7711440Y9271000D01*
X7827010Y9481820D02*
X7983220Y9638030D01*
X7848600Y9271000D02*
X7923398Y9345798D01*
X7711440Y9271000D02*
X7848600D01*
X7359040Y8702700D02*
X8069580Y9413240D01*
X7923398Y9345798D02*
Y9551538D01*
X7992110Y9620250D01*
X7757058Y9154058D02*
X7942580Y9339580D01*
Y9436100D01*
X7693660Y9451340D02*
X7800340Y9344660D01*
X7444740Y9918700D02*
X7513320Y9850120D01*
X3590900Y9102700D02*
X4480560Y9992360D01*
X3590900Y8702700D02*
X7359040D01*
X3672840Y9022080D02*
X4102100Y9451340D01*
X5880100Y8620760D02*
X7800340D01*
X10482443Y8526917D02*
X12303760Y6705600D01*
X6941820Y8526917D02*
X10482443D01*
X5697220Y8102600D02*
X7698740D01*
X7513320Y9850120D02*
X10756900D01*
X7780020Y7980680D02*
Y8021320D01*
X7698740Y8102600D02*
X7780020Y8021320D01*
X8201660Y9550400D02*
X8501380D01*
X7983220Y9638030D02*
X8150636D01*
X8164606Y9624060D01*
X9646920D01*
X7840492Y9555480D02*
X7949712Y9664700D01*
X7992110Y9620250D02*
X8131810D01*
X8201660Y9550400D01*
X11684000Y10086340D02*
X11722100Y10124440D01*
X8399120D02*
X11722100D01*
X12296140D01*
X6031083Y4783943D02*
X8225760D01*
X5062220Y7802880D02*
X5880100Y8620760D01*
X9646920Y9624060D02*
X12031980Y7239000D01*
X7949712Y9664700D02*
X10784840D01*
X12537440Y9977120D02*
X12938760Y9575800D01*
X8125602Y9977120D02*
X12537440D01*
D25*
X3443300Y7636398D02*
D03*
D26*
X3643300D02*
D03*
D27*
X8585200Y4678502D02*
D03*
X8331200D02*
D03*
X8077200D02*
D03*
X7823200D02*
D03*
X7569200D02*
D03*
X7315200D02*
D03*
X7061200D02*
D03*
X6807200D02*
D03*
X6553200D02*
D03*
Y6878498D02*
D03*
X6807200D02*
D03*
X7061200D02*
D03*
X7315200D02*
D03*
X7569200D02*
D03*
X7823200D02*
D03*
X8077200D02*
D03*
X8331200D02*
D03*
D28*
X8585200D02*
D03*
D29*
X3390900Y8502701D02*
D03*
Y8702700D02*
D03*
Y8902700D02*
D03*
Y9102700D02*
D03*
Y9302699D02*
D03*
X3590900Y8702700D02*
D03*
Y8902700D02*
D03*
Y9102700D02*
D03*
Y9302699D02*
D03*
D30*
Y8502701D02*
D03*
D31*
X8452399Y10318201D02*
D03*
X7855499Y7636398D02*
D03*
X8399120Y10124440D02*
D03*
X8125602Y9977120D02*
D03*
X10808686Y7335520D02*
D03*
X10253980Y4493260D02*
D03*
X8061960Y7983220D02*
D03*
X10198100D02*
D03*
X5374640Y4175760D02*
D03*
X7800340Y9344660D02*
D03*
X8049260Y9542780D02*
D03*
X6261100Y9154058D02*
D03*
X8501380Y9550400D02*
D03*
X6814922Y9364980D02*
D03*
X8506460Y10050780D02*
D03*
X10668000D02*
D03*
X7635240Y9555480D02*
D03*
X10970260Y9479280D02*
D03*
X7467600Y9555480D02*
D03*
X12031980Y7239000D02*
D03*
X6941820Y8526917D02*
D03*
X12303760Y6705600D02*
D03*
X10287000Y8379460D02*
D03*
X7467600Y8382000D02*
D03*
X10929259Y7958181D02*
D03*
X7647940Y8453120D02*
D03*
X7625598Y8013182D02*
D03*
X10634980Y7043420D02*
D03*
X5062220Y7802880D02*
D03*
X7800340Y8620760D02*
D03*
X12296140Y10124440D02*
D03*
X10447020Y7754620D02*
D03*
X7716520D02*
D03*
X10848340D02*
D03*
X7627620Y7533640D02*
D03*
X5697220Y8102600D02*
D03*
X7780020Y7980680D02*
D03*
X8823889Y7117187D02*
D03*
X10919460Y7101840D02*
D03*
X4480560Y9992360D02*
D03*
X7444740Y9918700D02*
D03*
X12545060Y8061960D02*
D03*
X8069580Y9413240D02*
D03*
X11684000Y10086340D02*
D03*
X7543800Y9291320D02*
D03*
X6017260Y4770120D02*
D03*
X12938760Y9575800D02*
D03*
%TF.MD5,45902e7fcbd725daa7c517481794357a*%
M02*
