%TF.GenerationSoftware,Altium Limited,Altium Designer,26.6.0 (10)*%
G04 Layer_Color=16711935*
G04 Board_Origin=0|0*
%FSLAX45Y45*%
%MOMM*%
%TF.SameCoordinates,6A3D5CD9-43CD-45B0-B852-C75ABF57ED6A*%
%TF.FilePolarity,Negative*%
%TF.FileFunction,Soldermask,Bot*%
%TF.Part,Single*%
G01*
G75*
%TA.AperFunction,ComponentPad*%
%ADD27C,1.55000*%
%ADD28R,1.55000X1.55000*%
%ADD51R,1.40320X1.40320*%
%ADD52C,1.40320*%
%ADD53C,1.60320*%
%ADD54R,1.60320X1.60320*%
%TA.AperFunction,ViaPad*%
%ADD55C,1.47320*%
D27*
X8585200Y4678502D02*
D03*
X8331200D02*
D03*
X8077200D02*
D03*
X7823200D02*
D03*
X7569200D02*
D03*
X7315200D02*
D03*
X7061200D02*
D03*
X6807200D02*
D03*
X6553200D02*
D03*
Y6878498D02*
D03*
X6807200D02*
D03*
X7061200D02*
D03*
X7315200D02*
D03*
X7569200D02*
D03*
X7823200D02*
D03*
X8077200D02*
D03*
X8331200D02*
D03*
D28*
X8585200D02*
D03*
D51*
X3443300Y7636398D02*
D03*
D52*
X3643300D02*
D03*
D53*
X3390900Y8502701D02*
D03*
Y8702700D02*
D03*
Y8902700D02*
D03*
Y9102700D02*
D03*
Y9302699D02*
D03*
X3590900Y8702700D02*
D03*
Y8902700D02*
D03*
Y9102700D02*
D03*
Y9302699D02*
D03*
D54*
Y8502701D02*
D03*
D55*
X8452399Y10318201D02*
D03*
X7855499Y7636398D02*
D03*
X8399120Y10124440D02*
D03*
X8125602Y9977120D02*
D03*
X10808686Y7335520D02*
D03*
X10253980Y4493260D02*
D03*
X8061960Y7983220D02*
D03*
X10198100D02*
D03*
X5374640Y4175760D02*
D03*
X7800340Y9344660D02*
D03*
X8049260Y9542780D02*
D03*
X6261100Y9154058D02*
D03*
X8501380Y9550400D02*
D03*
X6814922Y9364980D02*
D03*
X8506460Y10050780D02*
D03*
X10668000D02*
D03*
X7635240Y9555480D02*
D03*
X10970260Y9479280D02*
D03*
X7467600Y9555480D02*
D03*
X12031980Y7239000D02*
D03*
X6941820Y8526917D02*
D03*
X12303760Y6705600D02*
D03*
X10287000Y8379460D02*
D03*
X7467600Y8382000D02*
D03*
X10929259Y7958181D02*
D03*
X7647940Y8453120D02*
D03*
X7625598Y8013182D02*
D03*
X10634980Y7043420D02*
D03*
X5062220Y7802880D02*
D03*
X7800340Y8620760D02*
D03*
X12296140Y10124440D02*
D03*
X10447020Y7754620D02*
D03*
X7716520D02*
D03*
X10848340D02*
D03*
X7627620Y7533640D02*
D03*
X5697220Y8102600D02*
D03*
X7780020Y7980680D02*
D03*
X8823889Y7117187D02*
D03*
X10919460Y7101840D02*
D03*
X4480560Y9992360D02*
D03*
X7444740Y9918700D02*
D03*
X12545060Y8061960D02*
D03*
X8069580Y9413240D02*
D03*
X11684000Y10086340D02*
D03*
X7543800Y9291320D02*
D03*
X6017260Y4770120D02*
D03*
X12938760Y9575800D02*
D03*
%TF.MD5,c05b675b343000683e26243c133b4635*%
M02*
