M48
;Layer_Color=9474304
;FILE_FORMAT=4:4
METRIC,LZ
;TYPE=PLATED
T01F00S00C0.7000
T02F00S00C0.7112
T03F00S00C0.8900
T04F00S00C1.0000
%
T01
X0034433Y0076364
X0036433
T02
X01230376Y0067056
X01203198Y007239
X01091946Y00710184
X01063498Y00704342
X01080869Y00733552
X01084834Y00775462
X01044702
X00882389Y00711719
X01025398Y00449326
X00601726Y00477012
X00537464Y00417576
X00506222Y00780288
X00771652Y00775462
X0078555Y0076364
X00762762Y00753364
X0076256Y00801318
X00778002Y00798068
X00764794Y00845312
X0074676Y008382
X00780034Y00862076
Y00934466
X0075438Y00929132
X0074676Y00955548
X00763524
X00744474Y0099187
X00681492Y00936498
X0062611Y00915406
X00694182Y00852692
X00569722Y0081026
X00448056Y00999236
X0081256Y00997712
X00839912Y01012444
X00850646Y01005078
X0084524Y0103182
X00850138Y0095504
X00804926Y00954278
X00806958Y00941324
X00806196Y00798322
X0101981
X010287Y00837946
X01092926Y00795818
X01097026Y00947928
X010668Y01005078
X011684Y01008634
X01229614Y01012444
X01293876Y0095758
X01254506Y00806196
T03
X0033909Y0085027
Y0087027
Y0089027
Y0091027
Y0093027
X0035909
Y0091027
Y0089027
Y0087027
Y0085027
T04
X0080772Y0046785
X0083312
X0085852
Y0068785
X0083312
X0080772
X0078232
X0075692
X0073152
X0070612
X0068072
X0065532
Y0046785
X0068072
X0070612
X0073152
X0075692
X0078232
M30
