%TF.GenerationSoftware,Altium Limited,Altium Designer,26.6.0 (10)*%
G04 Layer_Color=2752767*
G04 Board_Origin=0|0*
%FSLAX45Y45*%
%MOMM*%
%TF.SameCoordinates,6A3D5CD9-43CD-45B0-B852-C75ABF57ED6A*%
%TF.FilePolarity,Positive*%
%TF.FileFunction,Drawing*%
%TF.Part,Single*%
G01*
G75*
%TA.AperFunction,NonConductor*%
%ADD63C,0.12700*%
%ADD64C,0.16933*%
D63*
X3443300Y7585598D02*
X3392500Y7687198D01*
X3494100D01*
X3443300Y7585598D01*
X3643300D02*
X3592500Y7687198D01*
X3694100D01*
X3643300Y7585598D01*
X8534400Y4627702D02*
Y4729302D01*
X8636000D01*
Y4627702D01*
X8534400D01*
X8280400D02*
Y4729302D01*
X8382000D01*
Y4627702D01*
X8280400D01*
X8026400D02*
Y4729302D01*
X8128000D01*
Y4627702D01*
X8026400D01*
X7772400D02*
Y4729302D01*
X7874000D01*
Y4627702D01*
X7772400D01*
X7518400D02*
Y4729302D01*
X7620000D01*
Y4627702D01*
X7518400D01*
X7264400D02*
Y4729302D01*
X7366000D01*
Y4627702D01*
X7264400D01*
X7010400D02*
Y4729302D01*
X7112000D01*
Y4627702D01*
X7010400D01*
X6756400D02*
Y4729302D01*
X6858000D01*
Y4627702D01*
X6756400D01*
X6502400D02*
Y4729302D01*
X6604000D01*
Y4627702D01*
X6502400D01*
Y6827698D02*
Y6929298D01*
X6604000D01*
Y6827698D01*
X6502400D01*
X6756400D02*
Y6929298D01*
X6858000D01*
Y6827698D01*
X6756400D01*
X7010400D02*
Y6929298D01*
X7112000D01*
Y6827698D01*
X7010400D01*
X7264400D02*
Y6929298D01*
X7366000D01*
Y6827698D01*
X7264400D01*
X7518400D02*
Y6929298D01*
X7620000D01*
Y6827698D01*
X7518400D01*
X7772400D02*
Y6929298D01*
X7874000D01*
Y6827698D01*
X7772400D01*
X8026400D02*
Y6929298D01*
X8128000D01*
Y6827698D01*
X8026400D01*
X8280400D02*
Y6929298D01*
X8382000D01*
Y6827698D01*
X8280400D01*
X8534400D02*
Y6929298D01*
X8636000D01*
Y6827698D01*
X8534400D01*
X8452399Y10267401D02*
X8477799Y10292801D01*
X8503199D01*
X8477799Y10318201D01*
X8503199Y10343601D01*
X8477799D01*
X8452399Y10369001D01*
X8426999Y10343601D01*
X8401599D01*
X8426999Y10318201D01*
X8401599Y10292801D01*
X8426999D01*
X8452399Y10267401D01*
X7855499Y7585598D02*
X7880899Y7610998D01*
X7906299D01*
X7880899Y7636398D01*
X7906299Y7661798D01*
X7880899D01*
X7855499Y7687198D01*
X7830099Y7661798D01*
X7804699D01*
X7830099Y7636398D01*
X7804699Y7610998D01*
X7830099D01*
X7855499Y7585598D01*
X8399120Y10073640D02*
X8424520Y10099040D01*
X8449920D01*
X8424520Y10124440D01*
X8449920Y10149840D01*
X8424520D01*
X8399120Y10175240D01*
X8373720Y10149840D01*
X8348320D01*
X8373720Y10124440D01*
X8348320Y10099040D01*
X8373720D01*
X8399120Y10073640D01*
X8125602Y9926320D02*
X8151002Y9951720D01*
X8176402D01*
X8151002Y9977120D01*
X8176402Y10002520D01*
X8151002D01*
X8125602Y10027920D01*
X8100202Y10002520D01*
X8074802D01*
X8100202Y9977120D01*
X8074802Y9951720D01*
X8100202D01*
X8125602Y9926320D01*
X10808686Y7284720D02*
X10834086Y7310120D01*
X10859486D01*
X10834086Y7335520D01*
X10859486Y7360920D01*
X10834086D01*
X10808686Y7386320D01*
X10783286Y7360920D01*
X10757886D01*
X10783286Y7335520D01*
X10757886Y7310120D01*
X10783286D01*
X10808686Y7284720D01*
X10253980Y4442460D02*
X10279380Y4467860D01*
X10304780D01*
X10279380Y4493260D01*
X10304780Y4518660D01*
X10279380D01*
X10253980Y4544060D01*
X10228580Y4518660D01*
X10203180D01*
X10228580Y4493260D01*
X10203180Y4467860D01*
X10228580D01*
X10253980Y4442460D01*
X8061960Y7932420D02*
X8087360Y7957820D01*
X8112760D01*
X8087360Y7983220D01*
X8112760Y8008620D01*
X8087360D01*
X8061960Y8034020D01*
X8036560Y8008620D01*
X8011160D01*
X8036560Y7983220D01*
X8011160Y7957820D01*
X8036560D01*
X8061960Y7932420D01*
X10198100D02*
X10223500Y7957820D01*
X10248900D01*
X10223500Y7983220D01*
X10248900Y8008620D01*
X10223500D01*
X10198100Y8034020D01*
X10172700Y8008620D01*
X10147300D01*
X10172700Y7983220D01*
X10147300Y7957820D01*
X10172700D01*
X10198100Y7932420D01*
X5374640Y4124960D02*
X5400040Y4150360D01*
X5425440D01*
X5400040Y4175760D01*
X5425440Y4201160D01*
X5400040D01*
X5374640Y4226560D01*
X5349240Y4201160D01*
X5323840D01*
X5349240Y4175760D01*
X5323840Y4150360D01*
X5349240D01*
X5374640Y4124960D01*
X7800340Y9293860D02*
X7825740Y9319260D01*
X7851140D01*
X7825740Y9344660D01*
X7851140Y9370060D01*
X7825740D01*
X7800340Y9395460D01*
X7774940Y9370060D01*
X7749540D01*
X7774940Y9344660D01*
X7749540Y9319260D01*
X7774940D01*
X7800340Y9293860D01*
X8049260Y9491980D02*
X8074660Y9517380D01*
X8100060D01*
X8074660Y9542780D01*
X8100060Y9568180D01*
X8074660D01*
X8049260Y9593580D01*
X8023860Y9568180D01*
X7998460D01*
X8023860Y9542780D01*
X7998460Y9517380D01*
X8023860D01*
X8049260Y9491980D01*
X6261100Y9103258D02*
X6286500Y9128658D01*
X6311900D01*
X6286500Y9154058D01*
X6311900Y9179458D01*
X6286500D01*
X6261100Y9204858D01*
X6235700Y9179458D01*
X6210300D01*
X6235700Y9154058D01*
X6210300Y9128658D01*
X6235700D01*
X6261100Y9103258D01*
X8501380Y9499600D02*
X8526780Y9525000D01*
X8552180D01*
X8526780Y9550400D01*
X8552180Y9575800D01*
X8526780D01*
X8501380Y9601200D01*
X8475980Y9575800D01*
X8450580D01*
X8475980Y9550400D01*
X8450580Y9525000D01*
X8475980D01*
X8501380Y9499600D01*
X6814922Y9314180D02*
X6840322Y9339580D01*
X6865722D01*
X6840322Y9364980D01*
X6865722Y9390380D01*
X6840322D01*
X6814922Y9415780D01*
X6789522Y9390380D01*
X6764122D01*
X6789522Y9364980D01*
X6764122Y9339580D01*
X6789522D01*
X6814922Y9314180D01*
X8506460Y9999980D02*
X8531860Y10025380D01*
X8557260D01*
X8531860Y10050780D01*
X8557260Y10076180D01*
X8531860D01*
X8506460Y10101580D01*
X8481060Y10076180D01*
X8455660D01*
X8481060Y10050780D01*
X8455660Y10025380D01*
X8481060D01*
X8506460Y9999980D01*
X10668000D02*
X10693400Y10025380D01*
X10718800D01*
X10693400Y10050780D01*
X10718800Y10076180D01*
X10693400D01*
X10668000Y10101580D01*
X10642600Y10076180D01*
X10617200D01*
X10642600Y10050780D01*
X10617200Y10025380D01*
X10642600D01*
X10668000Y9999980D01*
X7635240Y9504680D02*
X7660640Y9530080D01*
X7686040D01*
X7660640Y9555480D01*
X7686040Y9580880D01*
X7660640D01*
X7635240Y9606280D01*
X7609840Y9580880D01*
X7584440D01*
X7609840Y9555480D01*
X7584440Y9530080D01*
X7609840D01*
X7635240Y9504680D01*
X10970260Y9428480D02*
X10995660Y9453880D01*
X11021060D01*
X10995660Y9479280D01*
X11021060Y9504680D01*
X10995660D01*
X10970260Y9530080D01*
X10944860Y9504680D01*
X10919460D01*
X10944860Y9479280D01*
X10919460Y9453880D01*
X10944860D01*
X10970260Y9428480D01*
X7467600Y9504680D02*
X7493000Y9530080D01*
X7518400D01*
X7493000Y9555480D01*
X7518400Y9580880D01*
X7493000D01*
X7467600Y9606280D01*
X7442200Y9580880D01*
X7416800D01*
X7442200Y9555480D01*
X7416800Y9530080D01*
X7442200D01*
X7467600Y9504680D01*
X12031980Y7188200D02*
X12057380Y7213600D01*
X12082780D01*
X12057380Y7239000D01*
X12082780Y7264400D01*
X12057380D01*
X12031980Y7289800D01*
X12006580Y7264400D01*
X11981180D01*
X12006580Y7239000D01*
X11981180Y7213600D01*
X12006580D01*
X12031980Y7188200D01*
X6941820Y8476117D02*
X6967220Y8501517D01*
X6992620D01*
X6967220Y8526917D01*
X6992620Y8552317D01*
X6967220D01*
X6941820Y8577717D01*
X6916420Y8552317D01*
X6891020D01*
X6916420Y8526917D01*
X6891020Y8501517D01*
X6916420D01*
X6941820Y8476117D01*
X12303760Y6654800D02*
X12329160Y6680200D01*
X12354560D01*
X12329160Y6705600D01*
X12354560Y6731000D01*
X12329160D01*
X12303760Y6756400D01*
X12278360Y6731000D01*
X12252960D01*
X12278360Y6705600D01*
X12252960Y6680200D01*
X12278360D01*
X12303760Y6654800D01*
X10287000Y8328660D02*
X10312400Y8354060D01*
X10337800D01*
X10312400Y8379460D01*
X10337800Y8404860D01*
X10312400D01*
X10287000Y8430260D01*
X10261600Y8404860D01*
X10236200D01*
X10261600Y8379460D01*
X10236200Y8354060D01*
X10261600D01*
X10287000Y8328660D01*
X7467600Y8331200D02*
X7493000Y8356600D01*
X7518400D01*
X7493000Y8382000D01*
X7518400Y8407400D01*
X7493000D01*
X7467600Y8432800D01*
X7442200Y8407400D01*
X7416800D01*
X7442200Y8382000D01*
X7416800Y8356600D01*
X7442200D01*
X7467600Y8331200D01*
X10929259Y7907381D02*
X10954659Y7932781D01*
X10980059D01*
X10954659Y7958181D01*
X10980059Y7983581D01*
X10954659D01*
X10929259Y8008981D01*
X10903859Y7983581D01*
X10878459D01*
X10903859Y7958181D01*
X10878459Y7932781D01*
X10903859D01*
X10929259Y7907381D01*
X7647940Y8402320D02*
X7673340Y8427720D01*
X7698740D01*
X7673340Y8453120D01*
X7698740Y8478520D01*
X7673340D01*
X7647940Y8503920D01*
X7622540Y8478520D01*
X7597140D01*
X7622540Y8453120D01*
X7597140Y8427720D01*
X7622540D01*
X7647940Y8402320D01*
X7625598Y7962382D02*
X7650998Y7987782D01*
X7676398D01*
X7650998Y8013182D01*
X7676398Y8038582D01*
X7650998D01*
X7625598Y8063982D01*
X7600198Y8038582D01*
X7574798D01*
X7600198Y8013182D01*
X7574798Y7987782D01*
X7600198D01*
X7625598Y7962382D01*
X10634980Y6992620D02*
X10660380Y7018020D01*
X10685780D01*
X10660380Y7043420D01*
X10685780Y7068820D01*
X10660380D01*
X10634980Y7094220D01*
X10609580Y7068820D01*
X10584180D01*
X10609580Y7043420D01*
X10584180Y7018020D01*
X10609580D01*
X10634980Y6992620D01*
X5062220Y7752080D02*
X5087620Y7777480D01*
X5113020D01*
X5087620Y7802880D01*
X5113020Y7828280D01*
X5087620D01*
X5062220Y7853680D01*
X5036820Y7828280D01*
X5011420D01*
X5036820Y7802880D01*
X5011420Y7777480D01*
X5036820D01*
X5062220Y7752080D01*
X7800340Y8569960D02*
X7825740Y8595360D01*
X7851140D01*
X7825740Y8620760D01*
X7851140Y8646160D01*
X7825740D01*
X7800340Y8671560D01*
X7774940Y8646160D01*
X7749540D01*
X7774940Y8620760D01*
X7749540Y8595360D01*
X7774940D01*
X7800340Y8569960D01*
X12296140Y10073640D02*
X12321540Y10099040D01*
X12346940D01*
X12321540Y10124440D01*
X12346940Y10149840D01*
X12321540D01*
X12296140Y10175240D01*
X12270740Y10149840D01*
X12245340D01*
X12270740Y10124440D01*
X12245340Y10099040D01*
X12270740D01*
X12296140Y10073640D01*
X10447020Y7703820D02*
X10472420Y7729220D01*
X10497820D01*
X10472420Y7754620D01*
X10497820Y7780020D01*
X10472420D01*
X10447020Y7805420D01*
X10421620Y7780020D01*
X10396220D01*
X10421620Y7754620D01*
X10396220Y7729220D01*
X10421620D01*
X10447020Y7703820D01*
X7716520D02*
X7741920Y7729220D01*
X7767320D01*
X7741920Y7754620D01*
X7767320Y7780020D01*
X7741920D01*
X7716520Y7805420D01*
X7691120Y7780020D01*
X7665720D01*
X7691120Y7754620D01*
X7665720Y7729220D01*
X7691120D01*
X7716520Y7703820D01*
X10848340D02*
X10873740Y7729220D01*
X10899140D01*
X10873740Y7754620D01*
X10899140Y7780020D01*
X10873740D01*
X10848340Y7805420D01*
X10822940Y7780020D01*
X10797540D01*
X10822940Y7754620D01*
X10797540Y7729220D01*
X10822940D01*
X10848340Y7703820D01*
X7627620Y7482840D02*
X7653020Y7508240D01*
X7678420D01*
X7653020Y7533640D01*
X7678420Y7559040D01*
X7653020D01*
X7627620Y7584440D01*
X7602220Y7559040D01*
X7576820D01*
X7602220Y7533640D01*
X7576820Y7508240D01*
X7602220D01*
X7627620Y7482840D01*
X5697220Y8051800D02*
X5722620Y8077200D01*
X5748020D01*
X5722620Y8102600D01*
X5748020Y8128000D01*
X5722620D01*
X5697220Y8153400D01*
X5671820Y8128000D01*
X5646420D01*
X5671820Y8102600D01*
X5646420Y8077200D01*
X5671820D01*
X5697220Y8051800D01*
X7780020Y7929880D02*
X7805420Y7955280D01*
X7830820D01*
X7805420Y7980680D01*
X7830820Y8006080D01*
X7805420D01*
X7780020Y8031480D01*
X7754620Y8006080D01*
X7729220D01*
X7754620Y7980680D01*
X7729220Y7955280D01*
X7754620D01*
X7780020Y7929880D01*
X8823889Y7066387D02*
X8849289Y7091787D01*
X8874689D01*
X8849289Y7117187D01*
X8874689Y7142587D01*
X8849289D01*
X8823889Y7167987D01*
X8798489Y7142587D01*
X8773089D01*
X8798489Y7117187D01*
X8773089Y7091787D01*
X8798489D01*
X8823889Y7066387D01*
X10919460Y7051040D02*
X10944860Y7076440D01*
X10970260D01*
X10944860Y7101840D01*
X10970260Y7127240D01*
X10944860D01*
X10919460Y7152640D01*
X10894060Y7127240D01*
X10868660D01*
X10894060Y7101840D01*
X10868660Y7076440D01*
X10894060D01*
X10919460Y7051040D01*
X4480560Y9941560D02*
X4505960Y9966960D01*
X4531360D01*
X4505960Y9992360D01*
X4531360Y10017760D01*
X4505960D01*
X4480560Y10043160D01*
X4455160Y10017760D01*
X4429760D01*
X4455160Y9992360D01*
X4429760Y9966960D01*
X4455160D01*
X4480560Y9941560D01*
X7444740Y9867900D02*
X7470140Y9893300D01*
X7495540D01*
X7470140Y9918700D01*
X7495540Y9944100D01*
X7470140D01*
X7444740Y9969500D01*
X7419340Y9944100D01*
X7393940D01*
X7419340Y9918700D01*
X7393940Y9893300D01*
X7419340D01*
X7444740Y9867900D01*
X12545060Y8011160D02*
X12570460Y8036560D01*
X12595860D01*
X12570460Y8061960D01*
X12595860Y8087360D01*
X12570460D01*
X12545060Y8112760D01*
X12519660Y8087360D01*
X12494260D01*
X12519660Y8061960D01*
X12494260Y8036560D01*
X12519660D01*
X12545060Y8011160D01*
X8069580Y9362440D02*
X8094980Y9387840D01*
X8120380D01*
X8094980Y9413240D01*
X8120380Y9438640D01*
X8094980D01*
X8069580Y9464040D01*
X8044180Y9438640D01*
X8018780D01*
X8044180Y9413240D01*
X8018780Y9387840D01*
X8044180D01*
X8069580Y9362440D01*
X11684000Y10035540D02*
X11709400Y10060940D01*
X11734800D01*
X11709400Y10086340D01*
X11734800Y10111740D01*
X11709400D01*
X11684000Y10137140D01*
X11658600Y10111740D01*
X11633200D01*
X11658600Y10086340D01*
X11633200Y10060940D01*
X11658600D01*
X11684000Y10035540D01*
X7543800Y9240520D02*
X7569200Y9265920D01*
X7594600D01*
X7569200Y9291320D01*
X7594600Y9316720D01*
X7569200D01*
X7543800Y9342120D01*
X7518400Y9316720D01*
X7493000D01*
X7518400Y9291320D01*
X7493000Y9265920D01*
X7518400D01*
X7543800Y9240520D01*
X6017260Y4719320D02*
X6042660Y4744720D01*
X6068060D01*
X6042660Y4770120D01*
X6068060Y4795520D01*
X6042660D01*
X6017260Y4820920D01*
X5991860Y4795520D01*
X5966460D01*
X5991860Y4770120D01*
X5966460Y4744720D01*
X5991860D01*
X6017260Y4719320D01*
X12938760Y9525000D02*
X12964160Y9550400D01*
X12989560D01*
X12964160Y9575800D01*
X12989560Y9601200D01*
X12964160D01*
X12938760Y9626600D01*
X12913361Y9601200D01*
X12887959D01*
X12913361Y9575800D01*
X12887959Y9550400D01*
X12913361D01*
X12938760Y9525000D01*
D64*
X3441700Y8502701D02*
G03*
X3441700Y8502701I-50800J0D01*
G01*
Y8702700D02*
G03*
X3441700Y8702700I-50800J0D01*
G01*
Y8902700D02*
G03*
X3441700Y8902700I-50800J0D01*
G01*
Y9102700D02*
G03*
X3441700Y9102700I-50800J0D01*
G01*
Y9302699D02*
G03*
X3441700Y9302699I-50800J0D01*
G01*
X3641700Y8502701D02*
G03*
X3641700Y8502701I-50800J0D01*
G01*
Y8702700D02*
G03*
X3641700Y8702700I-50800J0D01*
G01*
Y8902700D02*
G03*
X3641700Y8902700I-50800J0D01*
G01*
Y9102700D02*
G03*
X3641700Y9102700I-50800J0D01*
G01*
Y9302699D02*
G03*
X3641700Y9302699I-50800J0D01*
G01*
%TF.MD5,cff02b7b1f59efa34a52b2f3f8d1dbe0*%
M02*
